<?xml version="1.0" encoding="utf-8"?>
<!-- Generator: Adobe Illucintavrator 25.3.0, SVG Export Plug-In . SVG Version: 6.00 Build 0)  -->
<svg version="1.1" xmlns="http://www.w3.org/2000/svg" xmlns:xlink="http://www.w3.org/1999/xlink" x="0px" y="0px"
	 viewBox="0 0 1079.71 75.76" xml:space="preserve">
<style type="text/css">
	.cintav0{fill:#74B7B6;}
	.cintav1{fill:#6DCAA6;}
	.cintav2{fill:#EDE920;}
	.cintav3{fill:#DFD941;}
	.cintav4{fill:#8193D3;}
	.cintav5{fill:#7BA4C5;}
	.cintav6{fill:#C9C364;}
	.cintav7{fill:#B7AE80;}
	.cintav8{fill:#855FE7;}
	.cintav9{fill:#7C78DC;}
	.cintav10{fill:#BFB28D;}
	.cintav11{fill:#C88F85;}
	.cintav12{fill:#9330F7;}
	.cintav13{fill:#8C46EF;}
	.cintav14{fill:#DD6878;}
	.cintav15{fill:#FF30AF;}
	.cintav16{fill:#9C1BFF;}
	.cintav17{fill:#E4C33C;}
	.cintav18{fill:#9A5197;}
	.cintav19{fill:#8B4BAD;}
	.cintav20{fill:#0680DE;}
	.cintav21{fill:#2589C5;}
	.cintav22{fill:#B65C6C;}
	.cintav23{fill:#A85782;}
	.cintav24{fill:#4491AC;}
	.cintav25{fill:#639A93;}
	.cintav26{fill:#D36841;}
	.cintav27{fill:#C56257;}
	.cintav28{fill:#83A27A;}
	.cintav29{fill:#A2AB60;}
	.cintav30{fill:#F17316;}
	.cintav31{fill:#E26E2B;}
	.cintav32{fill:#C1B347;}
	.cintav33{fill:#FFC415;}
	.cintav34{fill:#FF7900;}
	.cintav35{fill:#20CEAC;}
</style>
<g>
	<path class="cintav18" d="M66.07,48.71c1.5,0,2.83,0,4.49,0c0.12,1.69,0.24,3.44,0.36,5.3c1.81,0.11,3.41,0.2,5.26,0.31
		c0,1.84,0,3.56,0,5.45c-5.54,0-10.93,0-16.53,0c0-1.76,0-3.43,0-5.42c1.93-0.11,3.87-0.22,6.02-0.35
		C65.81,52.21,65.93,50.54,66.07,48.71z"/>
	<path class="cintav18" d="M59.43,22.54c0-2.14,0-3.74,0-5.53c5.6,0,11.05,0,16.67,0c0,1.72,0,3.31,0,5.25
		c-1.67,0.13-3.41,0.26-5.31,0.41c-0.09,1.8-0.17,3.48-0.26,5.38c-1.56,0-3.03,0-4.69,0c-0.11-1.8-0.2-3.48-0.32-5.51
		C63.51,22.54,61.58,22.54,59.43,22.54z"/>
	<path class="cintav19" d="M2.49,28.34c-0.95,0-1.63,0-2.49,0c0-3.73,0-7.38,0-11.2c2.58,0,5.05,0,7.72,0c0,1.86,0,3.6,0,5.58
		c-1.65,0.09-3.15,0.16-4.97,0.26C2.67,24.66,2.59,26.32,2.49,28.34z"/>
	<path class="cintav19" d="M0,48.81c0.87,0,1.54,0,2.45,0c0.09,1.87,0.18,3.62,0.28,5.55c1.77,0.1,3.35,0.19,5.15,0.29
		c0,1.76,0,3.41,0,5.28c-2.62,0-5.16,0-7.88,0C0,56.26,0,52.68,0,48.81z"/>
	<path class="cintav20" d="M32.5,47.84c0-2.16,0-4.12,0-6.33c-2.11-0.1-3.96-0.18-6.02-0.28c0-2.24,0-4.35,0-6.73
		c1.91-0.09,3.76-0.18,5.83-0.28c0.13-1.69,0.25-3.27,0.4-5.09c1.53,0,3,0,4.67,0c0.11,1.62,0.22,3.21,0.35,5.05
		c2.1,0.1,4.13,0.2,6.36,0.31c0,2.26,0,4.37,0,6.77c-2.07,0-4.03,0-6.31,0c-0.13,2.29-0.24,4.31-0.37,6.58
		C35.91,47.84,34.45,47.84,32.5,47.84z"/>
	<path class="cintav21" d="M100.52,34.28c0-1.82,0-3.34,0-5.11c1.68,0,3.14,0,4.81,0c0.11,1.62,0.22,3.21,0.35,5.08
		c2.12,0.12,4.15,0.23,6.35,0.34c0,2.27,0,4.39,0,6.78c-2.03,0-3.98,0-6.31,0c-0.11,2.27-0.22,4.3-0.33,6.59c-1.47,0-2.94,0-4.68,0
		c-0.11-2.11-0.22-4.15-0.34-6.48c-2.01,0-3.87,0-5.93,0c0-2.42,0-4.53,0-6.89C96.42,34.48,98.28,34.39,100.52,34.28z"/>
	<path class="cintav22" d="M201.07,48.71c1.5,0,2.83,0,4.49,0c0.12,1.69,0.24,3.44,0.36,5.3c1.81,0.11,3.41,0.2,5.26,0.31
		c0,1.84,0,3.56,0,5.45c-5.54,0-10.93,0-16.53,0c0-1.76,0-3.43,0-5.42c1.93-0.11,3.87-0.22,6.02-0.35
		C200.81,52.21,200.93,50.54,201.07,48.71z"/>
	<path class="cintav22" d="M194.43,22.54c0-2.14,0-3.74,0-5.53c5.6,0,11.05,0,16.67,0c0,1.72,0,3.31,0,5.25
		c-1.67,0.13-3.41,0.26-5.31,0.41c-0.09,1.8-0.17,3.48-0.26,5.38c-1.56,0-3.03,0-4.69,0c-0.11-1.8-0.2-3.48-0.32-5.51
		C198.51,22.54,196.58,22.54,194.43,22.54z"/>
	<path class="cintav23" d="M134.89,17.17c-3.19,0-6.21,0-9.38,0c0,1.86,0,3.54,0,5.72c2.15,0,4.01,0,6.07,0
		c0.13,1.94,0.25,3.6,0.37,5.41c1.08,0,1.94,0,2.94,0c0.86,0,1.65,0.04,2.6,0.04c0.1-2.01,0.18-3.67,0.26-5.36
		c1.82-0.09,3.32-0.17,4.97-0.26c0-1.98,0-3.72,0-5.58C140.05,17.14,137.47,17.17,134.89,17.17z"/>
	<path class="cintav23" d="M137.73,54.36c-0.1-1.93-0.19-3.68-0.28-5.55c-0.91,0-0.97,0-2.45,0c-0.93,0-1.8,0.16-2.77,0.16
		c-0.1,1.83-0.2,3.51-0.31,5.38c-2.05,0.1-3.91,0.19-6,0.29c0,1.97,0,3.62,0,5.34c3.13,0,5.98,0,8.96,0c2.72,0,5.37-0.05,7.99-0.05
		c0-1.88,0-3.52,0-5.28C141.08,54.55,139.49,54.46,137.73,54.36z"/>
	<path class="cintav24" d="M167.5,47.84c0-2.16,0-4.12,0-6.33c-2.11-0.1-3.96-0.18-6.02-0.28c0-2.24,0-4.35,0-6.73
		c1.91-0.09,3.76-0.18,5.83-0.28c0.13-1.69,0.25-3.27,0.4-5.09c1.53,0,3,0,4.67,0c0.11,1.62,0.22,3.21,0.35,5.05
		c2.1,0.1,4.13,0.2,6.36,0.31c0,2.26,0,4.37,0,6.77c-2.07,0-4.03,0-6.31,0c-0.13,2.29-0.24,4.31-0.37,6.58
		C170.91,47.84,169.45,47.84,167.5,47.84z"/>
	<path class="cintav25" d="M235.52,34.28c0-1.82,0-3.34,0-5.11c1.68,0,3.14,0,4.81,0c0.11,1.62,0.22,3.21,0.35,5.08
		c2.12,0.12,4.15,0.23,6.35,0.34c0,2.27,0,4.39,0,6.78c-2.03,0-3.98,0-6.31,0c-0.11,2.27-0.22,4.3-0.33,6.59c-1.47,0-2.94,0-4.68,0
		c-0.11-2.11-0.22-4.15-0.34-6.48c-2.01,0-3.87,0-5.93,0c0-2.42,0-4.53,0-6.89C231.42,34.48,233.28,34.39,235.52,34.28z"/>
	<path class="cintav26" d="M336.07,48.71c1.5,0,2.83,0,4.49,0c0.12,1.69,0.24,3.44,0.36,5.3c1.81,0.11,3.41,0.2,5.26,0.31
		c0,1.84,0,3.56,0,5.45c-5.54,0-10.93,0-16.53,0c0-1.76,0-3.43,0-5.42c1.93-0.11,3.87-0.22,6.02-0.35
		C335.81,52.21,335.93,50.54,336.07,48.71z"/>
	<path class="cintav26" d="M329.43,22.54c0-2.14,0-3.74,0-5.53c5.6,0,11.05,0,16.67,0c0,1.72,0,3.31,0,5.25
		c-1.67,0.13-3.41,0.26-5.31,0.41c-0.09,1.8-0.17,3.48-0.26,5.38c-1.56,0-3.03,0-4.69,0c-0.11-1.8-0.2-3.48-0.32-5.51
		C333.51,22.54,331.58,22.54,329.43,22.54z"/>
	<path class="cintav27" d="M269.89,17.17c-3.19,0-6.21,0-9.38,0c0,1.86,0,3.54,0,5.72c2.15,0,4.01,0,6.07,0
		c0.13,1.94,0.25,3.6,0.37,5.41c1.08,0,1.94,0,2.94,0c0.86,0,1.65,0.04,2.6,0.04c0.1-2.01,0.18-3.67,0.26-5.36
		c1.82-0.09,3.32-0.17,4.97-0.26c0-1.98,0-3.72,0-5.58C275.05,17.14,272.47,17.17,269.89,17.17z"/>
	<path class="cintav27" d="M272.73,54.36c-0.1-1.93-0.19-3.68-0.28-5.55c-0.91,0-1.06,0-1.92,0c-0.07,0-2.33,0.16-3.29,0.16
		c-0.1,1.83-0.2,3.51-0.31,5.38c-2.05,0.1-3.91,0.19-6,0.29c0,1.97,0,3.62,0,5.34c3.13,0,5.98,0,8.96,0c2.72,0,5.37-0.05,7.99-0.05
		c0-1.88,0-3.52,0-5.28C276.08,54.55,274.49,54.46,272.73,54.36z"/>
	<path class="cintav28" d="M302.5,47.84c0-2.16,0-4.12,0-6.33c-2.11-0.1-3.96-0.18-6.02-0.28c0-2.24,0-4.35,0-6.73
		c1.91-0.09,3.76-0.18,5.83-0.28c0.13-1.69,0.25-3.27,0.4-5.09c1.53,0,3,0,4.67,0c0.11,1.62,0.22,3.21,0.35,5.05
		c2.1,0.1,4.13,0.2,6.36,0.31c0,2.26,0,4.37,0,6.77c-2.07,0-4.03,0-6.31,0c-0.13,2.29-0.24,4.31-0.37,6.58
		C305.91,47.84,304.45,47.84,302.5,47.84z"/>
	<path class="cintav29" d="M370.52,34.28c0-1.82,0-3.34,0-5.11c1.68,0,3.14,0,4.81,0c0.11,1.62,0.22,3.21,0.35,5.08
		c2.12,0.12,4.15,0.23,6.35,0.34c0,2.27,0,4.39,0,6.78c-2.03,0-3.98,0-6.31,0c-0.11,2.27-0.22,4.3-0.33,6.59c-1.47,0-2.94,0-4.68,0
		c-0.11-2.11-0.22-4.15-0.34-6.48c-2.01,0-3.87,0-5.93,0c0-2.42,0-4.53,0-6.89C366.42,34.48,368.28,34.39,370.52,34.28z"/>
	<path class="cintav30" d="M471.07,48.71c1.5,0,2.83,0,4.49,0c0.12,1.69,0.24,3.44,0.36,5.3c1.81,0.11,3.41,0.2,5.26,0.31
		c0,1.84,0,3.56,0,5.45c-5.54,0-10.93,0-16.53,0c0-1.76,0-3.43,0-5.42c1.93-0.11,3.87-0.22,6.02-0.35
		C470.81,52.21,470.93,50.54,471.07,48.71z"/>
	<path class="cintav30" d="M464.43,22.54c0-2.14,0-3.74,0-5.53c5.6,0,11.05,0,16.67,0c0,1.72,0,3.31,0,5.25
		c-1.67,0.13-3.41,0.26-5.31,0.41c-0.09,1.8-0.17,3.48-0.26,5.38c-1.56,0-3.03,0-4.69,0c-0.11-1.8-0.2-3.48-0.32-5.51
		C468.51,22.54,466.58,22.54,464.43,22.54z"/>
	<path class="cintav31" d="M404.89,17.17c-3.19,0-6.21,0-9.38,0c0,1.86,0,3.54,0,5.72c2.15,0,4.01,0,6.07,0
		c0.13,1.94,0.25,3.6,0.37,5.41c1.08,0,1.94,0,2.94,0c0.86,0,1.65,0.04,2.6,0.04c0.1-2.01,0.18-3.67,0.26-5.36
		c1.82-0.09,3.32-0.17,4.97-0.26c0-1.98,0-3.72,0-5.58C410.05,17.14,407.47,17.17,404.89,17.17z"/>
	<path class="cintav31" d="M407.73,54.36c-0.1-1.93-0.19-3.68-0.28-5.55c-0.91,0-1.58,0-2.45,0c-0.93,0-1.8,0.16-2.77,0.16
		c-0.1,1.83-0.2,3.51-0.31,5.38c-2.05,0.1-3.91,0.19-6,0.29c0,1.97,0,3.62,0,5.34c3.13,0,6.09-0.05,9.07-0.05c2.72,0,5.27,0,7.88,0
		c0-1.88,0-3.52,0-5.28C411.08,54.55,409.49,54.46,407.73,54.36z"/>
	<path class="cintav32" d="M437.5,47.84c0-2.16,0-4.12,0-6.33c-2.11-0.1-3.96-0.18-6.02-0.28c0-2.24,0-4.35,0-6.73
		c1.91-0.09,3.76-0.18,5.83-0.28c0.13-1.69,0.25-3.27,0.4-5.09c1.53,0,3,0,4.67,0c0.11,1.62,0.22,3.21,0.35,5.05
		c2.1,0.1,4.13,0.2,6.36,0.31c0,2.26,0,4.37,0,6.77c-2.07,0-4.03,0-6.31,0c-0.13,2.29-0.24,4.31-0.37,6.58
		C440.91,47.84,439.45,47.84,437.5,47.84z"/>
	<path class="cintav33" d="M505.52,34.28c0-1.82,0-3.34,0-5.11c1.68,0,3.14,0,4.81,0c0.11,1.62,0.22,3.21,0.35,5.08
		c2.12,0.12,4.15,0.23,6.35,0.34c0,2.27,0,4.39,0,6.78c-2.03,0-3.98,0-6.31,0c-0.11,2.27-0.22,4.3-0.33,6.59c-1.47,0-2.94,0-4.68,0
		c-0.11-2.11-0.22-4.15-0.34-6.48c-2.01,0-3.87,0-5.93,0c0-2.42,0-4.53,0-6.89C501.42,34.48,503.28,34.39,505.52,34.28z"/>
	<path class="cintav30" d="M605.95,48.71c1.5,0,2.83,0,4.49,0c0.12,1.69,0.24,3.44,0.36,5.3c1.81,0.11,3.41,0.2,5.26,0.31
		c0,1.84,0,3.56,0,5.45c-5.54,0-10.93,0-16.53,0c0-1.76,0-3.43,0-5.42c1.93-0.11,3.87-0.22,6.02-0.35
		C605.69,52.21,605.81,50.54,605.95,48.71z"/>
	<path class="cintav30" d="M599.31,22.54c0-2.14,0-3.74,0-5.53c5.6,0,11.05,0,16.67,0c0,1.72,0,3.31,0,5.25
		c-1.67,0.13-3.41,0.26-5.31,0.41c-0.09,1.8-0.17,3.48-0.26,5.38c-1.56,0-3.03,0-4.69,0c-0.11-1.8-0.2-3.48-0.32-5.51
		C603.39,22.54,601.46,22.54,599.31,22.54z"/>
	<path class="cintav34" d="M539.89,17.17c-3.19,0-6.21,0-9.38,0c0,1.86,0,3.54,0,5.72c2.15,0,4.01,0,6.07,0
		c0.13,1.94,0.25,3.6,0.37,5.41c1.08,0,1.94,0,2.94,0c0.86,0,1.53,0.04,2.48,0.04c0.1-2.01,0.18-3.67,0.26-5.36
		c1.82-0.09,3.32-0.17,4.97-0.26c0-1.98,0-3.72,0-5.58C544.93,17.14,542.47,17.17,539.89,17.17z"/>
	<path class="cintav34" d="M542.61,54.36c-0.1-1.93-0.19-3.52-0.28-5.38c-0.91,0-1.57,0-2.44,0c-0.93,0-1.7,0-2.66,0
		c-0.1,1.83-0.2,3.51-0.31,5.38c-2.05,0.1-3.91,0.19-6,0.29c0,1.97,0,3.62,0,5.34c3.13,0,5.98,0,8.96,0c2.72,0,5.25-0.05,7.87-0.05
		c0-1.88,0-3.52,0-5.28C545.96,54.55,544.37,54.46,542.61,54.36z"/>
	<path class="cintav33" d="M572.38,47.84c0-2.16,0-4.12,0-6.33c-2.11-0.1-3.96-0.18-6.02-0.28c0-2.24,0-4.35,0-6.73
		c1.91-0.09,3.76-0.18,5.83-0.28c0.13-1.69,0.25-3.27,0.4-5.09c1.53,0,3,0,4.67,0c0.11,1.62,0.22,3.21,0.35,5.05
		c2.1,0.1,4.13,0.2,6.36,0.31c0,2.26,0,4.37,0,6.77c-2.07,0-4.03,0-6.31,0c-0.13,2.29-0.24,4.31-0.37,6.58
		C575.79,47.84,574.33,47.84,572.38,47.84z"/>
	<path class="cintav32" d="M640.4,34.28c0-1.82,0-3.34,0-5.11c1.68,0,3.14,0,4.81,0c0.11,1.62,0.22,3.21,0.35,5.08
		c2.12,0.12,4.15,0.23,6.35,0.34c0,2.27,0,4.39,0,6.78c-2.03,0-3.98,0-6.31,0c-0.11,2.27-0.22,4.3-0.33,6.59c-1.47,0-2.94,0-4.68,0
		c-0.11-2.11-0.22-4.15-0.34-6.48c-2.01,0-3.87,0-5.93,0c0-2.42,0-4.53,0-6.89C636.3,34.48,638.16,34.39,640.4,34.28z"/>
	<path class="cintav26" d="M740.95,48.71c1.5,0,2.83,0,4.49,0c0.12,1.69,0.24,3.44,0.36,5.3c1.81,0.11,3.41,0.2,5.26,0.31
		c0,1.84,0,3.56,0,5.45c-5.54,0-10.93,0-16.53,0c0-1.76,0-3.43,0-5.42c1.93-0.11,3.87-0.22,6.02-0.35
		C740.69,52.21,740.81,50.54,740.95,48.71z"/>
	<path class="cintav26" d="M734.31,22.54c0-2.14,0-3.74,0-5.53c5.6,0,11.05,0,16.67,0c0,1.72,0,3.31,0,5.25
		c-1.67,0.13-3.41,0.26-5.31,0.41c-0.09,1.8-0.17,3.48-0.26,5.38c-1.56,0-3.03,0-4.69,0c-0.11-1.8-0.2-3.48-0.32-5.51
		C738.39,22.54,736.46,22.54,734.31,22.54z"/>
	<path class="cintav31" d="M674.77,17.17c-3.19,0-6.21,0-9.38,0c0,1.86,0,3.54,0,5.72c2.15,0,4.01,0,6.07,0
		c0.13,1.94,0.25,3.6,0.37,5.41c1.08,0,1.94,0,2.94,0c0.86,0,1.65,0.04,2.6,0.04c0.1-2.01,0.18-3.67,0.26-5.36
		c1.82-0.09,3.32-0.17,4.97-0.26c0-1.98,0-3.72,0-5.58C679.93,17.14,677.35,17.17,674.77,17.17z"/>
	<path class="cintav31" d="M677.61,54.36c-0.1-1.93-0.19-3.68-0.28-5.55c-0.91,0-1.58,0-2.45,0c-0.93,0-1.8,0.16-2.77,0.16
		c-0.1,1.83-0.2,3.51-0.31,5.38c-2.05,0.1-3.91,0.19-6,0.29c0,1.97,0,3.62,0,5.34c3.13,0,6.09-0.05,9.07-0.05c2.72,0,5.27,0,7.88,0
		c0-1.88,0-3.52,0-5.28C680.96,54.55,679.37,54.46,677.61,54.36z"/>
	<path class="cintav29" d="M707.38,47.84c0-2.16,0-4.12,0-6.33c-2.11-0.1-3.96-0.18-6.02-0.28c0-2.24,0-4.35,0-6.73
		c1.91-0.09,3.76-0.18,5.83-0.28c0.13-1.69,0.25-3.27,0.4-5.09c1.53,0,3,0,4.67,0c0.11,1.62,0.22,3.21,0.35,5.05
		c2.1,0.1,4.13,0.2,6.36,0.31c0,2.26,0,4.37,0,6.77c-2.07,0-4.03,0-6.31,0c-0.13,2.29-0.24,4.31-0.37,6.58
		C710.79,47.84,709.33,47.84,707.38,47.84z"/>
	<path class="cintav28" d="M775.4,34.28c0-1.82,0-3.34,0-5.11c1.68,0,3.14,0,4.81,0c0.11,1.62,0.22,3.21,0.35,5.08
		c2.12,0.12,4.15,0.23,6.35,0.34c0,2.27,0,4.39,0,6.78c-2.03,0-3.98,0-6.31,0c-0.11,2.27-0.22,4.3-0.33,6.59c-1.47,0-2.94,0-4.68,0
		c-0.11-2.11-0.22-4.15-0.34-6.48c-2.01,0-3.87,0-5.93,0c0-2.42,0-4.53,0-6.89C771.3,34.48,773.16,34.39,775.4,34.28z"/>
	<path class="cintav22" d="M875.95,48.71c1.5,0,2.83,0,4.49,0c0.12,1.69,0.24,3.44,0.36,5.3c1.81,0.11,3.41,0.2,5.26,0.31
		c0,1.84,0,3.56,0,5.45c-5.54,0-10.93,0-16.53,0c0-1.76,0-3.43,0-5.42c1.93-0.11,3.87-0.22,6.02-0.35
		C875.69,52.21,875.81,50.54,875.95,48.71z"/>
	<path class="cintav22" d="M869.31,22.54c0-2.14,0-3.74,0-5.53c5.6,0,11.05,0,16.67,0c0,1.72,0,3.31,0,5.25
		c-1.67,0.13-3.41,0.26-5.31,0.41c-0.09,1.8-0.17,3.48-0.26,5.38c-1.56,0-3.03,0-4.69,0c-0.11-1.8-0.2-3.48-0.32-5.51
		C873.39,22.54,871.46,22.54,869.31,22.54z"/>
	<path class="cintav27" d="M809.88,17.14c-3.19,0-6.32,0.03-9.49,0.03c0,1.86,0,3.54,0,5.72c2.15,0,4.01,0,6.07,0
		c0.13,1.94,0.25,3.6,0.37,5.41c1.08,0,2.05,0.04,3.05,0.04c0.86,0,1.54,0,2.49,0c0.1-2.01,0.18-3.67,0.26-5.36
		c1.82-0.09,3.32-0.17,4.97-0.26c0-1.98,0-3.72,0-5.58C814.93,17.14,812.46,17.14,809.88,17.14z"/>
	<path class="cintav27" d="M812.61,54.36c-0.1-1.93-0.19-3.68-0.28-5.55c-0.91,0-1.58,0-2.45,0c-0.93,0-1.8,0.16-2.77,0.16
		c-0.1,1.83-0.2,3.51-0.31,5.38c-2.05,0.1-3.91,0.19-6,0.29c0,1.97,0,3.62,0,5.34c3.13,0,6.09-0.05,9.07-0.05c2.72,0,5.27,0,7.88,0
		c0-1.88,0-3.52,0-5.28C815.96,54.55,814.37,54.46,812.61,54.36z"/>
	<path class="cintav25" d="M842.38,47.84c0-2.16,0-4.12,0-6.33c-2.11-0.1-3.96-0.18-6.02-0.28c0-2.24,0-4.35,0-6.73
		c1.91-0.09,3.76-0.18,5.83-0.28c0.13-1.69,0.25-3.27,0.4-5.09c1.53,0,3,0,4.67,0c0.11,1.62,0.22,3.21,0.35,5.05
		c2.1,0.1,4.13,0.2,6.36,0.31c0,2.26,0,4.37,0,6.77c-2.07,0-4.03,0-6.31,0c-0.13,2.29-0.24,4.31-0.37,6.58
		C845.79,47.84,844.33,47.84,842.38,47.84z"/>
	<path class="cintav24" d="M910.4,34.28c0-1.82,0-3.34,0-5.11c1.68,0,3.14,0,4.81,0c0.11,1.62,0.22,3.21,0.35,5.08
		c2.12,0.12,4.15,0.23,6.35,0.34c0,2.27,0,4.39,0,6.78c-2.03,0-3.98,0-6.31,0c-0.11,2.27-0.22,4.3-0.33,6.59c-1.47,0-2.94,0-4.68,0
		c-0.11-2.11-0.22-4.15-0.34-6.48c-2.01,0-3.87,0-5.93,0c0-2.42,0-4.53,0-6.89C906.3,34.48,908.16,34.39,910.4,34.28z"/>
	<path class="cintav35" d="M1073.79,34.23c-0.13-1.98-0.25-3.74-0.38-5.8c-2.39,0-4.52,0-6.78,0c-0.14-2.17-0.26-4.02-0.39-6.16
		c-3.12,0-5.97,0-8.96,0c-0.14-1.97-0.26-3.63-0.37-5.28c-6.92,0-13.58,0-20.39,0c-0.14,1.85-0.27,3.51-0.42,5.51
		c-3.33,0-6.35,0-9.61,0c0,2.15,0,3.93,0,6.08c-2.28,0-4.29,0-6.44,0c-0.12,2.06-0.22,3.74-0.33,5.52c-4.7,0-9.18,0-13.77,0
		c-0.12-2.02-0.22-3.87-0.33-5.78c-2.41-0.11-4.54-0.21-6.74-0.32c-0.12-2.15-0.23-4-0.36-6.25c-3.18,0-6.1,0-9.06,0
		c-0.1-1.93-0.18-3.45-0.27-5.14c-6.98,0-13.65,0-20.44,0c-0.11,1.79-0.2,3.39-0.32,5.34c-3.21,0-6.24,0-9.37,0
		c-0.13,2.22-0.24,4.08-0.36,6.12c-2.26,0.1-4.29,0.19-6.42,0.28c-0.1,2.07-0.19,3.84-0.3,5.98c-2.48,0-4.88-0.1-7.23-0.1
		c-2.07,0-3.94,0-5.94,0c-0.13-1.98-0.25-3.74-0.38-5.8c-2.39,0-4.52,0-6.78,0c-0.14-2.17-0.26-4.02-0.39-6.16
		c-3.12,0-5.97,0-8.96,0c-0.14-1.97-0.25-3.63-0.37-5.28c-6.92,0-13.58,0-20.39,0c-0.14,1.85-0.27,3.51-0.42,5.51
		c-3.33,0-6.35,0-9.61,0c0,2.15,0,3.93,0,6.08c-2.28,0-4.29,0-6.44,0c-0.12,2.06-0.22,3.74-0.33,5.52c-4.7,0-9.18,0-13.77,0
		c-0.12-2.02-0.22-3.87-0.33-5.78c-2.41-0.11-4.54-0.21-6.74-0.32c-0.12-2.15-0.23-4-0.36-6.25c-3.18,0-6.1,0-9.06,0
		c-0.1-1.93-0.18-3.45-0.27-5.14c-6.98,0-13.65,0-20.44,0c-0.11,1.79-0.2,3.39-0.32,5.34c-3.21,0-6.24,0-9.37,0
		c-0.13,2.22-0.24,4.08-0.36,6.12c-2.26,0.1-4.29,0.19-6.42,0.28c-0.1,2.07-0.19,3.84-0.3,5.98c-2.48,0-4.78,0-7.14,0
		c-2.07,0-4.04-0.1-6.04-0.1c-0.13-1.98-0.25-3.74-0.38-5.8c-2.39,0-4.52,0-6.78,0c-0.14-2.17-0.26-4.02-0.39-6.16
		c-3.12,0-5.97,0-8.96,0c-0.14-1.97-0.25-3.63-0.37-5.28c-6.92,0-13.58,0-20.39,0c-0.14,1.85-0.27,3.51-0.42,5.51
		c-3.33,0-6.35,0-9.61,0c0,2.15,0,3.93,0,6.08c-2.28,0-4.29,0-6.44,0c-0.12,2.06-0.22,3.74-0.33,5.52c-4.7,0-9.18,0-13.77,0
		c-0.12-2.02-0.22-3.87-0.33-5.78c-2.41-0.11-4.54-0.21-6.74-0.32c-0.12-2.15-0.23-4-0.36-6.25c-3.18,0-6.1,0-9.06,0
		c-0.1-1.93-0.18-3.45-0.27-5.14c-6.98,0-13.65,0-20.44,0c-0.11,1.79-0.2,3.39-0.32,5.34c-3.21,0-6.24,0-9.37,0
		c-0.13,2.22-0.24,4.08-0.36,6.12c-2.26,0.1-4.29,0.19-6.42,0.28c-0.1,2.07-0.19,3.84-0.3,5.98c-2.48,0-4.88-0.1-7.23-0.1
		c-2.07,0-3.94,0-5.94,0c-0.13-1.98-0.25-3.74-0.38-5.8c-2.39,0-4.52,0-6.78,0c-0.14-2.17-0.26-4.02-0.39-6.16
		c-3.12,0-5.97,0-8.96,0c-0.14-1.97-0.25-3.63-0.37-5.28c-6.92,0-13.58,0-20.39,0c-0.14,1.85-0.27,3.51-0.42,5.51
		c-3.33,0-6.35,0-9.61,0c0,2.15,0,3.93,0,6.08c-2.28,0-4.29,0-6.44,0c-0.12,2.06-0.22,3.74-0.33,5.52c-4.7,0-9.18,0-13.77,0
		c-0.12-2.02-0.22-3.87-0.33-5.78c-2.41-0.11-4.54-0.21-6.74-0.32c-0.12-2.15-0.23-4-0.36-6.25c-3.18,0-6.1,0-9.06,0
		c-0.1-1.93-0.18-3.45-0.27-5.14c-6.98,0-13.65,0-20.44,0c-0.11,1.79-0.2,3.39-0.32,5.34c-3.21,0-6.24,0-9.37,0
		c-0.13,2.22-0.24,4.08-0.36,6.12c-2.26,0.1-4.29,0.19-6.42,0.28c-0.1,2.07-0.19,3.84-0.3,5.98c-2.48,0-4.76-0.1-7.11-0.1
		c-2.07,0-3.94,0-5.94,0c-0.13-1.98-0.25-3.74-0.38-5.8c-2.39,0-4.52,0-6.78,0c-0.14-2.17-0.26-4.02-0.39-6.16
		c-3.12,0-5.98,0-8.96,0c-0.14-1.97-0.26-3.63-0.37-5.28c-6.92,0-13.58,0-20.39,0c-0.14,1.85-0.27,3.51-0.42,5.51
		c-3.33,0-6.35,0-9.61,0c0,2.15,0,3.93,0,6.08c-2.28,0-4.29,0-6.44,0c-0.12,2.06-0.22,3.74-0.33,5.52c-4.7,0-9.18,0-13.77,0
		c-0.12-2.02-0.22-3.87-0.33-5.78c-2.41-0.11-4.54-0.21-6.74-0.32c-0.12-2.15-0.23-4-0.36-6.25c-3.18,0-6.1,0-9.06,0
		c-0.1-1.93-0.18-3.45-0.27-5.14c-6.98,0-13.65,0-20.44,0c-0.11,1.79-0.2,3.39-0.32,5.34c-3.21,0-6.24,0-9.37,0
		c-0.13,2.22-0.24,4.08-0.36,6.12c-2.26,0.1-4.29,0.19-6.42,0.28c-0.1,2.07-0.19,3.84-0.3,5.98c-2.48,0-4.78,0-7.14,0
		c-2.07,0-4.04-0.1-6.04-0.1c-0.13-1.98-0.25-3.74-0.38-5.8c-2.39,0-4.52,0-6.78,0c-0.14-2.17-0.26-4.02-0.39-6.16
		c-3.12,0-5.97,0-8.96,0c-0.14-1.97-0.26-3.63-0.37-5.28c-6.92,0-13.58,0-20.39,0c-0.14,1.85-0.27,3.51-0.42,5.51
		c-3.33,0-6.35,0-9.61,0c0,2.15,0,3.93,0,6.08c-2.28,0-4.29,0-6.44,0c-0.12,2.06-0.22,3.74-0.33,5.52c-4.7,0-9.18,0-13.77,0
		c-0.12-2.02-0.22-3.87-0.33-5.78c-2.41-0.11-4.54-0.21-6.74-0.32c-0.12-2.15-0.23-4-0.36-6.25c-3.18,0-6.1,0-9.06,0
		c-0.1-1.93-0.18-3.45-0.27-5.14c-6.98,0-13.65,0-20.44,0c-0.11,1.79-0.2,3.39-0.32,5.34c-3.21,0-6.24,0-9.37,0
		c-0.13,2.22-0.24,4.08-0.36,6.12c-2.26,0.1-4.29,0.19-6.42,0.28c-0.1,2.07-0.19,3.84-0.3,5.98c-2.48,0-4.88-0.1-7.23-0.1
		c-2.07,0-3.94,0-5.94,0c-0.13-1.98-0.25-3.74-0.38-5.8c-2.39,0-4.52,0-6.78,0c-0.14-2.17-0.26-4.02-0.39-6.16
		c-3.12,0-5.97,0-8.96,0c-0.14-1.97-0.26-3.63-0.37-5.28c-6.92,0-13.58,0-20.39,0c-0.14,1.85-0.27,3.51-0.42,5.51
		c-3.33,0-6.35,0-9.61,0c0,2.15,0,3.93,0,6.08c-2.28,0-4.29,0-6.44,0c-0.12,2.06-0.22,3.74-0.33,5.52c-4.7,0-9.18,0-13.77,0
		c-0.12-2.02-0.22-3.87-0.33-5.78c-2.41-0.11-4.54-0.21-6.74-0.32c-0.12-2.15-0.23-4-0.36-6.25c-3.18,0-6.1,0-9.06,0
		c-0.1-1.93-0.18-3.45-0.27-5.14c-6.98,0-13.65,0-20.44,0c-0.11,1.79-0.2,3.39-0.32,5.34c-3.21,0-6.24,0-9.37,0
		c-0.13,2.22-0.24,4.08-0.36,6.12c-2.26,0.1-4.29,0.19-6.42,0.28c-0.1,2.07-0.19,3.84-0.3,5.98c-2.48,0-4.78,0-7.14,0
		c-2.07,0-4.04-0.1-6.04-0.1c-0.13-1.98-0.25-3.74-0.38-5.8c-2.39,0-4.52,0-6.78,0c-0.14-2.17-0.26-4.02-0.39-6.16
		c-3.12,0-5.97,0-8.96,0c-0.14-1.97-0.26-3.63-0.37-5.28c-6.92,0-13.58,0-20.39,0c-0.14,1.85-0.27,3.51-0.42,5.51
		c-3.33,0-6.35,0-9.61,0c0,2.15,0,3.93,0,6.08c-2.28,0-4.29,0-6.44,0c-0.12,2.06-0.22,3.74-0.33,5.52c-4.7,0-9.18,0-13.77,0
		c-0.12-2.02-0.22-3.87-0.33-5.78c-2.41-0.11-4.54-0.21-6.74-0.32c-0.12-2.15-0.23-4-0.36-6.25c-3.18,0-6.1,0-9.06,0
		c-0.1-1.93-0.18-3.45-0.27-5.14c-6.98,0-13.65,0-20.44,0c-0.11,1.79-0.2,3.39-0.32,5.34c-3.21,0-6.24,0-9.37,0
		c-0.13,2.22-0.24,4.08-0.36,6.12c-2.26,0.1-4.29,0.19-6.42,0.28c-0.1,2.07-0.19,3.84-0.3,5.98c-2.48,0-4.78,0-7.14,0
		c0,2.44,0,4.49,0,6.91c2.42,0,4.72,0,7.16,0c0.1,2.22,0.19,4.09,0.29,6.3c2.25,0,4.27,0,6.4,0c0.14,2.11,0.26,3.88,0.41,6.03
		c3.24,0,6.25,0,9.52,0c0,1.29-0.02,2.18,0.01,3.07c0.03,0.87,0.1,1.74,0.17,2.77c6.91,0,13.57,0,20.37,0c0.13-2.01,0.26-3.85,0.4-6
		c3.13,0,5.99,0,9.02,0c0.1-2.09,0.19-3.85,0.3-6.01c2.39,0,4.58,0,7.01,0c0-2.28,0-4.15,0-6.06c4.74,0,9.22,0,13.85,0
		c0.13,2.22,0.25,4.25,0.37,6.38c2.3,0.11,4.32,0.21,6.35,0.31c0.12,2.11,0.23,3.87,0.35,5.99c3.3,0,6.32,0,9.4,0
		c0.11,2.14,0.2,3.9,0.29,5.74c6.96,0,13.62,0,20.44,0c0.12-2.01,0.23-3.85,0.36-5.97c3.12,0,5.99,0,9.01,0
		c0.1-2.06,0.18-3.83,0.28-5.89c2.36,0,4.5,0,6.88,0c0.13-2.4,0.25-4.51,0.38-6.84c2.13,0,4.1,0.17,6.01,0.17c2.42,0,4.72,0,7.16,0
		c0.1,2.22,0.19,4.09,0.29,6.3c2.25,0,4.27,0,6.4,0c0.14,2.11,0.26,3.88,0.41,6.03c3.24,0,6.25,0,9.52,0c0,1.29-0.02,2.18,0.01,3.07
		c0.03,0.87,0.1,1.74,0.17,2.77c6.91,0,13.57,0,20.37,0c0.13-2.01,0.26-3.85,0.4-6c3.13,0,5.99,0,9.02,0
		c0.1-2.09,0.19-3.85,0.3-6.01c2.39,0,4.58,0,7.01,0c0-2.28,0-4.15,0-6.06c4.74,0,9.22,0,13.85,0c0.13,2.22,0.25,4.25,0.37,6.38
		c2.3,0.11,4.32,0.21,6.35,0.31c0.12,2.11,0.23,3.87,0.35,5.99c3.3,0,6.32,0,9.4,0c0.11,2.14,0.2,3.9,0.29,5.74
		c6.96,0,13.62,0,20.44,0c0.12-2.01,0.23-3.85,0.36-5.97c3.12,0,5.99,0,9.01,0c0.1-2.06,0.18-3.83,0.28-5.89c2.36,0,4.5,0,6.88,0
		c0.13-2.4,0.25-4.51,0.38-6.84c2.13,0,4,0,5.91,0c2.42,0,4.82,0.17,7.26,0.17c0.1,2.22,0.19,4.09,0.29,6.3c2.25,0,4.27,0,6.4,0
		c0.14,2.11,0.26,3.88,0.41,6.03c3.24,0,6.25,0,9.52,0c0,1.29-0.02,2.18,0.01,3.07c0.03,0.87,0.1,1.74,0.17,2.77
		c6.91,0,13.57,0,20.37,0c0.13-2.01,0.26-3.85,0.4-6c3.13,0,5.99,0,9.02,0c0.1-2.09,0.19-3.85,0.3-6.01c2.39,0,4.58,0,7.01,0
		c0-2.28,0-4.15,0-6.06c4.74,0,9.22,0,13.85,0c0.13,2.22,0.25,4.25,0.37,6.38c2.3,0.11,4.32,0.21,6.35,0.31
		c0.12,2.11,0.23,3.87,0.35,5.99c3.3,0,6.32,0,9.4,0c0.11,2.14,0.2,3.9,0.29,5.74c6.96,0,13.62,0,20.44,0
		c0.12-2.01,0.23-3.85,0.36-5.97c3.12,0,5.99,0,9.01,0c0.1-2.06,0.18-3.83,0.28-5.89c2.36,0,4.5,0,6.88,0
		c0.13-2.4,0.25-4.51,0.38-6.84c2.13,0,4.1,0.17,6.01,0.17c2.42,0,4.72,0,7.16,0c0.1,2.22,0.19,4.09,0.29,6.3c2.25,0,4.27,0,6.4,0
		c0.14,2.11,0.26,3.88,0.41,6.03c3.24,0,6.25,0,9.52,0c0,1.29-0.02,2.18,0.01,3.07c0.03,0.87,0.1,1.74,0.17,2.77
		c6.91,0,13.57,0,20.37,0c0.13-2.01,0.26-3.85,0.4-6c3.13,0,5.99,0,9.02,0c0.1-2.09,0.19-3.85,0.3-6.01c2.39,0,4.58,0,7.01,0
		c0-2.28,0-4.15,0-6.06c4.74,0,9.22,0,13.85,0c0.13,2.22,0.25,4.25,0.37,6.38c2.3,0.11,4.32,0.21,6.35,0.31
		c0.12,2.11,0.23,3.87,0.35,5.99c3.3,0,6.32,0,9.4,0c0.11,2.14,0.2,3.9,0.29,5.74c6.96,0,13.62,0,20.44,0
		c0.12-2.01,0.23-3.85,0.36-5.97c3.12,0,5.99,0,9.01,0c0.1-2.06,0.18-3.83,0.28-5.89c2.36,0,4.5,0,6.88,0
		c0.13-2.4,0.25-4.51,0.38-6.84c2.13,0,4,0,5.91,0c2.42,0,4.7,0.17,7.14,0.17c0.1,2.22,0.19,4.09,0.29,6.3c2.25,0,4.27,0,6.4,0
		c0.14,2.11,0.26,3.88,0.41,6.03c3.24,0,6.25,0,9.52,0c0,1.29-0.02,2.18,0.01,3.07c0.03,0.87,0.1,1.74,0.17,2.77
		c6.91,0,13.57,0,20.37,0c0.13-2.01,0.26-3.85,0.4-6c3.13,0,5.99,0,9.02,0c0.1-2.09,0.19-3.85,0.3-6.01c2.39,0,4.58,0,7.01,0
		c0-2.28,0-4.15,0-6.06c4.74,0,9.22,0,13.85,0c0.13,2.22,0.25,4.25,0.37,6.38c2.3,0.11,4.32,0.21,6.35,0.31
		c0.12,2.11,0.23,3.87,0.35,5.99c3.3,0,6.32,0,9.4,0c0.11,2.14,0.2,3.9,0.29,5.74c6.96,0,13.62,0,20.44,0
		c0.12-2.01,0.23-3.85,0.36-5.97c3.12,0,5.99,0,9.01,0c0.1-2.06,0.18-3.83,0.28-5.89c2.36,0,4.5,0,6.88,0
		c0.13-2.4,0.25-4.51,0.38-6.84c2.13,0,4,0,5.91,0c2.42,0,4.82,0.17,7.26,0.17c0.1,2.22,0.19,4.09,0.29,6.3c2.25,0,4.27,0,6.4,0
		c0.14,2.11,0.26,3.88,0.41,6.03c3.24,0,6.25,0,9.52,0c0,1.29-0.02,2.18,0.01,3.07c0.03,0.87,0.1,1.74,0.17,2.77
		c6.91,0,13.57,0,20.37,0c0.13-2.01,0.26-3.85,0.4-6c3.13,0,5.99,0,9.02,0c0.1-2.09,0.19-3.85,0.3-6.01c2.39,0,4.58,0,7.01,0
		c0-2.28,0-4.15,0-6.06c4.74,0,9.22,0,13.85,0c0.13,2.22,0.25,4.25,0.37,6.38c2.3,0.11,4.32,0.21,6.35,0.31
		c0.12,2.11,0.23,3.87,0.35,5.99c3.3,0,6.32,0,9.4,0c0.11,2.14,0.2,3.9,0.29,5.74c6.96,0,13.62,0,20.44,0
		c0.12-2.01,0.23-3.85,0.36-5.97c3.12,0,5.99,0,9.01,0c0.1-2.06,0.18-3.83,0.28-5.89c2.36,0,4.5,0,6.88,0
		c0.13-2.4,0.25-4.51,0.38-6.84c2.13,0,4.1,0.17,6.01,0.17c2.42,0,4.72,0,7.16,0c0.1,2.22,0.19,4.09,0.29,6.3c2.25,0,4.27,0,6.4,0
		c0.14,2.11,0.26,3.88,0.41,6.03c3.24,0,6.25,0,9.52,0c0,1.29-0.02,2.18,0.01,3.07c0.03,0.87,0.1,1.74,0.17,2.77
		c6.91,0,13.57,0,20.37,0c0.13-2.01,0.26-3.85,0.4-6c3.13,0,5.99,0,9.02,0c0.1-2.09,0.19-3.85,0.3-6.01c2.39,0,4.58,0,7.01,0
		c0-2.28,0-4.15,0-6.06c4.74,0,9.22,0,13.85,0c0.13,2.22,0.25,4.25,0.37,6.38c2.3,0.11,4.32,0.21,6.35,0.31
		c0.12,2.11,0.23,3.87,0.35,5.99c3.3,0,6.32,0,9.4,0c0.11,2.14,0.2,3.9,0.29,5.74c6.96,0,13.62,0,20.44,0
		c0.12-2.01,0.23-3.85,0.36-5.97c3.12,0,5.99,0,9.01,0c0.1-2.06,0.18-3.83,0.28-5.89c2.36,0,4.5,0,6.88,0
		c0.13-2.4,0.25-4.51,0.38-6.84c2.13,0,4,0,5.91,0c2.42,0,4.82,0.17,7.26,0.17c0.1,2.22,0.19,4.09,0.29,6.3c2.25,0,4.27,0,6.4,0
		c0.14,2.11,0.26,3.88,0.41,6.03c3.24,0,6.25,0,9.52,0c0,1.29-0.02,2.18,0.01,3.07c0.03,0.87,0.1,1.74,0.17,2.77
		c6.91,0,13.57,0,20.37,0c0.13-2.01,0.26-3.85,0.4-6c3.13,0,5.99,0,9.02,0c0.1-2.09,0.19-3.85,0.3-6.01c2.39,0,4.58,0,7.01,0
		c0-2.28,0-4.15,0-6.06c4.74,0,9.22,0,13.85,0c0.13,2.22,0.25,4.25,0.37,6.38c2.3,0.11,4.32,0.21,6.35,0.31
		c0.12,2.11,0.23,3.87,0.35,5.99c3.3,0,6.32,0,9.4,0c0.11,2.14,0.2,3.9,0.29,5.74c6.96,0,13.62,0,20.44,0
		c0.12-2.01,0.23-3.85,0.36-5.97c3.12,0,5.99,0,9.01,0c0.1-2.06,0.18-3.83,0.28-5.89c2.36,0,4.5,0,6.88,0
		c0.13-2.4,0.25-4.51,0.38-6.84c2.13,0,4,0,5.91,0c0-2.37,0-4.48,0-6.83C1077.66,34.23,1075.79,34.23,1073.79,34.23z M53.49,41.29
		c-1.84,0.09-3.52,0.17-5.51,0.27c0,2.1,0,4.05,0,6.28c-2.24,0.11-4.18,0.2-6.39,0.31c-0.1,1.93-0.2,3.78-0.31,5.82
		c-4.17,0-8.18,0-12.39,0c-0.13-2-0.25-3.85-0.39-5.93c-2.47,0-4.71,0-7.26,0c-0.14-2.25-0.26-4.27-0.4-6.62c-2.35,0-4.57,0-6.93,0
		c0-2.47,0-4.6,0-7c2.27,0,4.41,0,6.85,0c0.17-2.06,0.32-3.89,0.5-6.06c2.44,0,4.75,0,7.26,0c0.12-2.21,0.21-4.08,0.32-6.2
		c4.12,0,8.13,0,12.52,0c0,1.92,0,3.85,0,6.02c2.29,0.11,4.24,0.2,6.41,0.3c0.1,1.92,0.19,3.68,0.3,5.84c1.96,0,3.58,0,5.41,0
		C53.49,36.72,53.49,38.91,53.49,41.29z M121.25,41.26c-1.61,0.09-3.27,0.18-5.27,0.29c-0.13,2.07-0.25,4.09-0.4,6.48
		c-2.01,0-3.95,0-6.06,0c-0.11,2.13-0.21,3.9-0.32,5.9c-4.05,0-7.98,0-12.2,0c-0.11-1.78-0.22-3.63-0.35-5.84c-2.48,0-4.87,0-7.54,0
		c0-2.31,0-4.26,0-6.59c-2.56,0-4.85,0-7.29,0c0-2.43,0-4.48,0-6.95c2.32,0,4.61,0,7.07,0c0.13-2.09,0.23-3.78,0.36-5.85
		c2.49,0,4.88,0,7.57,0c0-2.24,0-4.09,0-6.13c4.24,0,8.17,0,12.37,0c0.1,1.91,0.19,3.77,0.3,5.88c1.98,0.1,3.84,0.2,6.11,0.32
		c0.1,1.89,0.19,3.57,0.29,5.5c1.78,0.14,3.44,0.28,5.34,0.43C121.25,36.84,121.25,38.87,121.25,41.26z M188.49,41.29
		c-1.84,0.09-3.52,0.17-5.51,0.27c0,2.1,0,4.05,0,6.28c-2.23,0.11-4.18,0.2-6.39,0.31c-0.1,1.93-0.2,3.78-0.31,5.82
		c-4.17,0-8.18,0-12.39,0c-0.13-2-0.25-3.85-0.39-5.93c-2.47,0-4.71,0-7.26,0c-0.14-2.25-0.26-4.27-0.4-6.62c-2.35,0-4.57,0-6.93,0
		c0-2.47,0-4.6,0-7c2.27,0,4.41,0,6.85,0c0.17-2.06,0.32-3.89,0.5-6.06c2.44,0,4.75,0,7.26,0c0.12-2.21,0.21-4.08,0.32-6.2
		c4.12,0,8.13,0,12.52,0c0,1.92,0,3.85,0,6.02c2.29,0.11,4.24,0.2,6.41,0.3c0.1,1.92,0.19,3.68,0.3,5.84c1.96,0,3.58,0,5.41,0
		C188.49,36.72,188.49,38.91,188.49,41.29z M256.25,41.26c-1.61,0.09-3.27,0.18-5.27,0.29c-0.13,2.07-0.25,4.09-0.4,6.48
		c-2.01,0-3.95,0-6.06,0c-0.11,2.13-0.21,3.9-0.32,5.9c-4.05,0-7.98,0-12.2,0c-0.11-1.78-0.22-3.63-0.35-5.84c-2.48,0-4.87,0-7.54,0
		c0-2.31,0-4.26,0-6.59c-2.56,0-4.85,0-7.29,0c0-2.43,0-4.48,0-6.95c2.32,0,4.61,0,7.07,0c0.13-2.09,0.23-3.78,0.36-5.85
		c2.49,0,4.88,0,7.57,0c0-2.24,0-4.09,0-6.13c4.24,0,8.17,0,12.37,0c0.1,1.91,0.19,3.77,0.3,5.88c1.98,0.1,3.84,0.2,6.11,0.32
		c0.1,1.89,0.19,3.57,0.29,5.5c1.78,0.14,3.44,0.28,5.34,0.43C256.25,36.84,256.25,38.87,256.25,41.26z M323.49,41.29
		c-1.84,0.09-3.52,0.17-5.51,0.27c0,2.1,0,4.05,0,6.28c-2.23,0.11-4.18,0.2-6.39,0.31c-0.1,1.93-0.2,3.78-0.31,5.82
		c-4.17,0-8.18,0-12.39,0c-0.13-2-0.25-3.85-0.39-5.93c-2.47,0-4.71,0-7.26,0c-0.14-2.25-0.26-4.27-0.4-6.62c-2.35,0-4.57,0-6.93,0
		c0-2.47,0-4.6,0-7c2.27,0,4.41,0,6.85,0c0.17-2.06,0.32-3.89,0.5-6.06c2.44,0,4.75,0,7.26,0c0.12-2.21,0.21-4.08,0.32-6.2
		c4.12,0,8.13,0,12.52,0c0,1.92,0,3.85,0,6.02c2.29,0.11,4.24,0.2,6.41,0.3c0.1,1.92,0.19,3.68,0.3,5.84c1.96,0,3.58,0,5.41,0
		C323.49,36.72,323.49,38.91,323.49,41.29z M391.25,41.26c-1.61,0.09-3.27,0.18-5.27,0.29c-0.13,2.07-0.25,4.09-0.4,6.48
		c-2.01,0-3.95,0-6.06,0c-0.11,2.13-0.21,3.9-0.32,5.9c-4.05,0-7.98,0-12.2,0c-0.11-1.78-0.22-3.63-0.35-5.84c-2.48,0-4.87,0-7.54,0
		c0-2.31,0-4.26,0-6.59c-2.56,0-4.85,0-7.29,0c0-2.43,0-4.48,0-6.95c2.32,0,4.61,0,7.07,0c0.13-2.09,0.23-3.78,0.36-5.85
		c2.49,0,4.88,0,7.57,0c0-2.24,0-4.09,0-6.13c4.24,0,8.17,0,12.37,0c0.1,1.91,0.19,3.77,0.3,5.88c1.98,0.1,3.84,0.2,6.11,0.32
		c0.1,1.89,0.19,3.57,0.29,5.5c1.78,0.14,3.44,0.28,5.34,0.43C391.25,36.84,391.25,38.87,391.25,41.26z M458.49,41.29
		c-1.84,0.09-3.52,0.17-5.51,0.27c0,2.1,0,4.05,0,6.28c-2.23,0.11-4.18,0.2-6.39,0.31c-0.1,1.93-0.2,3.78-0.31,5.82
		c-4.17,0-8.18,0-12.39,0c-0.13-2-0.25-3.85-0.39-5.93c-2.47,0-4.71,0-7.26,0c-0.14-2.25-0.26-4.27-0.4-6.62c-2.35,0-4.57,0-6.93,0
		c0-2.47,0-4.6,0-7c2.27,0,4.41,0,6.85,0c0.17-2.06,0.32-3.89,0.5-6.06c2.44,0,4.75,0,7.26,0c0.12-2.21,0.21-4.08,0.32-6.2
		c4.12,0,8.13,0,12.52,0c0,1.92,0,3.85,0,6.02c2.29,0.11,4.24,0.2,6.41,0.3c0.1,1.92,0.19,3.68,0.3,5.84c1.96,0,3.58,0,5.41,0
		C458.49,36.72,458.49,38.91,458.49,41.29z M526.25,41.26c-1.61,0.09-3.27,0.18-5.27,0.29c-0.13,2.07-0.25,4.09-0.4,6.48
		c-2.01,0-3.95,0-6.06,0c-0.11,2.13-0.21,3.9-0.32,5.9c-4.05,0-7.98,0-12.2,0c-0.11-1.78-0.22-3.63-0.35-5.84c-2.48,0-4.87,0-7.54,0
		c0-2.31,0-4.26,0-6.59c-2.56,0-4.85,0-7.29,0c0-2.43,0-4.48,0-6.95c2.32,0,4.61,0,7.07,0c0.13-2.09,0.23-3.78,0.36-5.85
		c2.49,0,4.88,0,7.57,0c0-2.24,0-4.09,0-6.13c4.24,0,8.17,0,12.37,0c0.1,1.91,0.19,3.77,0.3,5.88c1.98,0.1,3.84,0.2,6.11,0.32
		c0.1,1.89,0.19,3.57,0.29,5.5c1.78,0.14,3.44,0.28,5.34,0.43C526.25,36.84,526.25,38.87,526.25,41.26z M593.37,41.29
		c-1.84,0.09-3.52,0.17-5.51,0.27c0,2.1,0,4.05,0,6.28c-2.23,0.11-4.18,0.2-6.39,0.31c-0.1,1.93-0.2,3.78-0.31,5.82
		c-4.17,0-8.18,0-12.39,0c-0.13-2-0.25-3.85-0.39-5.93c-2.47,0-4.71,0-7.26,0c-0.14-2.25-0.26-4.27-0.4-6.62c-2.35,0-4.57,0-6.93,0
		c0-2.47,0-4.6,0-7c2.27,0,4.41,0,6.85,0c0.17-2.06,0.32-3.89,0.5-6.06c2.44,0,4.75,0,7.26,0c0.12-2.21,0.21-4.08,0.32-6.2
		c4.12,0,8.13,0,12.52,0c0,1.92,0,3.85,0,6.02c2.29,0.11,4.24,0.2,6.41,0.3c0.1,1.92,0.19,3.68,0.3,5.84c1.96,0,3.58,0,5.41,0
		C593.37,36.72,593.37,38.91,593.37,41.29z M661.13,41.26c-1.61,0.09-3.27,0.18-5.27,0.29c-0.13,2.07-0.25,4.09-0.4,6.48
		c-2.01,0-3.95,0-6.06,0c-0.11,2.13-0.21,3.9-0.32,5.9c-4.05,0-7.98,0-12.2,0c-0.11-1.78-0.22-3.63-0.35-5.84c-2.48,0-4.87,0-7.54,0
		c0-2.31,0-4.26,0-6.59c-2.56,0-4.85,0-7.29,0c0-2.43,0-4.48,0-6.95c2.32,0,4.61,0,7.07,0c0.13-2.09,0.23-3.78,0.36-5.85
		c2.49,0,4.88,0,7.57,0c0-2.24,0-4.09,0-6.13c4.24,0,8.17,0,12.37,0c0.1,1.91,0.19,3.77,0.3,5.88c1.98,0.1,3.84,0.2,6.11,0.32
		c0.1,1.89,0.19,3.57,0.29,5.5c1.78,0.14,3.44,0.28,5.34,0.43C661.13,36.84,661.13,38.87,661.13,41.26z M728.37,41.29
		c-1.84,0.09-3.52,0.17-5.51,0.27c0,2.1,0,4.05,0,6.28c-2.23,0.11-4.18,0.2-6.39,0.31c-0.1,1.93-0.2,3.78-0.31,5.82
		c-4.17,0-8.18,0-12.39,0c-0.13-2-0.25-3.85-0.39-5.93c-2.47,0-4.71,0-7.26,0c-0.14-2.25-0.26-4.27-0.4-6.62c-2.35,0-4.57,0-6.93,0
		c0-2.47,0-4.6,0-7c2.27,0,4.41,0,6.85,0c0.17-2.06,0.32-3.89,0.5-6.06c2.44,0,4.75,0,7.26,0c0.12-2.21,0.21-4.08,0.32-6.2
		c4.12,0,8.13,0,12.52,0c0,1.92,0,3.85,0,6.02c2.29,0.11,4.24,0.2,6.41,0.3c0.1,1.92,0.19,3.68,0.3,5.84c1.96,0,3.58,0,5.41,0
		C728.37,36.72,728.37,38.91,728.37,41.29z M796.13,41.26c-1.61,0.09-3.27,0.18-5.27,0.29c-0.13,2.07-0.25,4.09-0.4,6.48
		c-2.01,0-3.95,0-6.06,0c-0.11,2.13-0.21,3.9-0.32,5.9c-4.05,0-7.98,0-12.2,0c-0.11-1.78-0.22-3.63-0.35-5.84c-2.48,0-4.87,0-7.54,0
		c0-2.31,0-4.26,0-6.59c-2.56,0-4.85,0-7.29,0c0-2.43,0-4.48,0-6.95c2.32,0,4.61,0,7.07,0c0.13-2.09,0.23-3.78,0.36-5.85
		c2.49,0,4.88,0,7.57,0c0-2.24,0-4.09,0-6.13c4.24,0,8.17,0,12.37,0c0.1,1.91,0.19,3.77,0.3,5.88c1.98,0.1,3.84,0.2,6.11,0.32
		c0.1,1.89,0.19,3.57,0.29,5.5c1.78,0.14,3.44,0.28,5.34,0.43C796.13,36.84,796.13,38.87,796.13,41.26z M863.37,41.29
		c-1.84,0.09-3.52,0.17-5.51,0.27c0,2.1,0,4.05,0,6.28c-2.23,0.11-4.18,0.2-6.39,0.31c-0.1,1.93-0.2,3.78-0.31,5.82
		c-4.17,0-8.18,0-12.39,0c-0.13-2-0.25-3.85-0.39-5.93c-2.47,0-4.71,0-7.26,0c-0.14-2.25-0.26-4.27-0.4-6.62c-2.35,0-4.57,0-6.93,0
		c0-2.47,0-4.6,0-7c2.27,0,4.41,0,6.85,0c0.17-2.06,0.32-3.89,0.5-6.06c2.44,0,4.75,0,7.26,0c0.12-2.21,0.21-4.08,0.32-6.2
		c4.12,0,8.13,0,12.52,0c0,1.92,0,3.85,0,6.02c2.29,0.11,4.24,0.2,6.41,0.3c0.1,1.92,0.19,3.68,0.3,5.84c1.96,0,3.58,0,5.41,0
		C863.37,36.72,863.37,38.91,863.37,41.29z M931.13,41.26c-1.61,0.09-3.27,0.18-5.27,0.29c-0.13,2.07-0.25,4.09-0.4,6.48
		c-2.01,0-3.95,0-6.06,0c-0.11,2.13-0.21,3.9-0.32,5.9c-4.05,0-7.98,0-12.2,0c-0.11-1.78-0.22-3.63-0.35-5.84c-2.48,0-4.87,0-7.54,0
		c0-2.31,0-4.26,0-6.59c-2.56,0-4.85,0-7.29,0c0-2.43,0-4.48,0-6.95c2.32,0,4.61,0,7.07,0c0.13-2.09,0.23-3.78,0.36-5.85
		c2.49,0,4.88,0,7.57,0c0-2.24,0-4.09,0-6.13c4.24,0,8.17,0,12.37,0c0.1,1.91,0.19,3.77,0.3,5.88c1.98,0.1,3.84,0.2,6.11,0.32
		c0.1,1.89,0.19,3.57,0.29,5.5c1.78,0.14,3.44,0.28,5.34,0.43C931.13,36.84,931.13,38.87,931.13,41.26z M998.37,41.29
		c-1.84,0.09-3.52,0.17-5.51,0.27c0,2.1,0,4.05,0,6.28c-2.23,0.11-4.18,0.2-6.39,0.31c-0.1,1.93-0.2,3.78-0.31,5.82
		c-4.17,0-8.18,0-12.39,0c-0.13-2-0.25-3.85-0.39-5.93c-2.47,0-4.71,0-7.26,0c-0.14-2.25-0.26-4.27-0.4-6.62c-2.35,0-4.57,0-6.93,0
		c0-2.47,0-4.6,0-7c2.27,0,4.41,0,6.85,0c0.17-2.06,0.32-3.89,0.5-6.06c2.44,0,4.75,0,7.26,0c0.12-2.21,0.21-4.08,0.32-6.2
		c4.12,0,8.13,0,12.52,0c0,1.92,0,3.85,0,6.02c2.29,0.11,4.24,0.2,6.41,0.3c0.1,1.92,0.19,3.68,0.3,5.84c1.96,0,3.58,0,5.41,0
		C998.37,36.72,998.37,38.91,998.37,41.29z M1066.13,41.26c-1.61,0.09-3.27,0.18-5.27,0.29c-0.13,2.07-0.25,4.09-0.4,6.48
		c-2.01,0-3.95,0-6.06,0c-0.11,2.13-0.21,3.9-0.32,5.9c-4.05,0-7.98,0-12.2,0c-0.11-1.78-0.22-3.63-0.35-5.84c-2.48,0-4.87,0-7.54,0
		c0-2.31,0-4.26,0-6.59c-2.56,0-4.85,0-7.29,0c0-2.43,0-4.48,0-6.95c2.32,0,4.61,0,7.07,0c0.13-2.09,0.23-3.78,0.36-5.85
		c2.49,0,4.88,0,7.57,0c0-2.24,0-4.09,0-6.13c4.24,0,8.17,0,12.37,0c0.1,1.91,0.19,3.77,0.3,5.88c1.98,0.1,3.84,0.2,6.11,0.32
		c0.1,1.89,0.19,3.57,0.29,5.5c1.78,0.14,3.44,0.28,5.34,0.43C1066.13,36.84,1066.13,38.87,1066.13,41.26z"/>
	<path class="cintav18" d="M1010.95,48.71c1.5,0,2.83,0,4.49,0c0.12,1.69,0.24,3.44,0.36,5.3c1.81,0.11,3.41,0.2,5.26,0.31
		c0,1.84,0,3.56,0,5.45c-5.54,0-10.93,0-16.53,0c0-1.76,0-3.43,0-5.42c1.93-0.11,3.87-0.22,6.02-0.35
		C1010.69,52.21,1010.81,50.54,1010.95,48.71z"/>
	<path class="cintav18" d="M1004.31,22.54c0-2.14,0-3.74,0-5.53c5.6,0,11.05,0,16.67,0c0,1.72,0,3.31,0,5.25
		c-1.67,0.13-3.41,0.26-5.31,0.41c-0.09,1.8-0.17,3.48-0.26,5.38c-1.56,0-3.03,0-4.69,0c-0.11-1.8-0.2-3.48-0.32-5.51
		C1008.39,22.54,1006.46,22.54,1004.31,22.54z"/>
	<path class="cintav19" d="M1070.39,22.88c0-2.17,0-3.85,0-5.72c3.17,0,6.19,0,9.38,0c0,3.74,0,7.39,0,11.13c-1,0-1.86,0-2.94,0
		c-0.13-1.81-0.24-3.47-0.37-5.41C1074.4,22.88,1072.54,22.88,1070.39,22.88z"/>
	<path class="cintav19" d="M1070.81,54.64c2.08-0.1,3.95-0.19,6-0.29c0.11-1.88,0.2-3.55,0.31-5.38c0.96,0,1.73,0,2.66,0
		c0,3.68,0,7.26,0,11.01c-2.98,0-5.83,0-8.96,0C1070.81,58.27,1070.81,56.61,1070.81,54.64z"/>
	<path class="cintav23" d="M944.77,17.17c-3.19,0-6.21,0-9.38,0c0,1.86,0,3.54,0,5.72c2.15,0,4.01,0,6.07,0
		c0.13,1.94,0.25,3.6,0.37,5.41c1.08,0,1.94,0,2.94,0c0-0.03,0-0.06,0-0.09c0.86,0,1.65,0.13,2.6,0.13c0.1-2.01,0.18-3.67,0.26-5.36
		c1.82-0.09,3.32-0.17,4.97-0.26c0-1.98,0-3.72,0-5.58C949.93,17.14,947.35,17.17,944.77,17.17z"/>
	<path class="cintav23" d="M947.61,54.36c-0.1-1.93-0.19-3.68-0.28-5.55c-0.91,0-1.58,0-2.45,0c-0.93,0-1.8,0.16-2.77,0.16
		c-0.1,1.83-0.2,3.51-0.31,5.38c-2.05,0.1-3.91,0.19-6,0.29c0,1.97,0,3.62,0,5.34c3.13,0,6.09-0.05,9.07-0.05c2.72,0,5.27,0,7.88,0
		c0-1.88,0-3.52,0-5.28C950.96,54.55,949.37,54.46,947.61,54.36z"/>
	<path class="cintav21" d="M977.38,47.84c0-2.16,0-4.12,0-6.33c-2.11-0.1-3.96-0.18-6.02-0.28c0-2.24,0-4.35,0-6.73
		c1.91-0.09,3.76-0.18,5.83-0.28c0.13-1.69,0.25-3.27,0.4-5.09c1.53,0,3,0,4.67,0c0.11,1.62,0.22,3.21,0.35,5.05
		c2.1,0.1,4.13,0.2,6.36,0.31c0,2.26,0,4.37,0,6.77c-2.07,0-4.03,0-6.31,0c-0.13,2.29-0.24,4.31-0.37,6.58
		C980.79,47.84,979.33,47.84,977.38,47.84z"/>
	<path class="cintav20" d="M1045.4,34.28c0-1.82,0-3.34,0-5.11c1.68,0,3.14,0,4.81,0c0.11,1.62,0.22,3.21,0.35,5.08
		c2.12,0.12,4.15,0.23,6.35,0.34c0,2.27,0,4.39,0,6.78c-2.03,0-3.98,0-6.31,0c-0.11,2.27-0.22,4.3-0.33,6.59c-1.47,0-2.94,0-4.68,0
		c-0.11-2.11-0.22-4.15-0.34-6.48c-2.01,0-3.87,0-5.93,0c0-2.42,0-4.53,0-6.89C1041.3,34.48,1043.16,34.39,1045.4,34.28z"/>
	<rect class="cintav20" width="1079.71" height="5.3"/>
	<rect y="8.3" class="cintav33" width="1079.71" height="5.3"/>
	<rect y="62.21" class="cintav33" width="1079.71" height="5.3"/>
	<rect y="70.45" class="cintav20" width="1079.71" height="5.3"/>
</g>
</svg>
