<?xml version="1.0" encoding="utf-8"?>
<!-- Generator: Adobe Illustrator 25.3.0, SVG Export Plug-In . SVG Version: 6.00 Build 0)  -->
<svg version="1.1" xmlns="http://www.w3.org/2000/svg" xmlns:xlink="http://www.w3.org/1999/xlink" x="0px" y="0px"
	 viewBox="0 0 393.47 155.7" xml:space="preserve">
<style type="text/css">
	.logoNunast0{fill:none;stroke:#000000;stroke-width:0.75;stroke-miterlimit:10;}
</style>
<g>
	<g>
		<path d="M44.86,33.12c-1.79-0.05-3.43-0.39-4.92-1.02c-1.49-0.63-2.77-1.49-3.86-2.57s-1.92-2.36-2.51-3.84
			c-0.59-1.48-0.89-3.09-0.89-4.86c0-1.79,0.33-3.45,0.98-4.97c0.66-1.52,1.57-2.85,2.74-3.97c1.17-1.12,2.55-2,4.14-2.63
			c1.59-0.63,3.31-0.95,5.18-0.95c1.84,0,3.52,0.3,5.05,0.91c1.53,0.61,2.84,1.46,3.93,2.56c1.1,1.1,1.95,2.4,2.57,3.9
			c0.62,1.5,0.93,3.16,0.93,4.98c0,3.05-0.84,5.63-2.53,7.74c-1.69,2.11-4.06,3.57-7.11,4.37c1.74,1.97,3.52,3.48,5.33,4.52
			c1.82,1.05,3.54,1.57,5.18,1.57c0.3,0,0.53-0.01,0.68-0.04c0.15-0.03,0.4-0.09,0.76-0.19c0.03-0.03,0.06-0.04,0.11-0.04
			c0.05,0,0.11,0.04,0.17,0.13c0.06,0.09,0.09,0.19,0.09,0.32s-0.13,0.24-0.4,0.35c-0.26,0.11-0.59,0.22-0.98,0.33
			c-0.39,0.11-0.83,0.2-1.3,0.26c-0.48,0.06-0.93,0.09-1.36,0.09c-2.04,0-4.1-0.6-6.18-1.8C48.58,37.08,46.65,35.36,44.86,33.12z
			 M44.56,9.75c-1.25,0-2.4,0.24-3.43,0.72s-1.91,1.17-2.64,2.06c-0.73,0.9-1.29,1.97-1.68,3.21c-0.39,1.25-0.58,2.64-0.58,4.18
			c0,1.71,0.25,3.29,0.73,4.73c0.49,1.44,1.17,2.68,2.05,3.72c0.88,1.05,1.92,1.86,3.13,2.44c1.21,0.58,2.52,0.87,3.95,0.87
			c1.18,0,2.3-0.21,3.37-0.64c1.07-0.43,1.96-1.05,2.69-1.85c0.83-0.86,1.45-1.92,1.86-3.18s0.62-2.7,0.62-4.31
			c0-1.79-0.25-3.42-0.73-4.88c-0.49-1.46-1.17-2.72-2.05-3.76c-0.88-1.05-1.94-1.86-3.18-2.44C47.44,10.04,46.06,9.75,44.56,9.75z"
			/>
		<path d="M61.61,15.08c0.08,0,0.24,0.01,0.49,0.02s0.54,0.02,0.85,0.02c0.31,0,0.64,0,0.96,0c0.33,0,0.6,0,0.83,0
			c0.88,0,1.62,0,2.21,0c0.59,0,1.18-0.01,1.76-0.04h0.34c0.23,0,0.37,0.03,0.43,0.08c0.06,0.05,0.09,0.15,0.09,0.3
			c0,0.2-0.02,0.33-0.06,0.4c-0.04,0.06-0.13,0.09-0.28,0.09c-0.81,0.03-1.39,0.11-1.76,0.25c-0.37,0.14-0.61,0.37-0.74,0.7
			c-0.05,0.13-0.09,0.28-0.11,0.45c-0.03,0.18-0.05,0.48-0.08,0.91s-0.04,1.02-0.04,1.77s0,1.77,0,3.05c0,0.93,0.01,1.71,0.02,2.34
			c0.01,0.63,0.04,1.16,0.09,1.58c0.05,0.43,0.12,0.79,0.21,1.08c0.09,0.29,0.19,0.56,0.32,0.81c0.73,1.43,2.24,2.15,4.54,2.15
			c1.14,0,2.1-0.18,2.91-0.55c0.81-0.37,1.39-0.87,1.74-1.53c0.28-0.5,0.47-1.09,0.57-1.75c0.1-0.67,0.15-1.64,0.15-2.92
			c0-0.75-0.01-1.5-0.04-2.24c-0.03-0.74-0.06-1.43-0.09-2.06s-0.08-1.18-0.11-1.66c-0.04-0.48-0.08-0.83-0.13-1.06
			c-0.18-0.75-0.82-1.17-1.93-1.24c-0.4-0.03-0.64-0.06-0.72-0.11c-0.08-0.05-0.11-0.19-0.11-0.42c0-0.18,0.02-0.28,0.06-0.32
			c0.04-0.04,0.16-0.06,0.36-0.06c0.1,0,0.19,0,0.28,0c0.09,0,0.36,0.01,0.81,0.04h1.17c0.3,0,0.65,0,1.04,0
			c0.39,0,0.77-0.01,1.13-0.02s0.69-0.03,0.96-0.04c0.28-0.01,0.48-0.02,0.6-0.02c0.1-0.03,0.2-0.04,0.28-0.04c0.09,0,0.16,0,0.21,0
			c0.23,0,0.34,0.11,0.34,0.34c0,0.23-0.03,0.37-0.09,0.42c-0.06,0.05-0.3,0.1-0.7,0.15c-0.5,0.08-0.85,0.2-1.04,0.38
			c-0.19,0.18-0.33,0.5-0.43,0.98c-0.05,0.2-0.09,0.39-0.11,0.57c-0.03,0.18-0.04,0.38-0.06,0.6c-0.01,0.23-0.03,0.5-0.04,0.81
			c-0.01,0.32-0.03,0.71-0.06,1.19l-0.08,4.01c-0.03,0.88-0.08,1.64-0.15,2.29c-0.08,0.64-0.18,1.2-0.3,1.66
			c-0.13,0.47-0.3,0.89-0.53,1.27c-0.23,0.38-0.5,0.74-0.83,1.1c-1.31,1.46-3.29,2.19-5.94,2.19c-1.92,0-3.47-0.37-4.65-1.12
			c-1.18-0.74-1.93-1.8-2.23-3.16c-0.08-0.33-0.13-0.62-0.17-0.89c-0.04-0.27-0.07-0.7-0.09-1.3c-0.03-0.61-0.04-1.49-0.04-2.65
			c0-1.16,0-2.8,0-4.92c-0.03-0.66-0.06-1.18-0.11-1.57c-0.05-0.39-0.15-0.69-0.28-0.89c-0.14-0.2-0.35-0.33-0.62-0.4
			c-0.28-0.06-0.66-0.11-1.13-0.13c-0.4,0-0.64-0.02-0.72-0.08c-0.08-0.05-0.11-0.18-0.11-0.38c0-0.2,0.02-0.33,0.06-0.38
			c0.04-0.05,0.13-0.08,0.28-0.08H61.61z"/>
		<path d="M97.11,15.01c0.25,0,0.41,0.02,0.47,0.06c0.06,0.04,0.09,0.12,0.09,0.25c0,0.1-0.01,0.21-0.02,0.32s-0.03,0.23-0.06,0.36
			c-0.03,0.15-0.05,0.36-0.08,0.63c-0.03,0.27-0.05,0.54-0.08,0.83c-0.03,0.29-0.05,0.58-0.08,0.87c-0.03,0.29-0.04,0.54-0.04,0.74
			c0,0.33-0.03,0.53-0.09,0.61c-0.06,0.08-0.21,0.11-0.43,0.11c-0.2,0-0.33-0.04-0.38-0.11c-0.05-0.08-0.08-0.29-0.08-0.64
			c-0.03-0.58-0.11-1.05-0.25-1.4c-0.14-0.35-0.4-0.63-0.77-0.83c-0.38-0.2-0.9-0.33-1.57-0.4c-0.67-0.06-1.54-0.09-2.63-0.09
			c-0.5,0-0.9,0.01-1.19,0.02c-0.29,0.01-0.51,0.04-0.66,0.08c-0.15,0.04-0.25,0.09-0.3,0.17c-0.05,0.08-0.09,0.18-0.11,0.3
			c0,0.05-0.04,2.1-0.11,6.14c1.49,0,2.65-0.02,3.5-0.06s1.48-0.12,1.91-0.25c0.43-0.13,0.71-0.33,0.83-0.61
			c0.13-0.28,0.21-0.66,0.26-1.14c0.03-0.25,0.15-0.38,0.38-0.38c0.2,0,0.33,0.02,0.4,0.06c0.06,0.04,0.09,0.12,0.09,0.25v0.34
			c-0.03,0.25-0.04,0.61-0.06,1.08c-0.01,0.47-0.02,0.92-0.02,1.34c0,0.23,0,0.41,0,0.55c0,0.14,0,0.29,0,0.44
			c0,0.15,0.01,0.33,0.02,0.55c0.01,0.21,0.03,0.51,0.06,0.89v0.27c0,0.18-0.03,0.28-0.08,0.32c-0.05,0.04-0.18,0.06-0.38,0.06
			c-0.25,0-0.39-0.14-0.42-0.42c-0.03-1.04-0.34-1.67-0.95-1.9c-0.18-0.05-0.33-0.09-0.45-0.13c-0.13-0.04-0.27-0.06-0.44-0.08
			s-0.38-0.02-0.64-0.02s-0.64,0-1.12,0h-2.12h-0.79v1.74c0,1.21,0.01,2.15,0.02,2.82c0.01,0.67,0.03,1.16,0.06,1.46
			c0.05,0.48,0.21,0.81,0.47,0.99s0.76,0.26,1.49,0.26c1.21,0,2.2-0.04,2.97-0.13c0.77-0.09,1.4-0.26,1.89-0.53
			c0.49-0.26,0.86-0.62,1.12-1.08c0.25-0.45,0.47-1.05,0.64-1.78c0.08-0.23,0.18-0.34,0.3-0.34c0.48,0,0.72,0.16,0.72,0.49
			c0,0.2-0.08,0.63-0.23,1.29s-0.33,1.35-0.53,2.08c-0.18,0.61-0.3,0.98-0.36,1.1c-0.06,0.12-0.18,0.18-0.36,0.18
			c-0.05,0-0.12,0-0.21,0c-0.09,0-0.18-0.01-0.28-0.04h-1.55l-2.12-0.04h-2l-6.43,0.04c-0.2,0.02-0.4,0.04-0.61,0.04
			c-0.2,0-0.34,0-0.42,0c-0.23,0-0.34-0.1-0.34-0.3c0-0.2,0.02-0.33,0.06-0.38s0.12-0.09,0.25-0.11c0.83-0.05,1.41-0.16,1.74-0.32
			c0.33-0.16,0.55-0.46,0.68-0.89c0.05-0.18,0.09-0.42,0.11-0.72c0.02-0.3,0.05-0.71,0.08-1.23s0.04-1.17,0.04-1.95
			c0-0.78,0-1.75,0-2.91c0-1.97-0.01-3.48-0.04-4.56c-0.03-1.07-0.1-1.85-0.23-2.34c-0.13-0.49-0.33-0.79-0.6-0.89
			c-0.28-0.1-0.68-0.18-1.21-0.23c-0.38-0.02-0.6-0.06-0.66-0.09c-0.06-0.04-0.09-0.18-0.09-0.44c0-0.25,0.11-0.38,0.34-0.38
			c0.05,0,0.18,0,0.4,0s0.43,0.01,0.66,0.04c0.25,0.03,0.55,0.04,0.91,0.04c0.35,0,0.81,0,1.36,0c1.97,0,3.76-0.01,5.39-0.02
			c1.63-0.01,3.21-0.03,4.75-0.06H97.11z M90.5,12.02c-0.66,0.45-1.06,0.68-1.21,0.68c-0.1,0-0.23-0.04-0.38-0.13
			c-0.15-0.09-0.23-0.16-0.23-0.21s0.04-0.1,0.11-0.15c0.05-0.08,0.13-0.16,0.23-0.26s0.21-0.21,0.34-0.34
			c0.3-0.33,0.6-0.65,0.89-0.96c0.29-0.31,0.59-0.62,0.89-0.93c0.25-0.28,0.5-0.54,0.74-0.79c0.24-0.25,0.47-0.52,0.7-0.79
			c0.53-0.6,0.88-0.97,1.04-1.1c0.16-0.13,0.36-0.19,0.59-0.19c0.08,0,0.14,0,0.21,0c0.06,0,0.15,0.02,0.26,0.06
			s0.27,0.09,0.47,0.15c0.2,0.06,0.49,0.15,0.87,0.25c0.38,0.13,0.57,0.29,0.57,0.49c0,0.13-0.02,0.23-0.06,0.3
			c-0.04,0.08-0.15,0.19-0.34,0.34C96,8.58,95.69,8.78,95.28,9.01c-0.42,0.24-0.99,0.59-1.72,1.04c-0.25,0.18-0.5,0.34-0.74,0.49
			c-0.24,0.15-0.49,0.3-0.74,0.45L90.5,12.02z"/>
		<path d="M113.26,19.81c0-0.68-0.01-1.24-0.02-1.66c-0.01-0.43-0.04-0.77-0.08-1.02s-0.1-0.44-0.19-0.57
			c-0.09-0.13-0.2-0.23-0.32-0.3c-0.38-0.25-0.87-0.38-1.47-0.38c-0.33,0-0.52-0.01-0.57-0.04c-0.05-0.02-0.08-0.14-0.08-0.34
			c0-0.2,0.01-0.33,0.04-0.4c0.02-0.06,0.1-0.09,0.23-0.09c0.05,0,0.15,0,0.3,0s0.31,0.01,0.49,0.04c0.18,0.03,0.38,0.04,0.62,0.04
			c0.24,0,0.54,0,0.89,0c0.5,0,1.02,0,1.55,0c0.53,0,1.01-0.01,1.44-0.04c0.58-0.02,1.1-0.04,1.55-0.04c0.45,0,0.82,0,1.1,0
			c2.14,0,3.8,0.45,4.97,1.34s1.76,2.17,1.76,3.84c0,1.81-0.71,3.23-2.12,4.23c-1.41,1.01-3.39,1.51-5.94,1.51
			c-0.25,0-0.47,0-0.64,0c-0.18,0-0.4-0.02-0.68-0.08c0,1.08,0.01,1.95,0.02,2.61c0.01,0.66,0.03,1.11,0.06,1.36
			c0.05,0.81,0.21,1.34,0.47,1.59s0.81,0.4,1.65,0.45c0.48,0.03,0.76,0.05,0.83,0.08c0.08,0.03,0.11,0.14,0.11,0.34
			c0,0.2-0.03,0.33-0.08,0.38c-0.05,0.05-0.15,0.08-0.3,0.08h-0.72c-0.66-0.05-1.2-0.08-1.63-0.08c-0.43,0-0.86,0-1.29,0l-3.86,0.04
			h-0.49c-0.25,0-0.4-0.02-0.44-0.06c-0.04-0.04-0.06-0.16-0.06-0.36c0-0.2,0.03-0.31,0.09-0.34c0.06-0.03,0.27-0.06,0.62-0.11
			c0.81-0.05,1.35-0.26,1.64-0.64s0.43-1.08,0.43-2.12v-2.19l0.08-3.21V19.81z M116.85,24.95c0.88,0,1.6-0.06,2.16-0.19
			s1.05-0.34,1.47-0.64c1.11-0.78,1.66-2.03,1.66-3.74c0-1.51-0.4-2.61-1.21-3.31c-0.81-0.69-2.09-1.04-3.86-1.04
			c-0.45,0-0.73,0.07-0.81,0.21c-0.09,0.14-0.13,0.52-0.13,1.15c0,0.78-0.01,1.39-0.02,1.83c-0.01,0.44-0.02,0.78-0.02,1.02
			c0,0.24,0,0.43,0,0.57s0,0.31,0,0.51l-0.04,3.63H116.85z"/>
		<path d="M138.25,32.7c-0.3,0-0.48-0.02-0.53-0.06c-0.05-0.04-0.08-0.16-0.08-0.36c0-0.2,0.03-0.31,0.09-0.34
			c0.06-0.03,0.28-0.06,0.66-0.11c0.91-0.1,1.36-0.38,1.36-0.83c0-0.08-0.01-0.15-0.02-0.21c-0.01-0.06-0.04-0.18-0.08-0.34
			c-0.04-0.16-0.11-0.4-0.23-0.72s-0.26-0.76-0.44-1.34c-0.2-0.55-0.35-0.99-0.43-1.3c-0.09-0.31-0.15-0.5-0.17-0.55
			c-0.13,0-0.28,0-0.45,0s-0.49,0-0.95,0c-0.45,0-1.1,0.01-1.93,0.02c-0.83,0.01-1.94,0.02-3.33,0.02c-0.03,0.05-0.04,0.1-0.06,0.15
			c-0.01,0.05-0.04,0.11-0.08,0.19c-0.04,0.08-0.09,0.2-0.15,0.36c-0.06,0.16-0.15,0.38-0.25,0.66c-0.23,0.58-0.4,1.03-0.51,1.36
			c-0.11,0.33-0.2,0.57-0.25,0.74c-0.05,0.16-0.08,0.29-0.09,0.38c-0.01,0.09-0.02,0.18-0.02,0.28c0,0.2,0.07,0.39,0.21,0.57
			c0.14,0.18,0.32,0.3,0.55,0.38c0.18,0.08,0.33,0.12,0.47,0.13c0.14,0.01,0.47,0.02,1,0.02c0.23,0,0.34,0.14,0.34,0.42
			c0,0.2-0.02,0.33-0.06,0.38c-0.04,0.05-0.12,0.09-0.25,0.11h-1.93h-1.29c-0.4,0-0.76,0-1.06,0c-0.3,0-0.68,0.01-1.13,0.04h-0.68
			c-0.18,0-0.26-0.14-0.26-0.42c0-0.18,0.05-0.28,0.15-0.3c0.28-0.1,0.52-0.22,0.74-0.36c0.21-0.14,0.44-0.39,0.68-0.76
			c0.24-0.37,0.53-0.89,0.87-1.57c0.34-0.68,0.79-1.59,1.34-2.72c0.83-1.81,1.5-3.29,2-4.42c0.5-1.13,0.93-2.09,1.27-2.85
			c0.34-0.77,0.64-1.45,0.89-2.04c0.25-0.59,0.53-1.27,0.83-2.02c0.05-0.13,0.11-0.2,0.17-0.23c0.06-0.02,0.26-0.05,0.59-0.08
			l0.57-0.08c0.1-0.02,0.2-0.04,0.28-0.04c0.09,0,0.16,0,0.21,0c0.13,0,0.2,0.03,0.23,0.09c0.02,0.06,0.1,0.31,0.23,0.74
			c0.15,0.55,0.43,1.4,0.85,2.53c0.42,1.13,0.93,2.48,1.53,4.05c0.43,1.08,0.81,2.07,1.15,2.97c0.34,0.89,0.65,1.71,0.93,2.44
			c0.38,0.96,0.67,1.71,0.89,2.25c0.21,0.54,0.4,0.95,0.57,1.21c0.16,0.26,0.31,0.44,0.45,0.53c0.14,0.09,0.31,0.16,0.51,0.21
			c0.2,0.05,0.3,0.19,0.3,0.42c0,0.28-0.15,0.42-0.45,0.42h-0.68H138.25z M137.99,25.48c-0.1-0.3-0.2-0.59-0.3-0.87
			s-0.21-0.57-0.32-0.87c-0.11-0.3-0.24-0.64-0.38-1.02s-0.3-0.82-0.47-1.32c-0.18-0.45-0.33-0.84-0.45-1.15s-0.23-0.59-0.32-0.83
			c-0.09-0.24-0.17-0.46-0.25-0.66c-0.08-0.2-0.17-0.43-0.26-0.68c-0.78,1.89-1.42,3.45-1.93,4.67c-0.5,1.22-0.88,2.14-1.13,2.74
			H137.99z"/>
		<path d="M147.7,32.48c-0.05,0-0.15,0.04-0.3,0.11c-0.08,0.08-0.24,0.11-0.49,0.11c-0.13,0-0.2-0.02-0.23-0.06
			s-0.06-0.14-0.11-0.32c-0.08-0.25-0.15-0.57-0.21-0.96c-0.06-0.39-0.12-0.79-0.17-1.19c-0.05-0.4-0.09-0.78-0.13-1.13
			c-0.04-0.35-0.06-0.63-0.06-0.83c0-0.38,0.04-0.62,0.11-0.72c0.08-0.1,0.28-0.15,0.6-0.15c0.13,0,0.21,0.03,0.26,0.08
			c0.05,0.05,0.1,0.18,0.15,0.38c0.2,1.21,0.74,2.14,1.63,2.8c0.88,0.66,2.04,0.98,3.48,0.98c1.13,0,2.02-0.25,2.65-0.76
			c0.63-0.5,0.95-1.22,0.95-2.16c0-0.43-0.06-0.81-0.19-1.15c-0.13-0.34-0.35-0.66-0.68-0.95c-0.33-0.29-0.76-0.58-1.29-0.87
			c-0.53-0.29-1.21-0.6-2.04-0.93c-0.98-0.38-1.8-0.74-2.44-1.1c-0.64-0.35-1.16-0.72-1.55-1.1c-0.39-0.38-0.67-0.79-0.83-1.23
			s-0.25-0.94-0.25-1.49c0-0.76,0.18-1.47,0.53-2.14c0.35-0.67,0.86-1.23,1.51-1.68c0.53-0.4,1.12-0.69,1.76-0.85
			c0.64-0.16,1.43-0.25,2.36-0.25c0.25,0,0.46,0,0.62,0s0.35,0.01,0.55,0.04c0.2,0.03,0.45,0.05,0.76,0.08
			c0.3,0.03,0.73,0.08,1.29,0.15c0.13,0.03,0.23,0.04,0.32,0.04c0.09,0,0.18,0,0.28,0c0.08,0,0.14-0.01,0.21-0.02
			c0.06-0.01,0.13-0.03,0.21-0.06c0.08-0.02,0.15-0.04,0.23-0.04c0.1,0,0.16,0.04,0.17,0.13c0.01,0.09,0.02,0.41,0.02,0.96
			c0,0.45,0.01,0.93,0.04,1.44c0.02,0.5,0.06,0.96,0.11,1.36c0.02,0.1,0.04,0.21,0.04,0.34c0,0.23-0.19,0.34-0.57,0.34
			c-0.15,0-0.25-0.02-0.3-0.08c-0.05-0.05-0.1-0.14-0.15-0.26c-0.18-0.71-0.35-1.21-0.51-1.51c-0.17-0.3-0.4-0.58-0.7-0.83
			c-0.35-0.25-0.78-0.45-1.29-0.59c-0.5-0.14-1.02-0.21-1.55-0.21c-0.96,0-1.72,0.25-2.29,0.74c-0.57,0.49-0.85,1.14-0.85,1.95
			c0,0.43,0.06,0.8,0.19,1.12s0.37,0.62,0.72,0.91c0.35,0.29,0.84,0.58,1.47,0.87c0.63,0.29,1.46,0.64,2.5,1.04
			c1.64,0.66,2.81,1.36,3.52,2.12c0.71,0.76,1.06,1.7,1.06,2.84c0,1.61-0.61,2.86-1.83,3.74c-1.22,0.88-2.94,1.32-5.16,1.32
			c-0.63,0-1.25-0.03-1.85-0.08c-0.6-0.05-1.15-0.11-1.63-0.19c-0.28-0.05-0.44-0.08-0.49-0.09
			C147.8,32.48,147.75,32.48,147.7,32.48z"/>
		<path d="M171.26,14.78c1.44,0,2.75,0.22,3.93,0.66c1.18,0.44,2.2,1.06,3.04,1.85s1.51,1.75,1.99,2.85
			c0.48,1.11,0.72,2.33,0.72,3.67c0,1.31-0.25,2.53-0.76,3.65c-0.5,1.12-1.2,2.09-2.1,2.91s-1.95,1.46-3.18,1.93
			c-1.22,0.47-2.55,0.7-3.99,0.7c-1.34,0-2.57-0.23-3.71-0.68c-1.13-0.45-2.11-1.08-2.93-1.89c-0.82-0.81-1.46-1.76-1.93-2.87
			c-0.47-1.11-0.7-2.32-0.7-3.63c0-1.34,0.23-2.56,0.7-3.69c0.47-1.12,1.13-2.09,1.99-2.89c0.86-0.81,1.87-1.44,3.04-1.89
			C168.56,15.01,169.85,14.78,171.26,14.78z M170.58,16.07c-0.83,0-1.58,0.18-2.26,0.53c-0.68,0.35-1.27,0.85-1.77,1.47
			c-0.5,0.63-0.89,1.38-1.17,2.25c-0.28,0.87-0.41,1.82-0.41,2.86c0,1.21,0.18,2.33,0.54,3.37s0.86,1.93,1.5,2.7
			c0.64,0.77,1.4,1.37,2.27,1.82s1.82,0.66,2.82,0.66c0.8,0,1.54-0.18,2.22-0.53c0.68-0.35,1.26-0.84,1.75-1.47
			c0.49-0.63,0.86-1.39,1.13-2.27c0.26-0.88,0.39-1.85,0.39-2.91c0-1.26-0.17-2.41-0.51-3.46c-0.34-1.05-0.82-1.94-1.43-2.68
			c-0.61-0.74-1.35-1.32-2.22-1.72C172.59,16.27,171.64,16.07,170.58,16.07z M170.88,12.02c-0.66,0.45-1.06,0.68-1.21,0.68
			c-0.1,0-0.23-0.04-0.38-0.13c-0.15-0.09-0.23-0.16-0.23-0.21s0.04-0.1,0.11-0.15c0.05-0.08,0.13-0.16,0.23-0.26
			s0.21-0.21,0.34-0.34c0.3-0.33,0.6-0.65,0.89-0.96c0.29-0.31,0.59-0.62,0.89-0.93c0.25-0.28,0.5-0.54,0.74-0.79
			c0.24-0.25,0.47-0.52,0.7-0.79c0.53-0.6,0.88-0.97,1.04-1.1c0.16-0.13,0.36-0.19,0.59-0.19c0.08,0,0.14,0,0.21,0
			c0.06,0,0.15,0.02,0.26,0.06c0.11,0.04,0.27,0.09,0.47,0.15c0.2,0.06,0.49,0.15,0.87,0.25c0.38,0.13,0.57,0.29,0.57,0.49
			c0,0.13-0.02,0.23-0.06,0.3c-0.04,0.08-0.15,0.19-0.34,0.34c-0.19,0.15-0.49,0.35-0.91,0.59c-0.42,0.24-0.99,0.59-1.72,1.04
			c-0.25,0.18-0.5,0.34-0.74,0.49s-0.49,0.3-0.74,0.45L170.88,12.02z"/>
		<path d="M203.17,16.07c-1.01,0-1.93,0.18-2.76,0.55c-0.83,0.37-1.54,0.89-2.12,1.57s-1.03,1.49-1.36,2.44
			c-0.33,0.95-0.49,2-0.49,3.16c0,1.13,0.18,2.19,0.53,3.16c0.35,0.97,0.84,1.81,1.46,2.51c0.62,0.71,1.35,1.26,2.21,1.66
			c0.86,0.4,1.78,0.6,2.76,0.6c1.06,0,2.05-0.25,2.99-0.76c0.93-0.5,1.56-1.12,1.89-1.85c0.1-0.23,0.21-0.34,0.34-0.34
			c0.18,0,0.33,0.04,0.47,0.11c0.14,0.08,0.21,0.15,0.21,0.23c0,0.05-0.01,0.12-0.04,0.21c-0.03,0.09-0.11,0.35-0.26,0.77
			c-0.1,0.23-0.19,0.47-0.26,0.72c-0.08,0.25-0.18,0.62-0.3,1.1c-0.05,0.15-0.12,0.25-0.21,0.3c-0.09,0.05-0.33,0.14-0.74,0.26
			c-0.5,0.15-1.15,0.28-1.95,0.38c-0.79,0.1-1.58,0.15-2.36,0.15c-1.51,0-2.89-0.21-4.12-0.64c-1.24-0.43-2.29-1.04-3.17-1.83
			c-0.88-0.79-1.56-1.75-2.04-2.87c-0.48-1.12-0.73-2.36-0.73-3.72c0-1.56,0.34-3,1.03-4.31s1.66-2.37,2.9-3.18
			c1.69-1.11,3.87-1.66,6.54-1.66c0.68,0,1.46,0.04,2.34,0.13c0.88,0.09,1.63,0.2,2.23,0.32c0.13,0.03,0.28,0.04,0.45,0.04
			c0.08,0,0.13-0.01,0.17-0.02s0.11-0.07,0.21-0.17c0.1-0.05,0.18-0.08,0.23-0.08c0.23,0,0.34,0.08,0.34,0.23c0,0.05,0,0.11,0,0.17
			s-0.01,0.13-0.04,0.21c-0.18,0.73-0.32,1.43-0.42,2.1c-0.1,0.67-0.18,1.34-0.23,2.02c0,0.2-0.19,0.3-0.57,0.3
			c-0.18,0-0.28-0.04-0.32-0.11c-0.04-0.08-0.07-0.3-0.09-0.68c-0.1-1.13-0.52-1.95-1.25-2.44
			C205.92,16.31,204.76,16.07,203.17,16.07z"/>
		<path d="M221.59,14.78c1.44,0,2.75,0.22,3.93,0.66c1.18,0.44,2.2,1.06,3.04,1.85s1.51,1.75,1.99,2.85
			c0.48,1.11,0.72,2.33,0.72,3.67c0,1.31-0.25,2.53-0.76,3.65c-0.5,1.12-1.2,2.09-2.1,2.91s-1.95,1.46-3.18,1.93
			c-1.22,0.47-2.55,0.7-3.99,0.7c-1.34,0-2.57-0.23-3.71-0.68c-1.13-0.45-2.11-1.08-2.93-1.89c-0.82-0.81-1.46-1.76-1.93-2.87
			c-0.47-1.11-0.7-2.32-0.7-3.63c0-1.34,0.23-2.56,0.7-3.69c0.47-1.12,1.13-2.09,1.99-2.89c0.86-0.81,1.87-1.44,3.04-1.89
			C218.88,15.01,220.18,14.78,221.59,14.78z M220.91,16.07c-0.83,0-1.58,0.18-2.26,0.53c-0.68,0.35-1.27,0.85-1.77,1.47
			c-0.5,0.63-0.89,1.38-1.17,2.25c-0.28,0.87-0.41,1.82-0.41,2.86c0,1.21,0.18,2.33,0.54,3.37s0.86,1.93,1.5,2.7
			c0.64,0.77,1.4,1.37,2.27,1.82s1.82,0.66,2.82,0.66c0.8,0,1.54-0.18,2.22-0.53c0.68-0.35,1.26-0.84,1.75-1.47
			c0.49-0.63,0.86-1.39,1.13-2.27c0.26-0.88,0.39-1.85,0.39-2.91c0-1.26-0.17-2.41-0.51-3.46c-0.34-1.05-0.82-1.94-1.43-2.68
			c-0.61-0.74-1.35-1.32-2.22-1.72C222.92,16.27,221.96,16.07,220.91,16.07z"/>
		<path d="M249.8,27.37l0.04-4.31c0-1.31,0-2.33,0-3.06c0-0.73-0.01-1.29-0.04-1.66c-0.03-0.38-0.07-0.64-0.13-0.79
			c-0.06-0.15-0.15-0.31-0.25-0.49c-0.38-0.68-1.16-1.03-2.34-1.06c-0.33,0-0.49-0.1-0.49-0.3c0-0.28,0.01-0.45,0.04-0.53
			c0.02-0.08,0.1-0.11,0.23-0.11c0.05,0,0.17,0,0.36,0c0.19,0,0.61,0.03,1.27,0.08h1.36c0.91,0,1.75-0.01,2.51-0.02
			c0.77-0.01,1.3-0.03,1.61-0.06h0.19c0.13,0,0.21,0.03,0.25,0.09c0.04,0.06,0.06,0.23,0.06,0.51c0,0.2-0.02,0.32-0.06,0.36
			c-0.04,0.04-0.15,0.06-0.32,0.06c-1.54,0.03-2.36,0.88-2.46,2.57c-0.03,0.35-0.05,0.99-0.08,1.91s-0.05,1.89-0.08,2.91
			c-0.03,1.02-0.04,2-0.06,2.93c-0.01,0.93-0.02,1.59-0.02,1.97c0,0.96,0.03,1.82,0.08,2.59c0.05,0.77,0.1,1.25,0.15,1.46
			c0.02,0.03,0.04,0.06,0.04,0.11c0,0.1-0.15,0.22-0.45,0.36s-0.55,0.21-0.76,0.21c-0.03,0-0.1-0.06-0.23-0.19
			c-0.4-0.61-0.8-1.17-1.19-1.68s-0.93-1.17-1.61-1.97s-1.58-1.8-2.68-3.01c-1.11-1.21-2.58-2.81-4.42-4.8
			c-0.4-0.43-0.75-0.82-1.04-1.17c-0.29-0.35-0.61-0.78-0.96-1.29c-0.03,0.55-0.04,0.89-0.04,1s0,0.23,0,0.36
			c0,4.49,0.04,7.45,0.11,8.89c0.02,0.5,0.08,0.91,0.17,1.23c0.09,0.32,0.24,0.57,0.45,0.76c0.21,0.19,0.49,0.33,0.83,0.42
			c0.34,0.09,0.8,0.16,1.38,0.21c0.2,0,0.3,0.14,0.3,0.42c0,0.2-0.03,0.33-0.08,0.4s-0.16,0.09-0.34,0.09l-7.03-0.04
			c-0.28,0-0.44-0.02-0.47-0.06c-0.04-0.04-0.06-0.17-0.06-0.4c0-0.2,0.03-0.31,0.09-0.34c0.06-0.03,0.27-0.06,0.62-0.11
			c0.78-0.13,1.34-0.4,1.66-0.81c0.33-0.42,0.52-1.1,0.57-2.06c0.02-0.23,0.04-0.65,0.06-1.27c0.01-0.62,0.02-1.31,0.04-2.08
			c0.01-0.77,0.02-1.56,0.04-2.38s0.02-1.53,0.02-2.14c0-0.78,0-1.4,0-1.85s-0.02-0.81-0.06-1.06c-0.04-0.25-0.09-0.45-0.15-0.61
			c-0.06-0.15-0.15-0.31-0.25-0.49c-0.23-0.38-0.48-0.64-0.76-0.78c-0.28-0.14-0.78-0.25-1.51-0.32c-0.18,0-0.26-0.13-0.26-0.38
			c0-0.28,0.02-0.43,0.08-0.47s0.23-0.06,0.53-0.06h3.71c0.23,0,0.4,0.01,0.51,0.02c0.11,0.01,0.21,0.04,0.3,0.08
			c0.09,0.04,0.18,0.11,0.26,0.23c0.09,0.11,0.2,0.26,0.32,0.43c0.48,0.66,0.94,1.27,1.38,1.83c0.44,0.57,0.91,1.14,1.4,1.72
			c0.49,0.58,1.03,1.2,1.63,1.85c0.59,0.66,1.28,1.4,2.06,2.23c0.43,0.45,0.84,0.9,1.23,1.34c0.39,0.44,0.78,0.88,1.15,1.3l1.1,1.32
			c0.1,0.1,0.19,0.2,0.26,0.28c0.08,0.09,0.15,0.18,0.23,0.28V27.37z"/>
	</g>
	<g>
		<path d="M113.75,56.35c-1.7,0-3.16,0.6-4.38,1.78c-1.22,1.19-1.87,2.63-1.93,4.33v52.55c0,3.94,0.24,7.67,0.71,11.2l0.2,1.83
			h-0.92l-55.5-59.27v50.71c0.07,2.38,1.12,4.14,3.16,5.3c0.95,0.54,1.97,0.81,3.05,0.81h1.94v1.02H39.1v-1.02h1.93
			c1.7,0,3.16-0.59,4.38-1.78c1.22-1.19,1.83-2.66,1.83-4.43V66.53c0-4.14-0.24-7.84-0.71-11.1l-0.2-1.63h1.02l55.5,59.27V62.56
			c-0.07-1.76-0.71-3.24-1.93-4.43c-1.22-1.19-2.68-1.78-4.38-1.78H94.6v-1.02h20.98v1.02H113.75z"/>
		<path d="M195.01,56.35h-1.63c-1.43,0-2.67,0.46-3.72,1.38c-1.05,0.92-1.61,2.05-1.68,3.41v40.33c0,7.94-2.51,14.36-7.54,19.25
			c-5.03,4.89-11.71,7.33-20.06,7.33c-8.35,0-15.12-2.43-20.32-7.28c-5.19-4.85-7.79-11.25-7.79-19.2V61.44
			c0-2.04-0.88-3.53-2.65-4.48c-0.81-0.41-1.73-0.61-2.75-0.61h-1.63v-1.02h20.67v1.02h-1.63c-1.49,0-2.75,0.46-3.77,1.38
			c-1.02,0.92-1.56,2.09-1.63,3.51v38.9c0,7.4,1.99,13.38,5.96,17.92c3.97,4.55,9.28,6.82,15.94,6.82c6.65,0,12.05-2.15,16.19-6.47
			c4.14-4.31,6.21-9.96,6.21-16.96V61.24c-0.07-1.43-0.61-2.6-1.63-3.51c-1.02-0.92-2.28-1.38-3.77-1.38h-1.63v-1.02h18.84V56.35z"
			/>
		<path d="M278.01,56.35c-1.7,0-3.16,0.6-4.38,1.78c-1.22,1.19-1.87,2.63-1.93,4.33v52.55c0,3.94,0.24,7.67,0.71,11.2l0.2,1.83
			h-0.92l-55.5-59.27v50.71c0.07,2.38,1.12,4.14,3.16,5.3c0.95,0.54,1.97,0.81,3.05,0.81h1.94v1.02h-20.98v-1.02h1.93
			c1.7,0,3.16-0.59,4.38-1.78c1.22-1.19,1.83-2.66,1.83-4.43V66.53c0-4.14-0.24-7.84-0.71-11.1l-0.2-1.63h1.02l55.5,59.27V62.56
			c-0.07-1.76-0.71-3.24-1.93-4.43c-1.22-1.19-2.68-1.78-4.38-1.78h-1.94v-1.02h20.98v1.02H278.01z"/>
		<path d="M355.82,125.6h0.81v1.02h-22.91v-1.02h0.92c1.43,0,2.5-0.46,3.21-1.38c0.71-0.92,1.07-1.78,1.07-2.6s-0.14-1.63-0.41-2.44
			l-6.52-17.31h-27.5l-6.82,17.42c-0.27,0.81-0.41,1.61-0.41,2.39c0,0.78,0.36,1.63,1.07,2.55c0.71,0.92,1.78,1.38,3.21,1.38h0.92
			v1.02h-20.47v-1.02h0.92c1.7,0,3.36-0.54,4.99-1.63c1.63-1.09,2.95-2.68,3.97-4.79l23.02-54.79c2.51-5.5,3.77-9,3.77-10.49h0.92
			l27.29,65.28c0.95,2.11,2.24,3.7,3.87,4.79C352.35,125.06,354.05,125.6,355.82,125.6z M305.71,98.82h25.05l-12.22-32.69
			L305.71,98.82z"/>
	</g>
	<path d="M373.61,53.91c6.18,0,11.03,1.53,14.56,4.58c3.53,3.06,5.29,7.3,5.29,12.73c0,4.21-1.36,7.98-4.07,11.3
		c-2.24,2.78-4.48,5.19-6.72,7.23c-4.01,3.67-6.42,6.89-7.23,9.67c-0.48,1.36-0.71,2.87-0.71,4.53c0,1.67,0.58,3.28,1.73,4.84
		l-0.61,0.51c-2.99-2.78-4.48-6.04-4.48-9.78c0-3.06,1.7-6.55,5.09-10.49c1.43-1.63,2.85-3.33,4.28-5.09
		c3.39-4.14,5.09-8.38,5.09-12.73c0-6.04-1.9-10.22-5.7-12.53c-1.83-1.15-4.01-1.73-6.52-1.73c-4.07,0-7.26,1.38-9.57,4.12
		c-2.31,2.75-3.46,6.4-3.46,10.95c0,0.2,0,0.41,0,0.61h-1.02l-1.02-9.67c1.56-2.85,3.65-5.08,6.26-6.67
		C367.41,54.71,370.35,53.91,373.61,53.91z M378.09,125.7c-0.88,0.88-1.95,1.32-3.21,1.32c-1.26,0-2.34-0.44-3.26-1.32
		c-0.92-0.88-1.38-1.97-1.38-3.26c0-1.29,0.46-2.38,1.38-3.26c0.92-0.88,2-1.32,3.26-1.32c1.26,0,2.32,0.44,3.21,1.32
		c0.88,0.88,1.32,1.97,1.32,3.26C379.41,123.73,378.97,124.82,378.09,125.7z"/>
	<g>
		<path d="M21.62,39.64c-2.02,3.74-5.25,5.61-9.71,5.61c-2.27,0-4.33-0.42-6.18-1.26C1.91,42.22,0,39.07,0,34.54
			c0-2.6,0.84-4.94,2.52-7c1.43-1.72,2.81-3.21,4.16-4.47c2.48-2.27,3.97-4.26,4.47-5.99c0.34-0.84,0.5-1.77,0.5-2.8
			s-0.38-2.03-1.13-2.99l0.38-0.31c1.89,1.72,2.84,3.74,2.84,6.05c0,1.89-1.07,4.05-3.21,6.49c-0.88,1.01-1.76,2.06-2.65,3.15
			c-2.1,2.56-3.15,5.21-3.15,7.94c0,2.73,0.67,4.88,2.02,6.43c1.34,1.55,3.25,2.33,5.7,2.33s4.39-0.85,5.8-2.55
			c1.41-1.7,2.11-3.96,2.11-6.77c0-0.13,0-0.25,0-0.38h0.63L21.62,39.64z M9.52,0.82C10.06,0.27,10.73,0,11.53,0
			c0.8,0,1.47,0.27,2.02,0.82s0.82,1.22,0.82,2.02c0,0.8-0.27,1.47-0.82,2.02C13,5.4,12.33,5.67,11.53,5.67
			c-0.8,0-1.47-0.27-2.02-0.82C8.97,4.31,8.7,3.63,8.7,2.84C8.7,2.04,8.97,1.37,9.52,0.82z"/>
	</g>
	<path d="M376.64,155.7c0,0-83.66-1.25-111.13-1.25c-36.21,0-108.62,0-144.83,0c-27.43,0-110.96,1.25-110.96,1.25
		s1.25-18.06,1.25-23.66c0-19.31,0-77.25,0-77.25h1v98.66h362.42v-16.88h1L376.64,155.7z"/>
	<polygon points="375.39,44.36 374.39,44.36 374.39,24.21 265.51,24.21 265.51,23.21 376.64,21.96 	"/>
</g>
</svg>
