<?xml version="1.0" encoding="utf-8"?>
<!-- Generator: Adobe Illustrator 25.3.0, SVG Export Plug-In . SVG Version: 6.00 Build 0)  -->
<svg version="1.1" xmlns="http://www.w3.org/2000/svg" xmlns:xlink="http://www.w3.org/1999/xlink" x="0px" y="0px"
	 viewBox="0 0 393.89 194.24" xml:space="preserve">
<g>
	<g>
		<path d="M45.29,33.69c-1.79-0.05-3.43-0.39-4.92-1.02c-1.49-0.63-2.77-1.49-3.86-2.57s-1.92-2.36-2.51-3.84s-0.89-3.09-0.89-4.86
			c0-1.79,0.33-3.45,0.98-4.97c0.66-1.52,1.57-2.85,2.74-3.97c1.17-1.12,2.55-2,4.14-2.63s3.31-0.95,5.18-0.95
			c1.84,0,3.52,0.3,5.05,0.91s2.84,1.46,3.93,2.56c1.1,1.1,1.95,2.4,2.57,3.9s0.93,3.16,0.93,4.98c0,3.05-0.84,5.63-2.53,7.74
			s-4.06,3.57-7.11,4.37c1.74,1.97,3.52,3.48,5.33,4.52c1.82,1.05,3.54,1.57,5.18,1.57c0.3,0,0.53-0.01,0.68-0.04
			c0.15-0.03,0.4-0.09,0.76-0.19c0.03-0.03,0.06-0.04,0.11-0.04s0.11,0.04,0.17,0.13c0.06,0.09,0.09,0.19,0.09,0.32
			s-0.13,0.24-0.4,0.35c-0.26,0.11-0.59,0.22-0.98,0.33s-0.83,0.2-1.3,0.26c-0.48,0.06-0.93,0.09-1.36,0.09
			c-2.04,0-4.1-0.6-6.18-1.8C49.01,37.65,47.08,35.93,45.29,33.69z M44.99,10.32c-1.25,0-2.4,0.24-3.43,0.72s-1.91,1.17-2.64,2.06
			c-0.73,0.9-1.29,1.97-1.68,3.21c-0.39,1.25-0.58,2.64-0.58,4.18c0,1.71,0.25,3.29,0.73,4.73c0.49,1.44,1.17,2.68,2.05,3.72
			c0.88,1.05,1.92,1.86,3.13,2.44c1.21,0.58,2.52,0.87,3.95,0.87c1.18,0,2.3-0.21,3.37-0.64c1.07-0.43,1.96-1.05,2.69-1.85
			c0.83-0.86,1.45-1.92,1.86-3.18s0.62-2.7,0.62-4.31c0-1.79-0.25-3.42-0.73-4.88c-0.49-1.46-1.17-2.72-2.05-3.76
			c-0.88-1.05-1.94-1.86-3.18-2.44C47.87,10.61,46.49,10.32,44.99,10.32z"/>
		<path d="M62.04,15.65c0.08,0,0.24,0.01,0.49,0.02s0.54,0.02,0.85,0.02c0.31,0,0.64,0,0.96,0c0.33,0,0.6,0,0.83,0
			c0.88,0,1.62,0,2.21,0s1.18-0.01,1.76-0.04h0.34c0.23,0,0.37,0.03,0.43,0.08S70,15.88,70,16.03c0,0.2-0.02,0.33-0.06,0.4
			c-0.04,0.06-0.13,0.09-0.28,0.09c-0.81,0.03-1.39,0.11-1.76,0.25s-0.61,0.37-0.74,0.7c-0.05,0.13-0.09,0.28-0.11,0.45
			c-0.03,0.18-0.05,0.48-0.08,0.91s-0.04,1.02-0.04,1.77s0,1.77,0,3.05c0,0.93,0.01,1.71,0.02,2.34c0.01,0.63,0.04,1.16,0.09,1.58
			c0.05,0.43,0.12,0.79,0.21,1.08c0.09,0.29,0.19,0.56,0.32,0.81c0.73,1.43,2.24,2.15,4.54,2.15c1.14,0,2.1-0.18,2.91-0.55
			c0.81-0.37,1.39-0.87,1.74-1.53c0.28-0.5,0.47-1.09,0.57-1.75c0.1-0.67,0.15-1.64,0.15-2.92c0-0.75-0.01-1.5-0.04-2.24
			s-0.06-1.43-0.09-2.06s-0.08-1.18-0.11-1.66c-0.04-0.48-0.08-0.83-0.13-1.06c-0.18-0.75-0.82-1.17-1.93-1.24
			c-0.4-0.03-0.64-0.06-0.72-0.11s-0.11-0.19-0.11-0.42c0-0.18,0.02-0.28,0.06-0.32s0.16-0.06,0.36-0.06c0.1,0,0.19,0,0.28,0
			s0.36,0.01,0.81,0.04h1.17c0.3,0,0.65,0,1.04,0s0.77-0.01,1.13-0.02s0.69-0.03,0.96-0.04c0.28-0.01,0.48-0.02,0.6-0.02
			c0.1-0.03,0.2-0.04,0.28-0.04c0.09,0,0.16,0,0.21,0c0.23,0,0.34,0.11,0.34,0.34c0,0.23-0.03,0.37-0.09,0.42
			c-0.06,0.05-0.3,0.1-0.7,0.15c-0.5,0.08-0.85,0.2-1.04,0.38s-0.33,0.5-0.43,0.98c-0.05,0.2-0.09,0.39-0.11,0.57
			c-0.03,0.18-0.04,0.38-0.06,0.6c-0.01,0.23-0.03,0.5-0.04,0.81c-0.01,0.32-0.03,0.71-0.06,1.19l-0.08,4.01
			c-0.03,0.88-0.08,1.64-0.15,2.29c-0.08,0.64-0.18,1.2-0.3,1.66c-0.13,0.47-0.3,0.89-0.53,1.27c-0.23,0.38-0.5,0.74-0.83,1.1
			c-1.31,1.46-3.29,2.19-5.94,2.19c-1.92,0-3.47-0.37-4.65-1.12c-1.18-0.74-1.93-1.8-2.23-3.16c-0.08-0.33-0.13-0.62-0.17-0.89
			c-0.04-0.27-0.07-0.7-0.09-1.3c-0.03-0.61-0.04-1.49-0.04-2.65s0-2.8,0-4.92c-0.03-0.66-0.06-1.18-0.11-1.57s-0.15-0.69-0.28-0.89
			c-0.14-0.2-0.35-0.33-0.62-0.4c-0.28-0.06-0.66-0.11-1.13-0.13c-0.4,0-0.64-0.02-0.72-0.08c-0.08-0.05-0.11-0.18-0.11-0.38
			c0-0.2,0.02-0.33,0.06-0.38s0.13-0.08,0.28-0.08h0.62V15.65z"/>
		<path d="M97.54,15.58c0.25,0,0.41,0.02,0.47,0.06s0.09,0.12,0.09,0.25c0,0.1-0.01,0.21-0.02,0.32c-0.01,0.11-0.03,0.23-0.06,0.36
			c-0.03,0.15-0.05,0.36-0.08,0.63c-0.03,0.27-0.05,0.54-0.08,0.83c-0.03,0.29-0.05,0.58-0.08,0.87s-0.04,0.54-0.04,0.74
			c0,0.33-0.03,0.53-0.09,0.61s-0.21,0.11-0.43,0.11c-0.2,0-0.33-0.04-0.38-0.11c-0.05-0.08-0.08-0.29-0.08-0.64
			c-0.03-0.58-0.11-1.05-0.25-1.4s-0.4-0.63-0.77-0.83c-0.38-0.2-0.9-0.33-1.57-0.4c-0.67-0.06-1.54-0.09-2.63-0.09
			c-0.5,0-0.9,0.01-1.19,0.02s-0.51,0.04-0.66,0.08c-0.15,0.04-0.25,0.09-0.3,0.17s-0.09,0.18-0.11,0.3c0,0.05-0.04,2.1-0.11,6.14
			c1.49,0,2.65-0.02,3.5-0.06s1.48-0.12,1.91-0.25s0.71-0.33,0.83-0.61c0.13-0.28,0.21-0.66,0.26-1.14
			c0.03-0.25,0.15-0.38,0.38-0.38c0.2,0,0.33,0.02,0.4,0.06c0.06,0.04,0.09,0.12,0.09,0.25v0.34c-0.03,0.25-0.04,0.61-0.06,1.08
			c-0.01,0.47-0.02,0.92-0.02,1.34c0,0.23,0,0.41,0,0.55s0,0.29,0,0.44s0.01,0.33,0.02,0.55c0.01,0.21,0.03,0.51,0.06,0.89v0.27
			c0,0.18-0.03,0.28-0.08,0.32c-0.05,0.04-0.18,0.06-0.38,0.06c-0.25,0-0.39-0.14-0.42-0.42c-0.03-1.04-0.34-1.67-0.95-1.9
			c-0.18-0.05-0.33-0.09-0.45-0.13c-0.13-0.04-0.27-0.06-0.44-0.08s-0.38-0.02-0.64-0.02s-0.64,0-1.12,0h-2.12h-0.79v1.74
			c0,1.21,0.01,2.15,0.02,2.82c0.01,0.67,0.03,1.16,0.06,1.46c0.05,0.48,0.21,0.81,0.47,0.99s0.76,0.26,1.49,0.26
			c1.21,0,2.2-0.04,2.97-0.13c0.77-0.09,1.4-0.26,1.89-0.53c0.49-0.26,0.86-0.62,1.12-1.08c0.25-0.45,0.47-1.05,0.64-1.78
			c0.08-0.23,0.18-0.34,0.3-0.34c0.48,0,0.72,0.16,0.72,0.49c0,0.2-0.08,0.63-0.23,1.29s-0.33,1.35-0.53,2.08
			c-0.18,0.61-0.3,0.98-0.36,1.1s-0.18,0.18-0.36,0.18c-0.05,0-0.12,0-0.21,0s-0.18-0.01-0.28-0.04h-1.55l-2.12-0.04h-2l-6.43,0.04
			c-0.2,0.02-0.4,0.04-0.61,0.04c-0.2,0-0.34,0-0.42,0c-0.23,0-0.34-0.1-0.34-0.3s0.02-0.33,0.06-0.38s0.12-0.09,0.25-0.11
			c0.83-0.05,1.41-0.16,1.74-0.32c0.33-0.16,0.55-0.46,0.68-0.89c0.05-0.18,0.09-0.42,0.11-0.72c0.02-0.3,0.05-0.71,0.08-1.23
			s0.04-1.17,0.04-1.95s0-1.75,0-2.91c0-1.97-0.01-3.48-0.04-4.56c-0.03-1.07-0.1-1.85-0.23-2.34c-0.13-0.49-0.33-0.79-0.6-0.89
			c-0.28-0.1-0.68-0.18-1.21-0.23c-0.38-0.02-0.6-0.06-0.66-0.09c-0.06-0.04-0.09-0.18-0.09-0.44c0-0.25,0.11-0.38,0.34-0.38
			c0.05,0,0.18,0,0.4,0s0.43,0.01,0.66,0.04c0.25,0.03,0.55,0.04,0.91,0.04c0.35,0,0.81,0,1.36,0c1.97,0,3.76-0.01,5.39-0.02
			s3.21-0.03,4.75-0.06h0.21V15.58z M90.93,12.59c-0.66,0.45-1.06,0.68-1.21,0.68c-0.1,0-0.23-0.04-0.38-0.13
			c-0.15-0.09-0.23-0.16-0.23-0.21s0.04-0.1,0.11-0.15c0.05-0.08,0.13-0.16,0.23-0.26s0.21-0.21,0.34-0.34
			c0.3-0.33,0.6-0.65,0.89-0.96s0.59-0.62,0.89-0.93c0.25-0.28,0.5-0.54,0.74-0.79s0.47-0.52,0.7-0.79c0.53-0.6,0.88-0.97,1.04-1.1
			c0.16-0.13,0.36-0.19,0.59-0.19c0.08,0,0.14,0,0.21,0c0.06,0,0.15,0.02,0.26,0.06s0.27,0.09,0.47,0.15
			c0.2,0.06,0.49,0.15,0.87,0.25c0.38,0.13,0.57,0.29,0.57,0.49c0,0.13-0.02,0.23-0.06,0.3c-0.04,0.08-0.15,0.19-0.34,0.34
			c-0.19,0.14-0.5,0.34-0.91,0.57c-0.42,0.24-0.99,0.59-1.72,1.04c-0.25,0.18-0.5,0.34-0.74,0.49s-0.49,0.3-0.74,0.45L90.93,12.59z"
			/>
		<path d="M113.69,20.38c0-0.68-0.01-1.24-0.02-1.66c-0.01-0.43-0.04-0.77-0.08-1.02s-0.1-0.44-0.19-0.57
			c-0.09-0.13-0.2-0.23-0.32-0.3c-0.38-0.25-0.87-0.38-1.47-0.38c-0.33,0-0.52-0.01-0.57-0.04c-0.05-0.02-0.08-0.14-0.08-0.34
			c0-0.2,0.01-0.33,0.04-0.4c0.02-0.06,0.1-0.09,0.23-0.09c0.05,0,0.15,0,0.3,0s0.31,0.01,0.49,0.04s0.38,0.04,0.62,0.04
			c0.24,0,0.54,0,0.89,0c0.5,0,1.02,0,1.55,0c0.53,0,1.01-0.01,1.44-0.04c0.58-0.02,1.1-0.04,1.55-0.04c0.45,0,0.82,0,1.1,0
			c2.14,0,3.8,0.45,4.97,1.34s1.76,2.17,1.76,3.84c0,1.81-0.71,3.23-2.12,4.23c-1.41,1.01-3.39,1.51-5.94,1.51
			c-0.25,0-0.47,0-0.64,0c-0.18,0-0.4-0.02-0.68-0.08c0,1.08,0.01,1.95,0.02,2.61c0.01,0.66,0.03,1.11,0.06,1.36
			c0.05,0.81,0.21,1.34,0.47,1.59s0.81,0.4,1.65,0.45c0.48,0.03,0.76,0.05,0.83,0.08c0.08,0.03,0.11,0.14,0.11,0.34
			s-0.03,0.33-0.08,0.38s-0.15,0.08-0.3,0.08h-0.72c-0.66-0.05-1.2-0.08-1.63-0.08s-0.86,0-1.29,0l-3.86,0.04h-0.49
			c-0.25,0-0.4-0.02-0.44-0.06s-0.06-0.16-0.06-0.36s0.03-0.31,0.09-0.34c0.06-0.03,0.27-0.06,0.62-0.11
			c0.81-0.05,1.35-0.26,1.64-0.64s0.43-1.08,0.43-2.12v-2.19l0.08-3.21v-3.86H113.69z M117.28,25.52c0.88,0,1.6-0.06,2.16-0.19
			s1.05-0.34,1.47-0.64c1.11-0.78,1.66-2.03,1.66-3.74c0-1.51-0.4-2.61-1.21-3.31c-0.81-0.69-2.09-1.04-3.86-1.04
			c-0.45,0-0.73,0.07-0.81,0.21c-0.09,0.14-0.13,0.52-0.13,1.15c0,0.78-0.01,1.39-0.02,1.83c-0.01,0.44-0.02,0.78-0.02,1.02
			s0,0.43,0,0.57s0,0.31,0,0.51l-0.04,3.63H117.28z"/>
		<path d="M138.68,33.27c-0.3,0-0.48-0.02-0.53-0.06s-0.08-0.16-0.08-0.36s0.03-0.31,0.09-0.34c0.06-0.03,0.28-0.06,0.66-0.11
			c0.91-0.1,1.36-0.38,1.36-0.83c0-0.08-0.01-0.15-0.02-0.21c-0.01-0.06-0.04-0.18-0.08-0.34c-0.04-0.16-0.11-0.4-0.23-0.72
			s-0.26-0.76-0.44-1.34c-0.2-0.55-0.35-0.99-0.43-1.3c-0.09-0.31-0.15-0.5-0.17-0.55c-0.13,0-0.28,0-0.45,0s-0.49,0-0.95,0
			c-0.45,0-1.1,0.01-1.93,0.02c-0.83,0.01-1.94,0.02-3.33,0.02c-0.03,0.05-0.04,0.1-0.06,0.15c-0.01,0.05-0.04,0.11-0.08,0.19
			c-0.04,0.08-0.09,0.2-0.15,0.36s-0.15,0.38-0.25,0.66c-0.23,0.58-0.4,1.03-0.51,1.36s-0.2,0.57-0.25,0.74
			c-0.05,0.16-0.08,0.29-0.09,0.38c-0.01,0.09-0.02,0.18-0.02,0.28c0,0.2,0.07,0.39,0.21,0.57s0.32,0.3,0.55,0.38
			c0.18,0.08,0.33,0.12,0.47,0.13s0.47,0.02,1,0.02c0.23,0,0.34,0.14,0.34,0.42c0,0.2-0.02,0.33-0.06,0.38s-0.12,0.09-0.25,0.11
			h-1.93h-1.29c-0.4,0-0.76,0-1.06,0s-0.68,0.01-1.13,0.04h-0.68c-0.18,0-0.26-0.14-0.26-0.42c0-0.18,0.05-0.28,0.15-0.3
			c0.28-0.1,0.52-0.22,0.74-0.36c0.21-0.14,0.44-0.39,0.68-0.76c0.24-0.37,0.53-0.89,0.87-1.57s0.79-1.59,1.34-2.72
			c0.83-1.81,1.5-3.29,2-4.42s0.93-2.09,1.27-2.85c0.34-0.77,0.64-1.45,0.89-2.04s0.53-1.27,0.83-2.02c0.05-0.13,0.11-0.2,0.17-0.23
			c0.06-0.02,0.26-0.05,0.59-0.08l0.57-0.08c0.1-0.02,0.2-0.04,0.28-0.04c0.09,0,0.16,0,0.21,0c0.13,0,0.2,0.03,0.23,0.09
			c0.02,0.06,0.1,0.31,0.23,0.74c0.15,0.55,0.43,1.4,0.85,2.53c0.42,1.13,0.93,2.48,1.53,4.05c0.43,1.08,0.81,2.07,1.15,2.97
			c0.34,0.89,0.65,1.71,0.93,2.44c0.38,0.96,0.67,1.71,0.89,2.25c0.21,0.54,0.4,0.95,0.57,1.21c0.16,0.26,0.31,0.44,0.45,0.53
			s0.31,0.16,0.51,0.21s0.3,0.19,0.3,0.42c0,0.28-0.15,0.42-0.45,0.42h-0.68h-5.07V33.27z M138.42,26.05c-0.1-0.3-0.2-0.59-0.3-0.87
			s-0.21-0.57-0.32-0.87c-0.11-0.3-0.24-0.64-0.38-1.02s-0.3-0.82-0.47-1.32c-0.18-0.45-0.33-0.84-0.45-1.15s-0.23-0.59-0.32-0.83
			c-0.09-0.24-0.17-0.46-0.25-0.66s-0.17-0.43-0.26-0.68c-0.78,1.89-1.42,3.45-1.93,4.67c-0.5,1.22-0.88,2.14-1.13,2.74
			L138.42,26.05L138.42,26.05z"/>
		<path d="M148.13,33.05c-0.05,0-0.15,0.04-0.3,0.11c-0.08,0.08-0.24,0.11-0.49,0.11c-0.13,0-0.2-0.02-0.23-0.06
			s-0.06-0.14-0.11-0.32c-0.08-0.25-0.15-0.57-0.21-0.96c-0.06-0.39-0.12-0.79-0.17-1.19s-0.09-0.78-0.13-1.13
			c-0.04-0.35-0.06-0.63-0.06-0.83c0-0.38,0.04-0.62,0.11-0.72c0.08-0.1,0.28-0.15,0.6-0.15c0.13,0,0.21,0.03,0.26,0.08
			c0.05,0.05,0.1,0.18,0.15,0.38c0.2,1.21,0.74,2.14,1.63,2.8c0.88,0.66,2.04,0.98,3.48,0.98c1.13,0,2.02-0.25,2.65-0.76
			c0.63-0.5,0.95-1.22,0.95-2.16c0-0.43-0.06-0.81-0.19-1.15s-0.35-0.66-0.68-0.95c-0.33-0.29-0.76-0.58-1.29-0.87
			s-1.21-0.6-2.04-0.93c-0.98-0.38-1.8-0.74-2.44-1.1c-0.64-0.35-1.16-0.72-1.55-1.1c-0.39-0.38-0.67-0.79-0.83-1.23
			s-0.25-0.94-0.25-1.49c0-0.76,0.18-1.47,0.53-2.14s0.86-1.23,1.51-1.68c0.53-0.4,1.12-0.69,1.76-0.85
			c0.64-0.16,1.43-0.25,2.36-0.25c0.25,0,0.46,0,0.62,0s0.35,0.01,0.55,0.04s0.45,0.05,0.76,0.08c0.3,0.03,0.73,0.08,1.29,0.15
			c0.13,0.03,0.23,0.04,0.32,0.04c0.09,0,0.18,0,0.28,0c0.08,0,0.14-0.01,0.21-0.02c0.06-0.01,0.13-0.03,0.21-0.06
			c0.08-0.02,0.15-0.04,0.23-0.04c0.1,0,0.16,0.04,0.17,0.13s0.02,0.41,0.02,0.96c0,0.45,0.01,0.93,0.04,1.44
			c0.02,0.5,0.06,0.96,0.11,1.36c0.02,0.1,0.04,0.21,0.04,0.34c0,0.23-0.19,0.34-0.57,0.34c-0.15,0-0.25-0.02-0.3-0.08
			c-0.05-0.05-0.1-0.14-0.15-0.26c-0.18-0.71-0.35-1.21-0.51-1.51c-0.17-0.3-0.4-0.58-0.7-0.83c-0.35-0.25-0.78-0.45-1.29-0.59
			c-0.5-0.14-1.02-0.21-1.55-0.21c-0.96,0-1.72,0.25-2.29,0.74c-0.57,0.49-0.85,1.14-0.85,1.95c0,0.43,0.06,0.8,0.19,1.12
			s0.37,0.62,0.72,0.91c0.35,0.29,0.84,0.58,1.47,0.87s1.46,0.64,2.5,1.04c1.64,0.66,2.81,1.36,3.52,2.12
			c0.71,0.76,1.06,1.7,1.06,2.84c0,1.61-0.61,2.86-1.83,3.74c-1.22,0.88-2.94,1.32-5.16,1.32c-0.63,0-1.25-0.03-1.85-0.08
			c-0.6-0.05-1.15-0.11-1.63-0.19c-0.28-0.05-0.44-0.08-0.49-0.09C148.23,33.05,148.18,33.05,148.13,33.05z"/>
		<path d="M171.69,15.35c1.44,0,2.75,0.22,3.93,0.66c1.18,0.44,2.2,1.06,3.04,1.85s1.51,1.75,1.99,2.85
			c0.48,1.11,0.72,2.33,0.72,3.67c0,1.31-0.25,2.53-0.76,3.65c-0.5,1.12-1.2,2.09-2.1,2.91s-1.95,1.46-3.18,1.93
			c-1.22,0.47-2.55,0.7-3.99,0.7c-1.34,0-2.57-0.23-3.71-0.68c-1.13-0.45-2.11-1.08-2.93-1.89c-0.82-0.81-1.46-1.76-1.93-2.87
			c-0.47-1.11-0.7-2.32-0.7-3.63c0-1.34,0.23-2.56,0.7-3.69c0.47-1.12,1.13-2.09,1.99-2.89c0.86-0.81,1.87-1.44,3.04-1.89
			C168.99,15.58,170.28,15.35,171.69,15.35z M171.01,16.64c-0.83,0-1.58,0.18-2.26,0.53s-1.27,0.85-1.77,1.47
			c-0.5,0.63-0.89,1.38-1.17,2.25s-0.41,1.82-0.41,2.86c0,1.21,0.18,2.33,0.54,3.37s0.86,1.93,1.5,2.7s1.4,1.37,2.27,1.82
			s1.82,0.66,2.82,0.66c0.8,0,1.54-0.18,2.22-0.53c0.68-0.35,1.26-0.84,1.75-1.47s0.86-1.39,1.13-2.27
			c0.26-0.88,0.39-1.85,0.39-2.91c0-1.26-0.17-2.41-0.51-3.46s-0.82-1.94-1.43-2.68c-0.61-0.74-1.35-1.32-2.22-1.72
			C173.02,16.84,172.07,16.64,171.01,16.64z M171.31,12.59c-0.66,0.45-1.06,0.68-1.21,0.68c-0.1,0-0.23-0.04-0.38-0.13
			c-0.15-0.09-0.23-0.16-0.23-0.21s0.04-0.1,0.11-0.15c0.05-0.08,0.13-0.16,0.23-0.26s0.21-0.21,0.34-0.34
			c0.3-0.33,0.6-0.65,0.89-0.96s0.59-0.62,0.89-0.93c0.25-0.28,0.5-0.54,0.74-0.79s0.47-0.52,0.7-0.79c0.53-0.6,0.88-0.97,1.04-1.1
			c0.16-0.13,0.36-0.19,0.59-0.19c0.08,0,0.14,0,0.21,0c0.06,0,0.15,0.02,0.26,0.06s0.27,0.09,0.47,0.15s0.49,0.15,0.87,0.25
			c0.38,0.13,0.57,0.29,0.57,0.49c0,0.13-0.02,0.23-0.06,0.3c-0.04,0.08-0.15,0.19-0.34,0.34c-0.19,0.15-0.49,0.35-0.91,0.59
			s-0.99,0.59-1.72,1.04c-0.25,0.18-0.5,0.34-0.74,0.49s-0.49,0.3-0.74,0.45L171.31,12.59z"/>
		<path d="M203.6,16.64c-1.01,0-1.93,0.18-2.76,0.55c-0.83,0.37-1.54,0.89-2.12,1.57s-1.03,1.49-1.36,2.44s-0.49,2-0.49,3.16
			c0,1.13,0.18,2.19,0.53,3.16s0.84,1.81,1.46,2.51c0.62,0.71,1.35,1.26,2.21,1.66s1.78,0.6,2.76,0.6c1.06,0,2.05-0.25,2.99-0.76
			c0.93-0.5,1.56-1.12,1.89-1.85c0.1-0.23,0.21-0.34,0.34-0.34c0.18,0,0.33,0.04,0.47,0.11c0.14,0.08,0.21,0.15,0.21,0.23
			c0,0.05-0.01,0.12-0.04,0.21c-0.03,0.09-0.11,0.35-0.26,0.77c-0.1,0.23-0.19,0.47-0.26,0.72c-0.08,0.25-0.18,0.62-0.3,1.1
			c-0.05,0.15-0.12,0.25-0.21,0.3c-0.09,0.05-0.33,0.14-0.74,0.26c-0.5,0.15-1.15,0.28-1.95,0.38c-0.79,0.1-1.58,0.15-2.36,0.15
			c-1.51,0-2.89-0.21-4.12-0.64c-1.24-0.43-2.29-1.04-3.17-1.83c-0.88-0.79-1.56-1.75-2.04-2.87s-0.73-2.36-0.73-3.72
			c0-1.56,0.34-3,1.03-4.31s1.66-2.37,2.9-3.18c1.69-1.11,3.87-1.66,6.54-1.66c0.68,0,1.46,0.04,2.34,0.13
			c0.88,0.09,1.63,0.2,2.23,0.32c0.13,0.03,0.28,0.04,0.45,0.04c0.08,0,0.13-0.01,0.17-0.02s0.11-0.07,0.21-0.17
			c0.1-0.05,0.18-0.08,0.23-0.08c0.23,0,0.34,0.08,0.34,0.23c0,0.05,0,0.11,0,0.17c0,0.06-0.01,0.13-0.04,0.21
			c-0.18,0.73-0.32,1.43-0.42,2.1c-0.1,0.67-0.18,1.34-0.23,2.02c0,0.2-0.19,0.3-0.57,0.3c-0.18,0-0.28-0.04-0.32-0.11
			c-0.04-0.08-0.07-0.3-0.09-0.68c-0.1-1.13-0.52-1.95-1.25-2.44C206.35,16.88,205.19,16.64,203.6,16.64z"/>
		<path d="M222.02,15.35c1.44,0,2.75,0.22,3.93,0.66c1.18,0.44,2.2,1.06,3.04,1.85s1.51,1.75,1.99,2.85
			c0.48,1.11,0.72,2.33,0.72,3.67c0,1.31-0.25,2.53-0.76,3.65c-0.5,1.12-1.2,2.09-2.1,2.91s-1.95,1.46-3.18,1.93
			c-1.22,0.47-2.55,0.7-3.99,0.7c-1.34,0-2.57-0.23-3.71-0.68c-1.13-0.45-2.11-1.08-2.93-1.89c-0.82-0.81-1.46-1.76-1.93-2.87
			c-0.47-1.11-0.7-2.32-0.7-3.63c0-1.34,0.23-2.56,0.7-3.69c0.47-1.12,1.13-2.09,1.99-2.89c0.86-0.81,1.87-1.44,3.04-1.89
			C219.31,15.58,220.61,15.35,222.02,15.35z M221.34,16.64c-0.83,0-1.58,0.18-2.26,0.53s-1.27,0.85-1.77,1.47
			c-0.5,0.63-0.89,1.38-1.17,2.25s-0.41,1.82-0.41,2.86c0,1.21,0.18,2.33,0.54,3.37s0.86,1.93,1.5,2.7s1.4,1.37,2.27,1.82
			s1.82,0.66,2.82,0.66c0.8,0,1.54-0.18,2.22-0.53c0.68-0.35,1.26-0.84,1.75-1.47s0.86-1.39,1.13-2.27
			c0.26-0.88,0.39-1.85,0.39-2.91c0-1.26-0.17-2.41-0.51-3.46s-0.82-1.94-1.43-2.68c-0.61-0.74-1.35-1.32-2.22-1.72
			C223.35,16.84,222.39,16.64,221.34,16.64z"/>
		<path d="M250.23,27.94l0.04-4.31c0-1.31,0-2.33,0-3.06s-0.01-1.29-0.04-1.66c-0.03-0.38-0.07-0.64-0.13-0.79
			c-0.06-0.15-0.15-0.31-0.25-0.49c-0.38-0.68-1.16-1.03-2.34-1.06c-0.33,0-0.49-0.1-0.49-0.3c0-0.28,0.01-0.45,0.04-0.53
			c0.02-0.08,0.1-0.11,0.23-0.11c0.05,0,0.17,0,0.36,0s0.61,0.03,1.27,0.08h1.36c0.91,0,1.75-0.01,2.51-0.02
			c0.77-0.01,1.3-0.03,1.61-0.06h0.19c0.13,0,0.21,0.03,0.25,0.09s0.06,0.23,0.06,0.51c0,0.2-0.02,0.32-0.06,0.36
			s-0.15,0.06-0.32,0.06c-1.54,0.03-2.36,0.88-2.46,2.57c-0.03,0.35-0.05,0.99-0.08,1.91s-0.05,1.89-0.08,2.91s-0.04,2-0.06,2.93
			c-0.01,0.93-0.02,1.59-0.02,1.97c0,0.96,0.03,1.82,0.08,2.59s0.1,1.25,0.15,1.46c0.02,0.03,0.04,0.06,0.04,0.11
			c0,0.1-0.15,0.22-0.45,0.36s-0.55,0.21-0.76,0.21c-0.03,0-0.1-0.06-0.23-0.19c-0.4-0.61-0.8-1.17-1.19-1.68s-0.93-1.17-1.61-1.97
			s-1.58-1.8-2.68-3.01c-1.11-1.21-2.58-2.81-4.42-4.8c-0.4-0.43-0.75-0.82-1.04-1.17s-0.61-0.78-0.96-1.29
			c-0.03,0.55-0.04,0.89-0.04,1s0,0.23,0,0.36c0,4.49,0.04,7.45,0.11,8.89c0.02,0.5,0.08,0.91,0.17,1.23s0.24,0.57,0.45,0.76
			c0.21,0.19,0.49,0.33,0.83,0.42s0.8,0.16,1.38,0.21c0.2,0,0.3,0.14,0.3,0.42c0,0.2-0.03,0.33-0.08,0.4s-0.16,0.09-0.34,0.09
			l-7.03-0.04c-0.28,0-0.44-0.02-0.47-0.06c-0.04-0.04-0.06-0.17-0.06-0.4c0-0.2,0.03-0.31,0.09-0.34c0.06-0.03,0.27-0.06,0.62-0.11
			c0.78-0.13,1.34-0.4,1.66-0.81c0.33-0.42,0.52-1.1,0.57-2.06c0.02-0.23,0.04-0.65,0.06-1.27c0.01-0.62,0.02-1.31,0.04-2.08
			c0.01-0.77,0.02-1.56,0.04-2.38s0.02-1.53,0.02-2.14c0-0.78,0-1.4,0-1.85s-0.02-0.81-0.06-1.06s-0.09-0.45-0.15-0.61
			c-0.06-0.15-0.15-0.31-0.25-0.49c-0.23-0.38-0.48-0.64-0.76-0.78c-0.28-0.14-0.78-0.25-1.51-0.32c-0.18,0-0.26-0.13-0.26-0.38
			c0-0.28,0.02-0.43,0.08-0.47s0.23-0.06,0.53-0.06h3.71c0.23,0,0.4,0.01,0.51,0.02s0.21,0.04,0.3,0.08s0.18,0.11,0.26,0.23
			c0.09,0.11,0.2,0.26,0.32,0.43c0.48,0.66,0.94,1.27,1.38,1.83c0.44,0.57,0.91,1.14,1.4,1.72c0.49,0.58,1.03,1.2,1.63,1.85
			c0.59,0.66,1.28,1.4,2.06,2.23c0.43,0.45,0.84,0.9,1.23,1.34s0.78,0.88,1.15,1.3l1.1,1.32c0.1,0.1,0.19,0.2,0.26,0.28
			c0.08,0.09,0.15,0.18,0.23,0.28V27.94z"/>
	</g>
	<g>
		<path d="M114.18,56.92c-1.7,0-3.16,0.6-4.38,1.78c-1.22,1.19-1.87,2.63-1.93,4.33v52.55c0,3.94,0.24,7.67,0.71,11.2l0.2,1.83
			h-0.92l-55.5-59.27v50.71c0.07,2.38,1.12,4.14,3.16,5.3c0.95,0.54,1.97,0.81,3.05,0.81h1.94v1.02H39.53v-1.02h1.93
			c1.7,0,3.16-0.59,4.38-1.78s1.83-2.66,1.83-4.43V67.1c0-4.14-0.24-7.84-0.71-11.1l-0.2-1.63h1.02l55.5,59.27V63.13
			c-0.07-1.76-0.71-3.24-1.93-4.43s-2.68-1.78-4.38-1.78h-1.94V55.9h20.98v1.02C116.01,56.92,114.18,56.92,114.18,56.92z"/>
		<path d="M195.44,56.92h-1.63c-1.43,0-2.67,0.46-3.72,1.38c-1.05,0.92-1.61,2.05-1.68,3.41v40.33c0,7.94-2.51,14.36-7.54,19.25
			s-11.71,7.33-20.06,7.33c-8.35,0-15.12-2.43-20.32-7.28c-5.19-4.85-7.79-11.25-7.79-19.2V62.01c0-2.04-0.88-3.53-2.65-4.48
			c-0.81-0.41-1.73-0.61-2.75-0.61h-1.63V55.9h20.67v1.02h-1.63c-1.49,0-2.75,0.46-3.77,1.38c-1.02,0.92-1.56,2.09-1.63,3.51v38.9
			c0,7.4,1.99,13.38,5.96,17.92c3.97,4.55,9.28,6.82,15.94,6.82c6.65,0,12.05-2.15,16.19-6.47c4.14-4.31,6.21-9.96,6.21-16.96V61.81
			c-0.07-1.43-0.61-2.6-1.63-3.51c-1.02-0.92-2.28-1.38-3.77-1.38h-1.63V55.9h18.84v1.02H195.44z"/>
		<path d="M278.44,56.92c-1.7,0-3.16,0.6-4.38,1.78c-1.22,1.19-1.87,2.63-1.93,4.33v52.55c0,3.94,0.24,7.67,0.71,11.2l0.2,1.83
			h-0.92l-55.5-59.27v50.71c0.07,2.38,1.12,4.14,3.16,5.3c0.95,0.54,1.97,0.81,3.05,0.81h1.94v1.02h-20.98v-1.02h1.93
			c1.7,0,3.16-0.59,4.38-1.78s1.83-2.66,1.83-4.43V67.1c0-4.14-0.24-7.84-0.71-11.1l-0.2-1.63h1.02l55.5,59.27V63.13
			c-0.07-1.76-0.71-3.24-1.93-4.43s-2.68-1.78-4.38-1.78h-1.94V55.9h20.98v1.02C280.27,56.92,278.44,56.92,278.44,56.92z"/>
		<path d="M356.25,126.17h0.81v1.02h-22.91v-1.02h0.92c1.43,0,2.5-0.46,3.21-1.38s1.07-1.78,1.07-2.6s-0.14-1.63-0.41-2.44
			l-6.52-17.31h-27.5l-6.82,17.42c-0.27,0.81-0.41,1.61-0.41,2.39s0.36,1.63,1.07,2.55c0.71,0.92,1.78,1.38,3.21,1.38h0.92v1.02
			h-20.47v-1.02h0.92c1.7,0,3.36-0.54,4.99-1.63s2.95-2.68,3.97-4.79l23.02-54.79c2.51-5.5,3.77-9,3.77-10.49h0.92l27.29,65.28
			c0.95,2.11,2.24,3.7,3.87,4.79C352.78,125.63,354.48,126.17,356.25,126.17z M306.14,99.39h25.05L318.97,66.7L306.14,99.39z"/>
	</g>
	<path d="M374.04,54.48c6.18,0,11.03,1.53,14.56,4.58c3.53,3.06,5.29,7.3,5.29,12.73c0,4.21-1.36,7.98-4.07,11.3
		c-2.24,2.78-4.48,5.19-6.72,7.23c-4.01,3.67-6.42,6.89-7.23,9.67c-0.48,1.36-0.71,2.87-0.71,4.53c0,1.67,0.58,3.28,1.73,4.84
		l-0.61,0.51c-2.99-2.78-4.48-6.04-4.48-9.78c0-3.06,1.7-6.55,5.09-10.49c1.43-1.63,2.85-3.33,4.28-5.09
		c3.39-4.14,5.09-8.38,5.09-12.73c0-6.04-1.9-10.22-5.7-12.53c-1.83-1.15-4.01-1.73-6.52-1.73c-4.07,0-7.26,1.38-9.57,4.12
		c-2.31,2.75-3.46,6.4-3.46,10.95c0,0.2,0,0.41,0,0.61h-1.02l-1.02-9.67c1.56-2.85,3.65-5.08,6.26-6.67
		C367.84,55.28,370.78,54.48,374.04,54.48z M378.52,126.27c-0.88,0.88-1.95,1.32-3.21,1.32c-1.26,0-2.34-0.44-3.26-1.32
		s-1.38-1.97-1.38-3.26s0.46-2.38,1.38-3.26c0.92-0.88,2-1.32,3.26-1.32s2.32,0.44,3.21,1.32c0.88,0.88,1.32,1.97,1.32,3.26
		C379.84,124.3,379.4,125.39,378.52,126.27z"/>
	<g>
		<path d="M22.05,40.21c-2.02,3.74-5.25,5.61-9.71,5.61c-2.27,0-4.33-0.42-6.18-1.26c-3.82-1.77-5.73-4.92-5.73-9.45
			c0-2.6,0.84-4.94,2.52-7c1.43-1.72,2.81-3.21,4.16-4.47c2.48-2.27,3.97-4.26,4.47-5.99c0.34-0.84,0.5-1.77,0.5-2.8
			s-0.38-2.03-1.13-2.99l0.38-0.31c1.89,1.72,2.84,3.74,2.84,6.05c0,1.89-1.07,4.05-3.21,6.49c-0.88,1.01-1.76,2.06-2.65,3.15
			c-2.1,2.56-3.15,5.21-3.15,7.94s0.67,4.88,2.02,6.43c1.34,1.55,3.25,2.33,5.7,2.33s4.39-0.85,5.8-2.55
			c1.41-1.7,2.11-3.96,2.11-6.77c0-0.13,0-0.25,0-0.38h0.63L22.05,40.21z M9.95,1.39c0.54-0.55,1.21-0.82,2.01-0.82
			s1.47,0.27,2.02,0.82s0.82,1.22,0.82,2.02s-0.27,1.47-0.82,2.02c-0.55,0.54-1.22,0.81-2.02,0.81s-1.47-0.27-2.02-0.82
			C9.4,4.88,9.13,4.2,9.13,3.41C9.13,2.61,9.4,1.94,9.95,1.39z"/>
	</g>
	<path d="M377.07,156.27c0,0-83.66-1.25-111.13-1.25c-36.21,0-108.62,0-144.83,0c-27.43,0-110.96,1.25-110.96,1.25
		s1.25-18.06,1.25-23.66c0-19.31,0-77.25,0-77.25h1v98.66h362.42v-16.88h1L377.07,156.27z"/>
	<polygon points="375.82,44.93 374.82,44.93 374.82,24.78 265.94,24.78 265.94,23.78 377.07,22.53 	"/>
</g>
<g>
	<path d="M164.76,187.8c0,1.22-0.14,2.21-0.43,2.96c-0.28,0.76-0.76,1.4-1.43,1.92c-0.67,0.52-1.61,0.97-2.82,1.34l-0.45-1.19
		c0.79-0.31,1.36-0.62,1.69-0.93c0.33-0.31,0.57-0.7,0.7-1.17c0.13-0.47,0.2-1.1,0.2-1.89v-15.2c0-0.79-0.04-1.32-0.12-1.61
		c-0.08-0.29-0.2-0.51-0.38-0.66s-0.54-0.3-1.09-0.45v-0.66h5.71v0.66c-0.4,0.1-0.68,0.2-0.86,0.3c-0.18,0.1-0.32,0.22-0.42,0.37
		c-0.1,0.15-0.18,0.37-0.23,0.67s-0.07,0.76-0.07,1.38V187.8z"/>
	<path d="M182.95,182.34c0,0.98-0.09,1.83-0.27,2.54c-0.17,0.68-0.43,1.28-0.77,1.8c-0.32,0.47-0.71,0.87-1.18,1.2
		s-1.04,0.59-1.7,0.78s-1.45,0.28-2.35,0.28c-1.09,0-2.03-0.12-2.81-0.37c-0.78-0.24-1.42-0.64-1.93-1.2
		c-0.51-0.55-0.88-1.21-1.1-1.96s-0.34-1.71-0.34-2.87v-8.9c0-0.7-0.02-1.18-0.07-1.43c-0.05-0.25-0.11-0.44-0.2-0.59
		c-0.09-0.14-0.21-0.27-0.37-0.37c-0.16-0.1-0.46-0.21-0.91-0.33v-0.66h5.68v0.66c-0.5,0.13-0.86,0.27-1.05,0.43
		c-0.2,0.16-0.33,0.39-0.41,0.71c-0.07,0.32-0.11,0.84-0.11,1.58v9.57c0,0.87,0.09,1.61,0.28,2.2s0.44,1.06,0.78,1.39
		c0.33,0.33,0.73,0.57,1.19,0.72c0.46,0.15,1.03,0.22,1.72,0.22c0.63,0,1.18-0.11,1.66-0.33c0.48-0.22,0.88-0.56,1.2-1.01
		c0.32-0.45,0.54-1,0.66-1.66s0.18-1.54,0.18-2.65v-8.45c0-0.79-0.04-1.32-0.12-1.61c-0.08-0.29-0.2-0.51-0.38-0.66
		s-0.54-0.3-1.09-0.45v-0.66h5.4v0.66c-0.52,0.14-0.88,0.28-1.08,0.45c-0.19,0.16-0.33,0.4-0.4,0.7c-0.07,0.31-0.11,0.83-0.11,1.57
		V182.34z"/>
	<path d="M199.96,170.27v4.08h-1.33c-0.13-0.44-0.27-0.83-0.42-1.16c-0.14-0.33-0.29-0.61-0.45-0.84s-0.32-0.41-0.51-0.54
		c-0.19-0.13-0.4-0.23-0.66-0.28c-0.25-0.05-0.55-0.07-0.91-0.07h-4.27v7.09h2.89c0.4,0,0.71-0.06,0.93-0.17
		c0.23-0.11,0.41-0.3,0.56-0.57s0.29-0.69,0.43-1.27h1.27v5.19h-1.27c-0.13-0.54-0.27-0.95-0.42-1.22
		c-0.15-0.28-0.34-0.47-0.55-0.59s-0.53-0.18-0.95-0.18h-2.89v7.8h4.21c0.44,0,0.8-0.04,1.08-0.11c0.27-0.08,0.51-0.21,0.71-0.39
		s0.37-0.43,0.53-0.72c0.15-0.3,0.28-0.61,0.39-0.93c0.1-0.32,0.25-0.79,0.43-1.4h1.34l-0.26,4.75h-12.52v-0.66
		c0.56-0.14,0.93-0.3,1.12-0.48s0.31-0.43,0.37-0.75c0.06-0.32,0.09-0.82,0.09-1.49v-11.7c0-0.62-0.02-1.08-0.07-1.36
		c-0.05-0.28-0.12-0.5-0.22-0.66c-0.1-0.16-0.24-0.28-0.41-0.38c-0.17-0.09-0.46-0.2-0.88-0.32v-0.66H199.96z"/>
	<path d="M216.19,188.66l-1.05,0.28l-0.99-1.06c-0.59,0.36-1.2,0.63-1.84,0.8c-0.64,0.17-1.38,0.26-2.2,0.26
		c-2.28,0-4-0.78-5.15-2.35c-1.15-1.56-1.73-3.89-1.73-6.97c0-1.92,0.32-3.61,0.95-5.06c0.63-1.45,1.54-2.57,2.72-3.35
		c1.18-0.78,2.57-1.17,4.17-1.17c0.84,0,1.65,0.05,2.42,0.14s1.64,0.26,2.58,0.49v3.72h-1.34c-0.24-0.81-0.53-1.44-0.87-1.9
		c-0.33-0.46-0.73-0.78-1.2-0.97c-0.46-0.19-1.05-0.29-1.76-0.29c-0.98,0-1.84,0.32-2.58,0.95s-1.31,1.56-1.72,2.79
		c-0.41,1.23-0.62,2.72-0.62,4.46c0,1.77,0.17,3.28,0.52,4.53c0.35,1.25,0.86,2.2,1.55,2.83c0.68,0.64,1.53,0.95,2.53,0.95
		c1.06,0,1.85-0.23,2.37-0.7c0.51-0.46,0.77-1.18,0.77-2.14v-0.81c0-0.81-0.04-1.4-0.13-1.76c-0.08-0.36-0.24-0.64-0.45-0.84
		c-0.22-0.2-0.57-0.36-1.07-0.49v-0.66h5.46v0.66c-0.32,0.11-0.57,0.23-0.73,0.37c-0.16,0.14-0.29,0.31-0.37,0.52
		c-0.09,0.21-0.14,0.46-0.18,0.76c-0.03,0.3-0.05,0.73-0.05,1.29V188.66z"/>
	<path d="M227.38,188.94c-1.08,0-2.07-0.18-2.96-0.53c-0.89-0.36-1.65-0.91-2.29-1.66c-0.63-0.75-1.13-1.71-1.47-2.89
		s-0.52-2.57-0.52-4.21c0-2.01,0.31-3.74,0.92-5.18c0.61-1.44,1.49-2.54,2.63-3.29c1.14-0.75,2.46-1.13,3.97-1.13
		c1.61,0,2.96,0.35,4.05,1.06c1.09,0.71,1.92,1.75,2.47,3.12s0.83,3.05,0.83,5.02c0,2.11-0.32,3.89-0.95,5.34
		c-0.63,1.45-1.52,2.54-2.67,3.26C230.25,188.58,228.91,188.94,227.38,188.94z M222.93,179.27c0,2.77,0.4,4.87,1.21,6.32
		s1.99,2.16,3.54,2.16c0.98,0,1.82-0.31,2.5-0.94c0.69-0.63,1.2-1.54,1.54-2.75c0.34-1.21,0.51-2.62,0.51-4.23
		c0-1.96-0.2-3.59-0.6-4.89c-0.4-1.29-0.95-2.23-1.64-2.82s-1.5-0.88-2.42-0.88c-0.81,0-1.51,0.19-2.09,0.57
		c-0.58,0.38-1.06,0.92-1.45,1.62c-0.38,0.7-0.66,1.54-0.84,2.54C223.02,176.95,222.93,178.05,222.93,179.27z"/>
	<path d="M244.35,188.72v-0.66c0.41-0.11,0.71-0.21,0.89-0.31c0.18-0.1,0.32-0.23,0.42-0.38c0.1-0.15,0.17-0.37,0.22-0.66
		c0.04-0.29,0.07-0.74,0.07-1.37v-11.7c0-0.63-0.02-1.09-0.07-1.37c-0.05-0.28-0.12-0.5-0.22-0.66s-0.24-0.28-0.41-0.37
		c-0.17-0.09-0.47-0.2-0.89-0.32v-0.66h5.92c1.7,0,3.1,0.19,4.19,0.56c1.09,0.37,2,0.93,2.75,1.66c0.75,0.73,1.31,1.64,1.68,2.72
		c0.37,1.09,0.55,2.38,0.55,3.89c0,1.52-0.17,2.87-0.52,4.02c-0.35,1.16-0.85,2.13-1.52,2.91c-0.58,0.69-1.29,1.25-2.12,1.69
		c-0.69,0.36-1.5,0.62-2.41,0.77c-0.91,0.15-2.12,0.23-3.62,0.23H244.35z M248.47,187.47c0.36,0.04,0.89,0.05,1.6,0.05
		c0.76,0,1.43-0.06,2.03-0.19c0.59-0.13,1.14-0.33,1.62-0.6c0.49-0.27,0.92-0.65,1.31-1.13c0.39-0.48,0.7-1.04,0.95-1.66
		s0.42-1.32,0.53-2.09c0.11-0.77,0.17-1.6,0.17-2.51c0-1.83-0.26-3.33-0.79-4.51s-1.27-2.04-2.23-2.58s-2.11-0.81-3.44-0.81
		c-0.61,0-1.2,0.02-1.75,0.05V187.47z"/>
	<path d="M275.33,170.27v4.08H274c-0.13-0.44-0.27-0.83-0.42-1.16c-0.14-0.33-0.29-0.61-0.45-0.84s-0.32-0.41-0.51-0.54
		c-0.19-0.13-0.4-0.23-0.66-0.28c-0.25-0.05-0.55-0.07-0.91-0.07h-4.27v7.09h2.89c0.4,0,0.71-0.06,0.93-0.17
		c0.23-0.11,0.41-0.3,0.56-0.57s0.29-0.69,0.43-1.27h1.27v5.19h-1.27c-0.13-0.54-0.27-0.95-0.42-1.22
		c-0.15-0.28-0.34-0.47-0.55-0.59s-0.53-0.18-0.95-0.18h-2.89v7.8H271c0.44,0,0.8-0.04,1.08-0.11c0.27-0.08,0.51-0.21,0.71-0.39
		s0.37-0.43,0.53-0.72c0.15-0.3,0.28-0.61,0.39-0.93c0.1-0.32,0.25-0.79,0.43-1.4h1.34l-0.26,4.75h-12.52v-0.66
		c0.56-0.14,0.93-0.3,1.12-0.48s0.31-0.43,0.37-0.75c0.06-0.32,0.09-0.82,0.09-1.49v-11.7c0-0.62-0.02-1.08-0.07-1.36
		c-0.05-0.28-0.12-0.5-0.22-0.66c-0.1-0.16-0.24-0.28-0.41-0.38c-0.17-0.09-0.46-0.2-0.88-0.32v-0.66H275.33z"/>
	<path d="M297.17,170.66v3.75h-1.34c-0.22-0.78-0.49-1.41-0.83-1.87c-0.33-0.46-0.72-0.8-1.16-0.99s-0.97-0.3-1.6-0.3
		c-0.93,0-1.76,0.31-2.48,0.93c-0.73,0.62-1.3,1.55-1.71,2.79s-0.62,2.74-0.62,4.5c0,1.77,0.17,3.28,0.51,4.52
		c0.34,1.25,0.85,2.19,1.51,2.83s1.49,0.95,2.46,0.95c0.74,0,1.34-0.11,1.81-0.32s0.86-0.55,1.18-1.01
		c0.32-0.46,0.62-1.14,0.91-2.03h1.34v3.87c-0.85,0.23-1.72,0.39-2.6,0.51c-0.89,0.11-1.86,0.17-2.93,0.17
		c-2.29,0-4.02-0.78-5.19-2.33s-1.76-3.86-1.76-6.94c0-1.93,0.3-3.62,0.91-5.07c0.61-1.45,1.5-2.57,2.68-3.37
		c1.18-0.79,2.59-1.19,4.23-1.19c0.82,0,1.58,0.04,2.27,0.13C295.48,170.26,296.28,170.42,297.17,170.66z"/>
	<path d="M309.42,188.72v-0.66c0.45-0.09,0.79-0.19,1.01-0.3c0.22-0.11,0.38-0.26,0.49-0.45s0.16-0.45,0.16-0.78
		c0-0.31-0.04-0.64-0.11-0.99s-0.18-0.75-0.31-1.2l-0.5-1.74h-6.3l-0.46,1.33c-0.24,0.67-0.39,1.17-0.46,1.51s-0.11,0.65-0.11,0.93
		c0,0.54,0.14,0.94,0.41,1.19c0.28,0.25,0.7,0.42,1.26,0.5v0.66h-5.77v-0.66c0.5-0.08,0.94-0.37,1.32-0.88s0.74-1.23,1.09-2.16
		l5.64-14.97h2.14l4.6,15.08c0.22,0.7,0.41,1.24,0.57,1.61c0.17,0.37,0.37,0.66,0.6,0.87c0.23,0.21,0.55,0.36,0.96,0.46v0.66H309.42
		z M304.23,181.42h5.65l-2.57-8.72L304.23,181.42z"/>
	<path d="M321.67,180.71v4.6c0,0.65,0.03,1.12,0.07,1.41c0.05,0.29,0.12,0.51,0.22,0.66c0.1,0.15,0.23,0.27,0.41,0.37
		c0.17,0.09,0.46,0.2,0.88,0.32v0.66h-5.71v-0.66c0.56-0.14,0.93-0.3,1.12-0.48s0.31-0.43,0.37-0.75c0.06-0.32,0.09-0.82,0.09-1.49
		v-11.7c0-0.62-0.02-1.08-0.07-1.36c-0.05-0.28-0.12-0.5-0.22-0.66c-0.1-0.16-0.24-0.28-0.41-0.38c-0.17-0.09-0.46-0.2-0.88-0.32
		v-0.66h6.69c2.11,0,3.69,0.38,4.73,1.15c1.05,0.77,1.57,1.96,1.57,3.57c0,1.24-0.34,2.29-1.02,3.15s-1.7,1.54-3.06,2.03v0.11
		c0.55,0.23,1.02,0.55,1.41,0.97c0.39,0.42,0.83,1.07,1.31,1.95l1.22,2.22c0.35,0.65,0.65,1.15,0.91,1.49
		c0.25,0.34,0.51,0.6,0.77,0.78c0.26,0.18,0.61,0.31,1.04,0.38v0.66h-3.75c-0.34-0.48-0.67-0.99-0.97-1.54
		c-0.31-0.55-0.61-1.11-0.91-1.68l-1.19-2.26c-0.36-0.69-0.66-1.19-0.89-1.51c-0.23-0.33-0.44-0.55-0.64-0.68
		c-0.19-0.13-0.4-0.22-0.62-0.27c-0.22-0.05-0.55-0.07-0.99-0.07H321.67z M321.67,171.51v8.03h1.53c0.78,0,1.42-0.06,1.91-0.17
		c0.49-0.11,0.94-0.33,1.35-0.64c0.42-0.32,0.75-0.75,0.99-1.32s0.37-1.25,0.37-2.08c0-0.86-0.15-1.57-0.44-2.14
		c-0.29-0.57-0.74-1-1.33-1.3c-0.59-0.3-1.4-0.45-2.41-0.45C322.84,171.46,322.18,171.47,321.67,171.51z"/>
	<path d="M333.14,170.27h14.63v4.71h-1.33c-0.2-0.78-0.39-1.39-0.59-1.84c-0.19-0.45-0.4-0.79-0.62-1.03
		c-0.22-0.23-0.45-0.4-0.7-0.5c-0.25-0.1-0.62-0.15-1.12-0.15h-1.72v13.85c0,0.53,0.03,0.96,0.09,1.27
		c0.06,0.32,0.15,0.57,0.27,0.75c0.12,0.18,0.29,0.33,0.49,0.43c0.21,0.1,0.53,0.21,0.97,0.3v0.66h-6.18v-0.66
		c0.27-0.06,0.51-0.13,0.72-0.2c0.21-0.07,0.38-0.16,0.51-0.26c0.13-0.1,0.24-0.24,0.32-0.4s0.15-0.38,0.2-0.66
		c0.05-0.28,0.07-0.69,0.07-1.23v-13.85h-1.7c-0.42,0-0.77,0.04-1.05,0.12c-0.28,0.08-0.53,0.25-0.76,0.51
		c-0.24,0.26-0.45,0.62-0.64,1.1c-0.19,0.47-0.38,1.07-0.55,1.79h-1.34V170.27z"/>
	<path d="M357.24,188.72v-0.66c0.45-0.09,0.79-0.19,1.01-0.3c0.22-0.11,0.38-0.26,0.49-0.45s0.16-0.45,0.16-0.78
		c0-0.31-0.04-0.64-0.11-0.99s-0.18-0.75-0.31-1.2l-0.5-1.74h-6.3l-0.46,1.33c-0.24,0.67-0.39,1.17-0.46,1.51s-0.11,0.65-0.11,0.93
		c0,0.54,0.14,0.94,0.41,1.19c0.28,0.25,0.7,0.42,1.26,0.5v0.66h-5.77v-0.66c0.5-0.08,0.94-0.37,1.32-0.88s0.74-1.23,1.09-2.16
		l5.64-14.97h2.14l4.6,15.08c0.22,0.7,0.41,1.24,0.57,1.61c0.17,0.37,0.37,0.66,0.6,0.87c0.23,0.21,0.55,0.36,0.96,0.46v0.66H357.24
		z M352.05,181.42h5.65l-2.57-8.72L352.05,181.42z"/>
	<path d="M366.19,184.52c0.18,0.79,0.42,1.42,0.73,1.88c0.31,0.46,0.7,0.8,1.19,1.02c0.49,0.22,1.11,0.33,1.88,0.33
		c1.05,0,1.86-0.28,2.43-0.83s0.84-1.35,0.84-2.41c0-0.68-0.12-1.24-0.35-1.7c-0.23-0.46-0.62-0.89-1.15-1.3s-1.34-0.88-2.43-1.42
		c-1.05-0.52-1.89-1.03-2.5-1.54c-0.61-0.5-1.07-1.04-1.37-1.63s-0.45-1.23-0.45-1.92c0-1.01,0.24-1.89,0.71-2.63
		c0.47-0.74,1.17-1.32,2.08-1.72c0.92-0.41,1.96-0.61,3.14-0.61c0.69,0,1.35,0.04,2.01,0.11c0.65,0.07,1.47,0.23,2.45,0.49v3.65
		h-1.34c-0.21-0.79-0.47-1.41-0.78-1.85c-0.32-0.44-0.69-0.75-1.11-0.93c-0.42-0.18-0.97-0.26-1.65-0.26
		c-0.59,0-1.11,0.11-1.58,0.33c-0.46,0.22-0.83,0.54-1.1,0.98s-0.41,0.96-0.41,1.56c0,0.64,0.11,1.18,0.34,1.62
		c0.23,0.44,0.59,0.85,1.08,1.23c0.49,0.38,1.21,0.8,2.16,1.27c1.15,0.58,2.05,1.11,2.68,1.61s1.13,1.06,1.49,1.7
		c0.36,0.64,0.53,1.38,0.53,2.22c0,0.95-0.15,1.75-0.45,2.4c-0.3,0.65-0.71,1.19-1.24,1.6c-0.53,0.41-1.16,0.71-1.89,0.89
		c-0.74,0.18-1.54,0.28-2.41,0.28c-1.42,0-3.05-0.24-4.9-0.72v-3.71H366.19z"/>
</g>
</svg>
