<?xml version="1.0" encoding="utf-8"?>
<!-- Generator: Adobe Illustrator 25.3.0, SVG Export Plug-In . SVG Version: 6.00 Build 0)  -->
<svg version="1.1" xmlns="http://www.w3.org/2000/svg" xmlns:xlink="http://www.w3.org/1999/xlink" x="0px" y="0px"
	 viewBox="0 0 920.8 421.6" xml:space="preserve">
<style type="text/css">
	.logojuegocartasst0{enable-background:new    ;}
</style>
<g>
	<path d="M105,77.5c-4-0.1-7.9-0.9-11.5-2.4c-3.4-1.4-6.4-3.4-9-6c-2.6-2.6-4.6-5.6-5.9-9c-1.4-3.6-2.2-7.4-2.1-11.3
		c0-4,0.7-8,2.3-11.6c1.5-3.5,3.7-6.7,6.4-9.3c2.8-2.7,6.1-4.8,9.7-6.2c3.9-1.5,8-2.2,12.1-2.2c4-0.1,8.1,0.7,11.8,2.1
		c3.4,1.3,6.6,3.4,9.2,6c2.6,2.6,4.6,5.7,6,9.1c1.5,3.7,2.2,7.7,2.2,11.7c0,7.1-2,13.2-5.9,18.1c-3.9,4.9-9.5,8.3-16.6,10.2
		c3.6,4.2,7.8,7.8,12.5,10.6c3.6,2.3,7.8,3.5,12.1,3.7c0.5,0,1.1,0,1.6-0.1c0.6-0.1,1.2-0.3,1.8-0.4c0.1-0.1,0.2-0.1,0.3-0.1
		c0.1,0,0.3,0.1,0.4,0.3c0.1,0.2,0.2,0.5,0.2,0.7c0,0.3-0.3,0.6-0.9,0.8c-0.8,0.3-1.5,0.6-2.3,0.8c-1,0.3-2,0.5-3.1,0.6
		c-1.1,0.1-2.1,0.2-3.2,0.2c-5.1-0.1-10.1-1.5-14.5-4.2C113.3,86.5,108.7,82.4,105,77.5z M104.3,22.8c-2.8,0-5.5,0.5-8,1.7
		c-2.4,1.1-4.5,2.8-6.2,4.8c-1.8,2.2-3.1,4.8-3.9,7.5c-0.9,3.2-1.4,6.5-1.4,9.8c0,3.8,0.5,7.5,1.7,11.1c1,3.2,2.7,6.1,4.8,8.7
		c2,2.4,4.5,4.4,7.3,5.7c5.4,2.5,11.6,2.7,17.1,0.5c2.4-0.9,4.6-2.4,6.3-4.3c2-2.1,3.5-4.6,4.4-7.4c1-3.3,1.5-6.7,1.5-10.1
		c0-3.9-0.5-7.7-1.7-11.4c-1-3.2-2.7-6.2-4.8-8.8c-2-2.4-4.6-4.4-7.4-5.7C110.9,23.5,107.6,22.8,104.3,22.8L104.3,22.8z"/>
	<path d="M144.2,35.4h1.1c0.6,0,1.3,0,2,0h9.4c1.4,0,2.8,0,4.1-0.1h0.8c0.3,0,0.7,0,1,0.2c0.2,0.2,0.3,0.5,0.2,0.7
		c0,0.3,0,0.6-0.1,0.9c-0.1,0.2-0.3,0.2-0.7,0.2c-1.4,0-2.8,0.2-4.1,0.6c-0.8,0.3-1.4,0.9-1.7,1.6c-0.1,0.3-0.2,0.7-0.3,1.1
		c-0.1,0.4-0.1,1.1-0.2,2.1s-0.1,2.4-0.1,4.1V54c0,2.2,0,4,0,5.5s0.1,2.7,0.2,3.7c0.1,0.9,0.3,1.7,0.5,2.5c0.2,0.7,0.4,1.3,0.8,1.9
		c1.7,3.3,5.3,5,10.6,5c2.3,0.1,4.7-0.4,6.8-1.3c1.7-0.7,3.2-2,4.1-3.6c0.7-1.3,1.1-2.7,1.3-4.1c0.3-2.3,0.4-4.6,0.4-6.8
		c0-1.8,0-3.5-0.1-5.3s-0.1-3.3-0.2-4.8s-0.2-2.8-0.3-3.9c0-0.8-0.1-1.5-0.3-2.3c-0.4-1.8-1.9-2.7-4.5-2.9c-0.6,0-1.1-0.1-1.7-0.3
		c-0.2-0.1-0.3-0.4-0.3-1s0-0.7,0.1-0.8c0.3-0.1,0.6-0.2,0.8-0.1h0.7l1.9,0.1h5.2c0.9,0,1.8,0,2.6,0l2.3-0.1c0.6,0,1.1,0,1.4,0
		c0.2-0.1,0.4-0.1,0.7-0.1h0.5c0.4-0.1,0.7,0.2,0.8,0.6c0,0.1,0,0.1,0,0.2c0,0.5-0.1,0.9-0.2,1c-0.5,0.2-1.1,0.3-1.6,0.3
		c-0.9,0.1-1.7,0.4-2.4,0.9c-0.5,0.7-0.9,1.5-1,2.3c-0.1,0.4-0.2,0.9-0.3,1.3c-0.1,0.4-0.1,0.9-0.1,1.4s-0.1,1.2-0.1,1.9
		s-0.1,1.7-0.1,2.8l-0.2,9.4c-0.1,2.1-0.2,3.8-0.4,5.3c-0.1,1.3-0.4,2.6-0.7,3.9c-0.3,1.1-0.7,2.1-1.2,3c-0.6,0.9-1.2,1.8-1.9,2.6
		c-3.1,3.4-7.7,5.1-13.9,5.1c-4.5,0-8.1-0.9-10.9-2.6c-2.7-1.6-4.6-4.3-5.2-7.4c-0.2-0.8-0.3-1.5-0.4-2.1s-0.2-1.6-0.2-3
		s-0.1-3.5-0.1-6.2V44.5c-0.1-1.5-0.1-2.8-0.3-3.7c-0.1-0.7-0.3-1.4-0.7-2.1c-0.3-0.5-0.9-0.8-1.5-0.9c-0.9-0.2-1.8-0.3-2.7-0.3
		c-0.6,0.1-1.1,0-1.7-0.2c-0.2-0.1-0.3-0.4-0.3-0.9c0-0.3,0-0.6,0.1-0.9c0.1-0.1,0.3-0.2,0.7-0.2L144.2,35.4z"/>
	<path d="M227.3,35.2c0.4,0,0.8,0,1.1,0.1c0.1,0.1,0.2,0.3,0.2,0.6c0,0.2,0,0.5,0,0.8c0,0.3-0.1,0.5-0.1,0.8s-0.1,0.8-0.2,1.5
		s-0.1,1.3-0.2,2l-0.2,2c-0.1,0.7-0.1,1.3-0.1,1.7c0.1,0.5,0,1-0.2,1.4c-0.3,0.2-0.6,0.3-1,0.3c-0.5,0-0.8-0.1-0.9-0.3
		c-0.2-0.5-0.2-1-0.2-1.5c0-1.1-0.2-2.2-0.6-3.3c-0.3-0.9-1-1.6-1.8-2c-1.2-0.6-2.4-0.9-3.7-0.9c-1.6-0.1-3.6-0.2-6.1-0.2
		c-1.2,0-2.1,0-2.8,0c-0.5,0-1,0.1-1.6,0.2c-0.3,0-0.5,0.2-0.7,0.4c-0.1,0.2-0.2,0.5-0.3,0.7c0,0.1-0.1,4.9-0.3,14.4
		c3.5,0,6.2,0,8.2-0.1c1.5,0,3-0.2,4.5-0.6c0.8-0.2,1.5-0.7,1.9-1.4c0.3-0.9,0.5-1.7,0.6-2.7c0.1-0.6,0.4-0.9,0.9-0.9
		c0.3,0,0.6,0,0.9,0.1c0.1,0.1,0.2,0.3,0.2,0.6v0.8c-0.1,0.6-0.1,1.4-0.1,2.5s-0.1,2.1-0.1,3.2v2.3c0,0.3,0,0.8,0.1,1.3
		s0.1,1.2,0.1,2.1v0.6c0,0.4-0.1,0.7-0.2,0.8c-0.3,0.1-0.6,0.2-0.9,0.1c-0.6,0-0.9-0.3-1-1c-0.1-2.4-0.8-3.9-2.2-4.4l-1.1-0.3
		c-0.3-0.1-0.7-0.1-1-0.2c-0.4,0-0.9,0-1.5,0h-9.4v4.1c0,2.8,0,5,0,6.6c0,1.6,0.1,2.7,0.1,3.4c0,0.9,0.4,1.7,1.1,2.3
		c1.1,0.5,2.3,0.7,3.5,0.6c2.3,0,4.6-0.1,6.9-0.3c1.5-0.1,3-0.6,4.4-1.2c1.1-0.6,2-1.4,2.6-2.5c0.7-1.3,1.2-2.7,1.5-4.2
		c0.2-0.5,0.4-0.8,0.7-0.8c1.1,0,1.7,0.4,1.7,1.2c-0.1,1-0.3,2-0.5,3c-0.4,1.5-0.8,3.2-1.2,4.9c-0.2,0.9-0.5,1.7-0.8,2.6
		c-0.2,0.3-0.5,0.5-0.8,0.4h-0.4c-0.2,0-0.4,0-0.7-0.1h-3.6l-5-0.1h-4.7l-15,0.1c-0.5,0.1-0.9,0.1-1.4,0.1h-1
		c-0.5,0-0.8-0.2-0.8-0.7c0-0.3,0-0.6,0.1-0.9c0.2-0.2,0.4-0.2,0.6-0.3c1.4,0,2.8-0.3,4.1-0.8c0.8-0.4,1.4-1.2,1.6-2.1
		c0.1-0.6,0.2-1.1,0.3-1.7c0.1-0.7,0.1-1.7,0.2-2.9s0.1-2.7,0.1-4.6v-6.8c0-4.6,0-8.2-0.1-10.7c0-1.8-0.2-3.7-0.5-5.5
		c-0.3-1.2-0.8-1.8-1.4-2.1c-0.9-0.3-1.9-0.5-2.8-0.5c-0.5,0-1-0.1-1.6-0.2c-0.1-0.1-0.2-0.4-0.2-1s0.3-0.9,0.8-0.9h0.9
		c0.5,0,1,0,1.6,0.1c0.7,0.1,1.4,0.1,2.1,0.1h3.2c4.6,0,8.8,0,12.6,0s7.5,0,11.1-0.1L227.3,35.2z M211.8,28.2
		c-0.8,0.7-1.8,1.2-2.8,1.6c-0.3,0-0.6-0.1-0.9-0.3c-0.4-0.2-0.5-0.4-0.5-0.5s0.1-0.2,0.3-0.3c0.2-0.2,0.3-0.4,0.5-0.6l0.8-0.8
		l2.1-2.3c0.7-0.7,1.4-1.5,2.1-2.2s1.2-1.3,1.7-1.8s1.1-1.2,1.6-1.9c0.8-0.9,1.6-1.8,2.4-2.5c0.4-0.3,0.9-0.5,1.4-0.5h0.5
		c0.2,0,0.4,0.1,0.6,0.1l1.1,0.3c0.5,0.2,1.1,0.3,2,0.6s1.3,0.7,1.3,1.2c0,0.2,0,0.5-0.1,0.7c-0.2,0.3-0.5,0.6-0.8,0.8
		c-0.7,0.5-1.4,1-2.1,1.4c-1,0.6-2.3,1.4-4,2.4c-0.6,0.4-1.2,0.8-1.7,1.2l-1.8,1L211.8,28.2z"/>
	<path d="M265.1,46.4c0-1.6,0-2.9,0-3.9c0-0.8-0.1-1.6-0.2-2.4c0-0.5-0.2-0.9-0.4-1.3c-0.2-0.3-0.4-0.5-0.8-0.7
		c-1-0.6-2.2-0.9-3.5-0.9c-0.4,0-0.9,0-1.3-0.1c-0.1,0-0.2-0.3-0.2-0.8c0-0.3,0-0.6,0.1-0.9c0.1-0.2,0.2-0.2,0.5-0.2h0.7
		c0.4,0,0.8,0,1.1,0.1c0.5,0.1,1,0.1,1.5,0.1h5.7c1.2,0,2.4,0,3.4-0.1c1.3-0.1,2.5-0.1,3.6-0.1h2.6c5,0,8.9,1,11.6,3.1
		c2.7,2.1,4.1,5.1,4.1,9c0.1,3.9-1.7,7.7-5,9.9c-3.3,2.4-7.9,3.5-13.9,3.5h-1.5c-0.5,0-1.1-0.1-1.6-0.2c0,2.5,0,4.6,0,6.1
		s0.1,2.6,0.1,3.2c0.1,1.9,0.5,3.1,1.1,3.7s1.9,1,3.9,1.1c0.7,0,1.3,0.1,1.9,0.2c0.2,0.1,0.3,0.3,0.3,0.8s-0.1,0.8-0.2,0.9
		c-0.2,0.1-0.5,0.2-0.7,0.2h-1.6c-1.5-0.1-2.8-0.2-3.8-0.2h-3l-9,0.1h-1.2c-0.3,0-0.7,0-1-0.1c-0.1-0.3-0.2-0.6-0.1-0.8
		c0-0.5,0.1-0.7,0.2-0.8c0.5-0.1,1-0.2,1.5-0.3c1.9-0.1,3.2-0.6,3.9-1.5s1-2.5,1-5V63l0.2-7.5L265.1,46.4z M273.5,58.4
		c1.7,0,3.4-0.1,5-0.4c1.2-0.3,2.4-0.8,3.5-1.5c2.6-1.8,3.9-4.8,3.9-8.8c0-3.5-0.9-6.1-2.8-7.7s-4.9-2.4-9-2.4
		c-1.1,0-1.7,0.2-1.9,0.5c-0.3,0.9-0.4,1.8-0.3,2.7c0,1.8,0,3.3,0,4.3s0,1.8,0,2.4v2.5l-0.1,8.5L273.5,58.4z"/>
	<path d="M323.6,76.6c-0.4,0-0.8,0-1.2-0.1c-0.1-0.1-0.2-0.4-0.2-0.8c0-0.5,0.1-0.7,0.2-0.8c0.5-0.1,1-0.2,1.5-0.3
		c2.1-0.2,3.2-0.9,3.2-2c0-0.2,0-0.3,0-0.5c0-0.1-0.1-0.4-0.2-0.8c-0.1-0.6-0.3-1.1-0.5-1.7c-0.3-0.7-0.6-1.8-1-3.2s-0.8-2.3-1-3
		c-0.1-0.4-0.2-0.9-0.4-1.3h-3.3c-1.1,0-2.6,0-4.5,0s-4.5,0-7.8,0c-0.1,0.1-0.1,0.2-0.1,0.3c0,0.2-0.1,0.3-0.2,0.4
		c-0.1,0.2-0.2,0.5-0.4,0.8c-0.1,0.4-0.3,0.9-0.6,1.6c-0.5,1.4-0.9,2.4-1.2,3.2s-0.5,1.3-0.6,1.7c-0.1,0.3-0.2,0.6-0.2,0.9
		c0,0.2,0,0.4,0,0.7c0,0.5,0.2,1,0.5,1.3c0.3,0.4,0.8,0.7,1.3,0.9c0.3,0.2,0.7,0.3,1.1,0.3c0.3,0,1.1,0,2.3,0c0.5,0,0.8,0.3,0.8,1
		c0,0.3,0,0.6-0.1,0.9c-0.2,0.1-0.4,0.2-0.6,0.3h-10c-0.7,0-1.6,0-2.6,0.1h-1.6c-0.4,0-0.6-0.3-0.6-1c0-0.4,0.1-0.7,0.4-0.7
		c0.6-0.2,1.2-0.5,1.7-0.8c0.6-0.5,1.2-1.1,1.6-1.8c0.7-1.2,1.4-2.4,2-3.7c0.8-1.6,1.9-3.7,3.1-6.4c1.9-4.2,3.5-7.7,4.7-10.3l3-6.7
		c0.8-1.8,1.5-3.4,2.1-4.8s1.2-3,2-4.7c0.1-0.2,0.2-0.4,0.4-0.5c0.4-0.1,0.9-0.2,1.4-0.2l1.3-0.2c0.2-0.1,0.4-0.1,0.7-0.1h0.5
		c0.3,0,0.5,0.1,0.5,0.2s0.2,0.7,0.5,1.7c0.4,1.3,1,3.3,2,5.9c1,2.7,2.2,5.8,3.6,9.5c1,2.5,1.9,4.8,2.7,7s1.5,4,2.2,5.7
		c0.9,2.3,1.6,4,2.1,5.3c0.4,1,0.8,1.9,1.3,2.8c0.3,0.5,0.6,0.9,1.1,1.2c0.4,0.2,0.8,0.4,1.2,0.5c0.5,0.1,0.8,0.5,0.7,1
		c0,0.7-0.4,1-1.1,1L323.6,76.6L323.6,76.6z M322.9,59.7c-0.2-0.7-0.5-1.4-0.7-2l-0.8-2c-0.3-0.7-0.6-1.5-0.9-2.4s-0.7-1.9-1.1-3.1
		s-0.8-2-1.1-2.7s-0.5-1.4-0.8-1.9s-0.4-1.1-0.6-1.5l-0.6-1.6L312,53.3c-1.2,2.9-2.1,5-2.6,6.4L322.9,59.7z"/>
	<path d="M345.7,76.1c-0.3,0-0.5,0.1-0.7,0.3c-0.3,0.2-0.7,0.3-1.1,0.3c-0.3,0-0.5,0-0.5-0.1c-0.1-0.2-0.2-0.5-0.3-0.8
		c-0.2-0.7-0.4-1.5-0.5-2.3c-0.1-0.9-0.3-1.8-0.4-2.8s-0.2-1.8-0.3-2.7c-0.1-0.7-0.1-1.3-0.1-2c-0.1-0.6,0-1.2,0.3-1.7
		c0.2-0.2,0.6-0.3,1.4-0.3c0.2,0,0.4,0,0.6,0.2c0.2,0.3,0.3,0.6,0.4,0.9c0.3,2.6,1.7,5,3.8,6.6c2.4,1.6,5.2,2.4,8.1,2.3
		c2.2,0.1,4.4-0.5,6.2-1.7c1.5-1.2,2.3-3.1,2.2-5c0-0.9-0.1-1.8-0.5-2.7c-0.3-0.9-0.9-1.6-1.6-2.2c-0.9-0.8-1.9-1.4-3-2
		c-1.5-0.8-3.1-1.5-4.8-2.2c-2-0.7-3.9-1.6-5.7-2.6c-1.3-0.7-2.5-1.6-3.6-2.6c-0.9-0.8-1.5-1.8-2-2.9c-0.4-1.1-0.6-2.3-0.6-3.5
		c0-1.7,0.4-3.5,1.2-5c0.8-1.6,2-3,3.5-4.1c1.2-0.9,2.6-1.6,4.1-2c1.8-0.4,3.7-0.6,5.5-0.6h1.5c0.4,0,0.9,0,1.3,0.1
		c0.5,0.1,1.1,0.1,1.8,0.2c0.7,0.1,1.7,0.2,3,0.3c0.2,0.1,0.5,0.1,0.8,0.1h0.7c0.2,0,0.3,0,0.5,0c0.2,0,0.3-0.1,0.5-0.1
		c0.2-0.1,0.3-0.1,0.5-0.1c0.2,0,0.4,0.1,0.4,0.3c0,0.2,0,1,0,2.3c0,1.1,0,2.2,0.1,3.4c0.1,1.2,0.1,2.3,0.3,3.2
		c0.1,0.3,0.1,0.5,0.1,0.8c0,0.5-0.5,0.8-1.3,0.8c-0.3,0-0.5,0-0.7-0.2c-0.2-0.2-0.3-0.4-0.4-0.6c-0.3-1.2-0.7-2.4-1.2-3.5
		c-0.4-0.7-1-1.4-1.6-1.9c-0.9-0.6-1.9-1.1-3-1.4c-1.2-0.3-2.4-0.5-3.6-0.5c-1.9-0.1-3.8,0.5-5.4,1.7c-1.3,1.1-2.1,2.8-2,4.6
		c0,0.9,0.1,1.8,0.4,2.6c0.4,0.8,1,1.6,1.7,2.1c1.1,0.8,2.2,1.5,3.5,2c1.5,0.7,3.4,1.5,5.8,2.4c3.8,1.5,6.6,3.2,8.2,5
		c1.7,1.8,2.5,4.2,2.5,6.6c0.2,3.5-1.5,6.8-4.3,8.8c-2.9,2.1-6.9,3.1-12.1,3.1c-1.5,0-2.9-0.1-4.3-0.2s-2.7-0.3-3.8-0.4
		c-0.6-0.1-1-0.2-1.1-0.2C345.9,76.1,345.8,76.1,345.7,76.1z"/>
	<path d="M400.8,34.6c3.1,0,6.2,0.5,9.2,1.5c2.6,1,5.1,2.4,7.1,4.3c2,1.9,3.6,4.2,4.6,6.7c1.2,2.7,1.7,5.6,1.7,8.6
		c0.1,5.8-2.4,11.4-6.7,15.3c-2.2,2-4.7,3.5-7.4,4.5c-3,1.1-6.2,1.7-9.3,1.6c-3,0-5.9-0.5-8.7-1.6c-2.6-1-4.9-2.5-6.9-4.4
		c-1.9-1.9-3.5-4.2-4.5-6.8c-1.1-2.7-1.7-5.6-1.6-8.5c0-3,0.5-5.9,1.6-8.6c1-2.6,2.6-4.9,4.6-6.8c2.1-1.9,4.5-3.4,7.1-4.4
		C394.6,35.1,397.7,34.6,400.8,34.6z M399.2,37.6c-1.8,0-3.6,0.4-5.3,1.2c-1.6,0.8-3,2-4.1,3.5c-1.2,1.6-2.1,3.4-2.7,5.3
		c-0.7,2.2-1,4.4-1,6.7c0,2.7,0.4,5.3,1.3,7.9c0.8,2.3,2,4.5,3.6,6.4c1.5,1.8,3.3,3.2,5.3,4.3c2,1,4.3,1.6,6.6,1.6
		c1.8,0,3.6-0.4,5.2-1.2c1.6-0.8,3-2,4.1-3.4c1.2-1.6,2.1-3.4,2.6-5.3c0.6-2.2,0.9-4.5,0.9-6.8c0-2.7-0.4-5.5-1.2-8.1
		c-0.7-2.3-1.8-4.4-3.4-6.3c-1.4-1.7-3.2-3.1-5.2-4C403.8,38.2,401.5,37.7,399.2,37.6L399.2,37.6z M399.9,28.2
		c-0.8,0.7-1.8,1.2-2.8,1.6c-0.3,0-0.6-0.1-0.9-0.3c-0.4-0.2-0.5-0.4-0.5-0.5s0.1-0.2,0.3-0.3c0.2-0.2,0.3-0.4,0.5-0.6l0.8-0.8
		l2.1-2.3c0.7-0.7,1.4-1.5,2.1-2.2s1.2-1.3,1.7-1.9s1.1-1.2,1.6-1.9c0.8-0.9,1.6-1.7,2.4-2.5c0.4-0.3,0.9-0.5,1.4-0.5h0.5
		c0.2,0,0.4,0.1,0.6,0.1l1.1,0.3c0.5,0.2,1.1,0.3,2,0.6s1.3,0.7,1.3,1.2c0,0.2,0,0.5-0.1,0.7c-0.2,0.3-0.5,0.6-0.8,0.8
		c-0.7,0.5-1.4,1-2.1,1.4c-1,0.6-2.3,1.4-4,2.4c-0.6,0.4-1.2,0.8-1.7,1.2s-1.1,0.7-1.7,1.1L399.9,28.2z"/>
	<path d="M475.5,37.7c-2.2,0-4.4,0.4-6.5,1.3c-1.9,0.8-3.6,2.1-5,3.7c-1.4,1.7-2.5,3.6-3.2,5.7c-0.8,2.4-1.2,4.9-1.1,7.4
		c0,2.5,0.4,5,1.2,7.4c0.8,2.2,1.9,4.1,3.4,5.9c1.4,1.6,3.2,3,5.2,3.9c2,0.9,4.2,1.4,6.5,1.4c2.4,0,4.9-0.6,7-1.8
		c1.9-0.9,3.5-2.4,4.5-4.3c0.2-0.5,0.5-0.8,0.8-0.8c0.4,0,0.8,0.1,1.1,0.3c0.3,0.2,0.5,0.4,0.5,0.5c0,0.2,0,0.3-0.1,0.5
		c-0.1,0.2-0.3,0.8-0.6,1.8c-0.2,0.5-0.4,1.1-0.6,1.7c-0.2,0.6-0.4,1.4-0.7,2.6c-0.1,0.3-0.2,0.5-0.5,0.7c-0.6,0.3-1.1,0.5-1.7,0.6
		c-1.5,0.4-3,0.7-4.6,0.9c-1.8,0.2-3.7,0.3-5.5,0.3c-3.3,0-6.5-0.5-9.6-1.5c-2.7-0.9-5.3-2.4-7.4-4.3c-2.1-1.9-3.7-4.2-4.8-6.7
		c-1.2-2.8-1.7-5.7-1.7-8.7c0-3.5,0.8-7,2.4-10.1c1.6-3,3.9-5.6,6.7-7.5c4-2.6,9.1-3.9,15.3-3.9c1.8,0,3.7,0.1,5.5,0.3
		c1.8,0.2,3.5,0.4,5.2,0.8c0.4,0.1,0.7,0.1,1.1,0.1c0.1,0,0.3,0,0.4,0c0.2-0.1,0.3-0.2,0.5-0.4c0.2-0.1,0.3-0.2,0.5-0.2
		c0.5,0,0.8,0.2,0.8,0.5v0.4c0,0.2,0,0.3-0.1,0.5c-0.4,1.7-0.7,3.3-1,4.9s-0.4,3.1-0.5,4.7c0,0.5-0.5,0.7-1.3,0.7
		c-0.4,0-0.7-0.1-0.8-0.3c-0.1-0.5-0.2-1.1-0.2-1.6c-0.2-2.7-1.2-4.6-2.9-5.7S479.2,37.7,475.5,37.7z"/>
	<path d="M518.6,34.6c3.1,0,6.3,0.5,9.2,1.5c2.6,1,5.1,2.4,7.1,4.3c2,1.9,3.6,4.2,4.7,6.7c1.1,2.7,1.7,5.6,1.7,8.6
		c0.1,5.8-2.4,11.4-6.7,15.3c-2.2,2-4.7,3.5-7.4,4.5c-3,1.1-6.2,1.7-9.3,1.6c-3,0-5.9-0.5-8.7-1.6c-5.2-2-9.3-6-11.4-11.2
		c-1.1-2.7-1.7-5.6-1.6-8.5c0-3,0.5-5.9,1.6-8.6c1-2.6,2.6-4.9,4.6-6.8c2.1-1.9,4.5-3.4,7.1-4.4C512.4,35.1,515.5,34.6,518.6,34.6z
		 M517,37.6c-1.8,0-3.6,0.4-5.3,1.2c-1.6,0.8-3,2-4.1,3.5c-1.2,1.6-2.1,3.4-2.7,5.3c-0.7,2.2-1,4.4-1,6.7c0,2.7,0.4,5.3,1.3,7.9
		c0.8,2.3,2,4.5,3.6,6.4c1.5,1.8,3.3,3.2,5.3,4.3c2,1,4.3,1.6,6.6,1.6c1.8,0,3.6-0.4,5.2-1.2c1.6-0.8,3-2,4.1-3.4
		c1.2-1.6,2.1-3.4,2.6-5.3c0.6-2.2,1-4.5,0.9-6.8c0-2.7-0.4-5.5-1.2-8.1c-0.7-2.3-1.8-4.4-3.3-6.3c-1.4-1.7-3.2-3.1-5.2-4
		C521.6,38.2,519.3,37.6,517,37.6L517,37.6z"/>
	<path d="M584.6,64.1l0.1-10.1v-7.2c0-1.7,0-3-0.1-3.9c0-0.6-0.1-1.3-0.3-1.9c-0.2-0.4-0.4-0.8-0.6-1.2c-0.9-1.6-2.7-2.4-5.5-2.5
		c-0.8,0-1.2-0.2-1.2-0.7c0-0.4,0-0.8,0.1-1.2c0.1-0.2,0.2-0.3,0.5-0.3h0.8c0.4,0,1.4,0.1,3,0.2h3.2c2.1,0,4.1,0,5.9,0
		s3.1-0.1,3.8-0.1h0.5c0.3,0,0.5,0.1,0.6,0.2c0.1,0.4,0.2,0.8,0.1,1.2c0,0.5,0,0.8-0.1,0.8c-0.2,0.1-0.5,0.2-0.8,0.1
		c-3.6,0-5.5,2.1-5.8,6c-0.1,0.8-0.1,2.3-0.2,4.5c-0.1,2.2-0.1,4.4-0.2,6.8c0,2.4-0.1,4.7-0.1,6.8s0,3.7,0,4.6
		c0,2.3,0.1,4.3,0.2,6.1c0,1.1,0.2,2.3,0.4,3.4c0.1,0.1,0.1,0.2,0.1,0.3c0,0.2-0.4,0.5-1.1,0.8c-0.6,0.3-1.2,0.4-1.8,0.5
		c-0.2-0.1-0.4-0.3-0.5-0.4c-0.9-1.4-1.9-2.7-2.8-3.9c-0.9-1.2-2.2-2.7-3.8-4.6c-1.6-1.8-3.7-4.2-6.3-7s-6-6.6-10.4-11.3
		c-1-1-1.8-1.9-2.4-2.7s-1.4-1.8-2.3-3c-0.1,1.3-0.1,2.1-0.1,2.3v0.8c0,10.5,0.1,17.4,0.3,20.8c0,1,0.2,1.9,0.4,2.9
		c0.2,0.7,0.5,1.3,1.1,1.8c0.6,0.5,1.2,0.8,1.9,1c1.1,0.2,2.1,0.4,3.2,0.4c0.5,0,0.7,0.3,0.7,1c0,0.3,0,0.6-0.2,0.9
		c-0.1,0.2-0.4,0.2-0.8,0.2l-16.5-0.1c-0.4,0-0.8,0-1.1-0.1c-0.1-0.3-0.2-0.6-0.1-0.9c0-0.5,0.1-0.7,0.2-0.8c0.5-0.1,1-0.2,1.5-0.3
		c1.5-0.1,2.9-0.8,3.9-1.9c0.9-1.4,1.4-3.1,1.4-4.8c0.1-0.5,0.1-1.5,0.1-3s0-3.1,0.1-4.9s0.1-3.7,0.1-5.6s0-3.6,0-5V45
		c0-0.8,0-1.7-0.1-2.5c-0.1-0.5-0.2-1-0.3-1.4c-0.2-0.4-0.4-0.8-0.6-1.2c-0.4-0.8-1-1.4-1.8-1.8c-1.1-0.4-2.3-0.7-3.5-0.8
		c-0.4,0-0.6-0.3-0.6-0.9s0-1,0.2-1.1c0.4-0.1,0.8-0.2,1.2-0.1h8.7c0.5,0,0.9,0,1.2,0c0.2,0,0.5,0.1,0.7,0.2
		c0.2,0.1,0.5,0.3,0.6,0.5c0.2,0.3,0.5,0.6,0.8,1c1.1,1.5,2.2,3,3.2,4.3s2.1,2.7,3.3,4c1.1,1.3,2.4,2.8,3.8,4.3s3,3.3,4.8,5.2
		c1,1.1,2,2.1,2.9,3.1l2.7,3.1l2.6,3.2c0.2,0.2,0.4,0.5,0.6,0.7s0.3,0.4,0.5,0.7L584.6,64.1z"/>
	<path d="M266.2,131.9c-3.8-0.1-7.5,1.4-10.2,4.2c-2.8,2.6-4.4,6.3-4.5,10.1v123c0,8.8,0.5,17.5,1.7,26.2l0.5,4.3h-2.2L121.5,161
		v118.7c-0.1,5.2,2.8,10,7.4,12.4c2.2,1.3,4.6,1.9,7.1,1.9h4.5v2.4H91.5V294H96c3.8,0.1,7.5-1.5,10.3-4.2c2.8-2.7,4.4-6.5,4.3-10.4
		V155.8c0.1-8.7-0.5-17.4-1.7-26l-0.5-3.8h2.4l129.9,138.7V146.5c-0.1-3.9-1.7-7.7-4.5-10.4c-2.7-2.7-6.4-4.2-10.3-4.2h-4.5v-2.4
		h49.1v2.4L266.2,131.9z"/>
	<path d="M456.4,131.9h-3.8c-3.2-0.1-6.3,1.1-8.7,3.2c-2.4,2-3.8,4.9-3.9,8v94.4c0,18.6-5.9,33.6-17.6,45
		c-11.8,11.4-27.4,17.1-47,17.2c-19.6,0-35.4-5.7-47.5-17c-12.1-11.3-18.2-26.3-18.2-44.9v-93.9c0.2-4.4-2.2-8.5-6.2-10.5
		c-2-1-4.2-1.5-6.4-1.4h-3.8v-2.4h48.3v2.4h-3.8c-3.2-0.1-6.4,1.1-8.8,3.2c-2.4,2.1-3.7,5.1-3.8,8.2v91c0,17.3,4.6,31.3,13.9,41.9
		s21.7,16,37.3,16c15.6,0,28.2-5,37.9-15.1c9.7-10.1,14.5-23.3,14.6-39.6v-94.2c-0.1-3.2-1.5-6.1-3.8-8.2c-2.4-2.2-5.6-3.3-8.8-3.2
		h-3.8v-2.4h44.1L456.4,131.9z"/>
	<path d="M650.6,131.9c-3.8-0.1-7.5,1.4-10.3,4.2c-2.8,2.6-4.4,6.3-4.5,10.1v123c0,8.8,0.5,17.5,1.7,26.2l0.5,4.3h-2.2L506,161
		v118.7c-0.1,5.2,2.8,10,7.4,12.4c2.2,1.3,4.6,1.9,7.2,1.9h4.5v2.4h-49.1V294h4.5c3.8,0.1,7.5-1.5,10.3-4.2
		c2.8-2.7,4.4-6.5,4.3-10.4V155.8c0.1-8.7-0.5-17.4-1.7-26l-0.5-3.8h2.4l129.9,138.7V146.5c-0.1-3.9-1.7-7.7-4.5-10.4
		c-2.7-2.7-6.4-4.2-10.3-4.2h-4.5v-2.4h49.1v2.4L650.6,131.9z"/>
	<path d="M832.7,294h1.9v2.4H781V294h2.1c3.3,0,5.8-1.1,7.5-3.2c1.5-1.7,2.4-3.8,2.5-6.1c0-1.9-0.3-3.9-1-5.7l-15.3-40.5h-64.4
		l-16,40.8c-0.6,1.8-0.9,3.7-1,5.6c0.2,2.2,1,4.3,2.5,6c1.7,2.1,4.2,3.2,7.5,3.2h2.1v2.4h-47.9V294h2.1c4.2-0.1,8.3-1.4,11.7-3.8
		c4.1-2.8,7.3-6.7,9.3-11.2l53.9-128.2c5.9-12.9,8.8-21.1,8.8-24.5h2.1L811.7,279c1.9,4.5,5,8.4,9.1,11.2
		C824.3,292.6,828.4,294,832.7,294z M715.5,231.3h58.6l-28.6-76.5L715.5,231.3z"/>
	<path d="M874.3,126.2c14.5,0,25.8,3.6,34.1,10.7c8.3,7.1,12.4,17.1,12.4,29.8c0.1,9.7-3.3,19-9.5,26.4c-4.8,6-10.1,11.7-15.7,16.9
		c-9.4,8.6-15,16.1-16.9,22.6c-1.1,3.4-1.7,7-1.7,10.6c0.1,4.1,1.5,8.1,4,11.3l-1.4,1.2c-7-6.5-10.5-14.1-10.5-22.9
		c0-7.1,4-15.3,11.9-24.6c3.3-3.8,6.7-7.8,10-11.9c7.9-9.7,11.9-19.6,11.9-29.8c0-14.1-4.4-23.9-13.3-29.3c-4.6-2.8-9.9-4.2-15.3-4
		c-9.5,0-17,3.2-22.4,9.6s-8.1,15-8.1,25.6v1.4h-2.3l-2.4-22.6c3.4-6.4,8.5-11.8,14.7-15.6C859.9,128.1,867.1,126.1,874.3,126.2z
		 M884.8,294.2c-2,2-4.7,3.1-7.5,3.1c-2.9,0-5.6-1.1-7.6-3.1c-4.2-4.1-4.3-10.8-0.2-15c0.1-0.1,0.1-0.1,0.2-0.2c2-2,4.8-3.1,7.6-3.1
		c2.8,0,5.5,1.1,7.5,3.1C889,283.2,889,290,884.8,294.2z"/>
	<path d="M50.6,92.8c-4.7,8.8-12.3,13.1-22.7,13.1c-5,0.1-9.9-1-14.5-3C4.5,98.8,0,91.4,0,80.8c0-6,2.1-11.7,5.9-16.3
		c3-3.7,6.3-7.2,9.7-10.5c5.8-5.3,9.3-10,10.5-14c0.8-2.1,1.2-4.3,1.2-6.6c-0.1-2.6-1-5-2.7-7l0.9-0.7c4.4,4,6.6,8.7,6.6,14.2
		c0,4.4-2.5,9.5-7.5,15.2c-2.1,2.3-4.1,4.8-6.2,7.4c-4.9,6-7.4,12.2-7.4,18.6c0,6.4,1.6,11.4,4.7,15.1c3.1,3.6,7.5,5.5,13.3,5.5
		s10.3-2,13.6-6c3.3-4,4.9-9.3,4.9-15.8v-0.9h1.5L50.6,92.8z M22.3,2c2.6-2.6,6.8-2.6,9.4-0.1c1.3,1.3,2,3,2,4.8
		c0,3.7-3,6.7-6.7,6.6c-1.7,0-3.4-0.7-4.6-1.9c-1.3-1.2-2-3-1.9-4.7C20.3,4.9,21,3.2,22.3,2z"/>
	<path d="M881.5,364.4c0,0-195.8-2.9-260.1-2.9H282.5c-64.2,0-259.7,2.9-259.7,2.9s2.9-42.3,2.9-55.4V128.3h2.3v230.9h848.1v-39.5
		h2.3L881.5,364.4z"/>
	<polygon points="878.5,103.9 876.2,103.9 876.2,56.7 621.4,56.7 621.4,54.4 881.4,51.4 	"/>
	<path d="M445.4,400c0,0.3-0.2,0.5-0.7,0.5c-0.3,0-0.5,0-0.6-0.1c-0.1-0.1-0.1-0.4-0.2-0.8c-0.1-1.3-0.5-2.3-1.1-2.9
		c-0.7-0.6-1.7-0.9-3.2-1.1c-0.3,0-0.7-0.1-1.1-0.1c-0.4,0-1,0-1.7-0.1c-0.7,0-1.7,0-2.8-0.1c-1.1,0-2.5,0-4.1,0c0,3.2,0,6,0,8.3
		c0,2.4,0,4,0.1,5c0,0.6,0.1,1.1,0.2,1.4c0.1,0.3,0.4,0.6,0.8,0.8c0.4,0.2,1,0.3,1.8,0.3s1.9,0.1,3.3,0.1c4.3,0,7.2-0.4,8.7-1.3
		c0.7-0.4,1.4-1.1,2.1-2.1s1.2-2.1,1.7-3.3c0.1-0.3,0.2-0.5,0.2-0.6c0.1-0.1,0.2-0.1,0.3-0.1c0.7,0,1,0.2,1,0.6
		c0,0.7-0.5,2.8-1.4,6.4c-0.2,0.7-0.3,1.2-0.4,1.6c-0.1,0.4-0.2,0.6-0.3,0.8c-0.1,0.2-0.2,0.3-0.2,0.3c-0.1,0-0.2,0-0.3,0h-0.3
		c-0.3,0-1-0.1-2-0.1c-1,0-2.3-0.1-3.8-0.1c-1.5,0-3.3,0-5.3-0.1c-2,0-4.1,0-6.3,0c-0.6,0-1.1,0-1.6,0s-1,0-1.5,0
		c-0.6,0-1.3,0-2,0.1c-0.8,0-1.8,0.1-3.1,0.1H421c-0.3,0-0.5,0-0.6-0.1c-0.1-0.1-0.1-0.2-0.1-0.5c0-0.5,0.2-0.7,0.5-0.7
		c1.4-0.1,2.4-0.3,2.9-0.6c0.5-0.3,0.9-0.8,1.1-1.5c0.1-0.3,0.1-0.8,0.2-1.5c0.1-0.7,0.1-1.7,0.1-3c0-1.2,0.1-2.8,0.1-4.6
		c0-1.8,0-4,0-6.5c0-1.4,0-2.8,0-4.2c0-1.4,0-2.8-0.1-4c0-1.3,0-2.4-0.1-3.4c0-1,0-1.7-0.1-2.2c-0.1-0.9-0.3-1.5-0.7-1.8
		c-0.4-0.3-1.2-0.5-2.4-0.5c-0.5,0-0.7-0.1-0.8-0.2c-0.1-0.1-0.1-0.3-0.1-0.6c0-0.5,0.2-0.7,0.5-0.7h0.5c0.1,0,0.5,0,1.2,0
		c0.7,0,1.5,0,2.4,0.1c0.9,0,1.7,0,2.6,0c0.8,0,1.4,0,1.8,0c0.5,0,1.3,0,2.3,0c1,0,2.1,0,3.3,0c1.2,0,2.5,0,3.8-0.1
		c1.3,0,2.5,0,3.6-0.1c1.1,0,2.1,0,2.9-0.1c0.8,0,1.3,0,1.6,0h0.9c0.4,0,0.6,0.2,0.6,0.5c0,0.1,0,0.2,0,0.3c0,0.2-0.1,0.6-0.3,1.4
		c0,0.1-0.1,0.4-0.1,0.8c0,0.4-0.1,0.9-0.1,1.4c0,0.5-0.1,1-0.1,1.5c0,0.5,0,0.9,0,1.2c0,0.8,0,1.3-0.1,1.4
		c-0.1,0.1-0.3,0.2-0.7,0.2c-0.3,0-0.5,0-0.6-0.1c-0.1-0.1-0.1-0.3-0.1-0.6c-0.1-1.3-0.2-2.4-0.4-3.1c-0.2-0.7-0.5-1.2-0.9-1.5
		c-0.5-0.5-1.5-0.9-2.8-1.1c-1.4-0.2-3.3-0.3-5.8-0.3c-0.5,0-1,0-1.6,0c-0.6,0-1.2,0-1.7,0.1c-0.6,0-1.1,0-1.5,0.1
		c-0.4,0-0.7,0-0.9,0.1c-0.4,0.1-0.7,0.2-0.8,0.4c-0.1,0.2-0.2,0.6-0.2,1.3v5v4.9v2.4c2.3,0,4.1,0,5.4,0c1.3,0,2.3,0,3,0
		c0.7,0,1.2,0,1.6-0.1c0.3,0,0.7,0,1.1-0.1c0.6-0.1,1-0.2,1.4-0.4c0.4-0.2,0.7-0.4,0.9-0.6s0.4-0.6,0.5-1.1c0.1-0.4,0.2-1,0.3-1.6
		c0-0.4,0.1-0.7,0.1-0.7c0.1-0.1,0.2-0.1,0.5-0.1c0.3,0,0.5,0,0.6,0.1c0.1,0.1,0.1,0.2,0.1,0.5c0,0.2,0,0.4-0.1,0.5
		c0,0.3-0.1,0.7-0.1,1.2c0,0.5,0,1-0.1,1.5c0,0.6,0,1.1-0.1,1.6c0,0.5,0,1,0,1.4c0,0.7,0,1.4,0,2.1c0,0.7,0.1,1.3,0.1,1.8V400z"/>
	<path d="M474.6,413.6c-0.2,0-0.6,0-1.2,0c-0.6,0-1.4,0-2.3-0.1s-1.8,0-2.8,0s-1.8,0-2.6,0c-2.5,0-4.6,0-6.4,0s-3.1,0.1-4,0.1
		c-0.3,0-0.6,0.1-0.8,0.1c-0.2,0-0.4,0-0.6,0c-0.2,0-0.4,0-0.4-0.1c-0.1-0.1-0.1-0.3-0.1-0.6s0-0.5,0.1-0.5c0.1,0,0.4-0.1,0.9-0.1
		c1.2-0.1,2.1-0.3,2.6-0.7c0.5-0.4,0.9-1.1,1-2c0-0.2,0-0.7,0-1.4c0-0.7,0-1.6,0.1-2.7c0-1.1,0-2.2,0.1-3.4c0-1.2,0-2.4,0-3.6
		c0-1.5,0-2.8,0-3.8s0-1.8,0-2.5c0-0.6,0-1.1-0.1-1.5c0-0.4-0.1-0.7-0.1-0.9c-0.2-0.7-0.5-1.1-0.9-1.3s-1.2-0.3-2.4-0.3
		c-0.6,0-0.9,0-1.1-0.1c-0.1-0.1-0.2-0.3-0.2-0.6c0-0.4,0.2-0.6,0.5-0.6c0.1,0,0.2,0,0.4,0c0.2,0,0.4,0,0.7,0.1h5.6l4.8-0.1
		c0.3,0,0.6-0.1,0.8-0.1c0.2,0,0.4,0,0.4,0c0.4,0,0.6,0.2,0.6,0.7c0,0.3,0,0.4-0.1,0.5c-0.1,0.1-0.3,0.1-0.7,0.2
		c-1,0.1-1.8,0.2-2.3,0.3c-0.5,0.2-0.9,0.6-1.2,1.2c-0.2,0.7-0.4,1.7-0.4,3.2c0,1.4-0.1,3.5-0.1,6.1c0,2,0,3.7,0,5s0,2.4,0,3.2
		c0,0.8,0,1.5,0.1,2c0,0.5,0,0.8,0.1,1.2c0,0.5,0.2,0.9,0.6,1c0.4,0.2,1.1,0.2,2.2,0.2c1.3,0,2.4,0,3.2-0.1s1.6-0.1,2.2-0.2
		c0.6-0.1,1.1-0.3,1.4-0.5c0.4-0.2,0.7-0.5,1-0.8c0.5-0.5,0.9-1.1,1.2-1.7c0.3-0.6,0.6-1.4,0.9-2.6c0.1-0.3,0.3-0.4,0.6-0.4
		c0.4,0,0.6,0,0.7,0.1c0.1,0.1,0.2,0.2,0.2,0.4c0,0.2,0,0.4-0.1,0.6c0,0.2-0.1,0.6-0.2,1.1c-0.1,0.5-0.2,1.1-0.4,1.9
		c-0.2,0.8-0.4,1.8-0.7,2.9c-0.2,0.5-0.3,0.9-0.4,1c-0.1,0.1-0.2,0.2-0.4,0.2H474.6z"/>
	<path d="M505,386.7c0.2,0,0.5-0.1,0.7-0.1s0.4,0,0.5,0c0.3,0,0.5,0.2,0.5,0.6c0,0.3,0,0.5-0.1,0.6c-0.1,0.1-0.2,0.1-0.5,0.2
		c-1,0-1.8,0.1-2.4,0.3c-0.6,0.1-1,0.5-1.3,1.1c-0.3,0.6-0.4,1.5-0.5,2.7c-0.1,1.2-0.1,2.9-0.1,5.2c0,0.2,0,0.4,0,0.6
		c0,0.2,0,0.4,0,0.7c0,0.3,0,0.7,0,1.3c0,0.6,0,1.4,0,2.4v3.6c0,1.7,0,3.1-0.1,4.3c-0.1,1.2-0.3,2.3-0.5,3.2
		c-0.2,0.9-0.5,1.7-0.9,2.4c-0.4,0.7-0.9,1.3-1.4,1.9c-1.1,1.2-2.3,2.2-3.5,2.9c-1.2,0.7-2.4,1.1-3.4,1.1c-0.9,0-1.6-0.2-2.1-0.5
		c-0.5-0.3-0.7-0.7-0.7-1.3c0-0.5,0.2-1,0.6-1.5s0.8-0.7,1.3-0.7c0.2,0,0.3,0,0.4,0.1c0.1,0,0.5,0.2,1.1,0.5
		c0.6,0.2,1.1,0.3,1.7,0.3c0.9,0,1.5-0.3,2-0.8s0.8-1.4,0.9-2.6c0.1-0.8,0.1-2,0.2-3.7c0.1-1.7,0.1-3.7,0.1-6.1
		c0-4.6,0-8.1-0.1-10.4c0-2.4-0.1-3.9-0.2-4.6c-0.1-0.8-0.3-1.4-0.8-1.7c-0.5-0.3-1.3-0.4-2.6-0.5c-0.6,0-0.9-0.1-1-0.1
		c-0.1-0.1-0.2-0.2-0.2-0.4c0-0.4,0-0.6,0.1-0.7c0.1-0.1,0.2-0.2,0.4-0.2c0,0,0.2,0,0.5,0s0.6,0,0.9,0.1c0.7,0,1.2,0.1,1.6,0.1
		s0.8,0,1.1,0c0.3,0,0.7,0,1,0s0.7,0,1.1,0L505,386.7z"/>
	<path d="M509.3,386.8c0.1,0,0.4,0,0.7,0c0.4,0,0.8,0,1.3,0c0.5,0,1,0,1.5,0c0.5,0,0.9,0,1.3,0c1.3,0,2.5,0,3.4,0
		c0.9,0,1.8,0,2.7-0.1h0.5c0.3,0,0.6,0,0.7,0.1c0.1,0.1,0.1,0.2,0.1,0.5c0,0.3,0,0.5-0.1,0.6c-0.1,0.1-0.2,0.1-0.4,0.1
		c-1.2,0-2.1,0.2-2.7,0.4c-0.6,0.2-0.9,0.6-1.1,1.1c-0.1,0.2-0.1,0.4-0.2,0.7c0,0.3-0.1,0.7-0.1,1.4c0,0.6-0.1,1.5-0.1,2.7
		c0,1.1,0,2.7,0,4.6c0,1.4,0,2.6,0,3.5c0,1,0.1,1.8,0.1,2.4c0.1,0.6,0.2,1.2,0.3,1.6c0.1,0.4,0.3,0.8,0.5,1.2
		c1.1,2.2,3.4,3.3,6.9,3.3c1.7,0,3.2-0.3,4.4-0.8c1.2-0.6,2.1-1.3,2.6-2.3c0.4-0.8,0.7-1.6,0.9-2.7c0.2-1,0.2-2.5,0.2-4.4
		c0-1.1,0-2.3-0.1-3.4s-0.1-2.2-0.1-3.1c-0.1-1-0.1-1.8-0.2-2.5c-0.1-0.7-0.1-1.3-0.2-1.6c-0.3-1.1-1.2-1.8-2.9-1.9
		c-0.6,0-1-0.1-1.1-0.2c-0.1-0.1-0.2-0.3-0.2-0.6c0-0.3,0-0.4,0.1-0.5s0.2-0.1,0.5-0.1c0.2,0,0.3,0,0.4,0c0.1,0,0.5,0,1.2,0.1h1.8
		c0.5,0,1,0,1.6,0s1.2,0,1.7,0c0.6,0,1,0,1.5-0.1c0.4,0,0.7,0,0.9,0c0.2,0,0.3-0.1,0.4-0.1s0.2,0,0.3,0c0.3,0,0.5,0.2,0.5,0.5
		c0,0.3,0,0.6-0.1,0.6c-0.1,0.1-0.4,0.2-1.1,0.2c-0.8,0.1-1.3,0.3-1.6,0.6s-0.5,0.8-0.7,1.5c-0.1,0.3-0.1,0.6-0.2,0.9
		c0,0.3-0.1,0.6-0.1,0.9c0,0.3,0,0.8-0.1,1.2c0,0.5,0,1.1-0.1,1.8l-0.1,6.1c0,1.3-0.1,2.5-0.2,3.5c-0.1,1-0.3,1.8-0.5,2.5
		c-0.2,0.7-0.5,1.3-0.8,1.9c-0.3,0.6-0.8,1.1-1.3,1.7c-2,2.2-5,3.3-9,3.3c-2.9,0-5.3-0.6-7.1-1.7c-1.8-1.1-2.9-2.7-3.4-4.8
		c-0.1-0.5-0.2-0.9-0.3-1.3c-0.1-0.4-0.1-1.1-0.1-2s-0.1-2.3-0.1-4c0-1.8,0-4.2,0-7.5c0-1-0.1-1.8-0.2-2.4c-0.1-0.6-0.2-1-0.4-1.3
		c-0.2-0.3-0.5-0.5-0.9-0.6c-0.4-0.1-1-0.2-1.7-0.2c-0.6,0-1,0-1.1-0.1c-0.1-0.1-0.2-0.3-0.2-0.6c0-0.3,0-0.5,0.1-0.6
		c0.1-0.1,0.2-0.1,0.4-0.1H509.3z"/>
	<path d="M563.2,386.7c0.4,0,0.6,0,0.7,0.1c0.1,0.1,0.1,0.2,0.1,0.4c0,0.2,0,0.3,0,0.5c0,0.2,0,0.4-0.1,0.5c0,0.2-0.1,0.5-0.1,0.9
		c0,0.4-0.1,0.8-0.1,1.3s-0.1,0.9-0.1,1.3c0,0.4-0.1,0.8-0.1,1.1c0,0.5,0,0.8-0.1,0.9c-0.1,0.1-0.3,0.2-0.7,0.2
		c-0.3,0-0.5-0.1-0.6-0.2c-0.1-0.1-0.1-0.4-0.1-1c0-0.9-0.2-1.6-0.4-2.1c-0.2-0.5-0.6-1-1.2-1.3c-0.6-0.3-1.4-0.5-2.4-0.6
		c-1-0.1-2.3-0.1-4-0.1c-0.8,0-1.4,0-1.8,0c-0.4,0-0.8,0.1-1,0.1c-0.2,0.1-0.4,0.1-0.5,0.3c-0.1,0.1-0.1,0.3-0.2,0.5
		c0,0.1-0.1,3.2-0.2,9.3c2.3,0,4,0,5.3-0.1c1.3-0.1,2.2-0.2,2.9-0.4c0.7-0.2,1.1-0.5,1.3-0.9c0.2-0.4,0.3-1,0.4-1.7
		c0-0.4,0.2-0.6,0.6-0.6c0.3,0,0.5,0,0.6,0.1c0.1,0.1,0.1,0.2,0.1,0.4v0.5c0,0.4-0.1,0.9-0.1,1.6c0,0.7,0,1.4,0,2c0,0.3,0,0.6,0,0.8
		s0,0.4,0,0.7c0,0.2,0,0.5,0,0.8c0,0.3,0,0.8,0.1,1.4v0.4c0,0.3,0,0.4-0.1,0.5c-0.1,0.1-0.3,0.1-0.6,0.1c-0.4,0-0.6-0.2-0.6-0.6
		c0-1.6-0.5-2.5-1.4-2.9c-0.3-0.1-0.5-0.1-0.7-0.2c-0.2-0.1-0.4-0.1-0.7-0.1c-0.2,0-0.6,0-1,0s-1,0-1.7,0h-3.2h-1.2v2.6
		c0,1.8,0,3.3,0,4.3c0,1,0,1.8,0.1,2.2c0.1,0.7,0.3,1.2,0.7,1.5c0.4,0.3,1.2,0.4,2.3,0.4c1.8,0,3.3-0.1,4.5-0.2
		c1.2-0.1,2.1-0.4,2.9-0.8c0.7-0.4,1.3-0.9,1.7-1.6c0.4-0.7,0.7-1.6,1-2.7c0.1-0.3,0.3-0.5,0.5-0.5c0.7,0,1.1,0.2,1.1,0.7
		c0,0.3-0.1,1-0.3,2c-0.2,1-0.5,2-0.8,3.2c-0.3,0.9-0.5,1.5-0.5,1.7c-0.1,0.2-0.3,0.3-0.5,0.3c-0.1,0-0.2,0-0.3,0
		c-0.1,0-0.3,0-0.4-0.1h-2.4l-3.2-0.1h-3l-9.8,0.1c-0.3,0-0.6,0.1-0.9,0.1c-0.3,0-0.5,0-0.6,0c-0.3,0-0.5-0.2-0.5-0.5
		c0-0.3,0-0.5,0.1-0.6c0.1-0.1,0.2-0.1,0.4-0.2c1.3-0.1,2.1-0.2,2.6-0.5s0.8-0.7,1-1.3c0.1-0.3,0.1-0.6,0.2-1.1s0.1-1.1,0.1-1.9
		c0-0.8,0.1-1.8,0.1-3c0-1.2,0-2.7,0-4.4c0-3,0-5.3-0.1-6.9c0-1.6-0.2-2.8-0.3-3.6c-0.2-0.7-0.5-1.2-0.9-1.3c-0.4-0.2-1-0.3-1.8-0.3
		c-0.6,0-0.9-0.1-1-0.1c-0.1-0.1-0.1-0.3-0.1-0.7c0-0.4,0.2-0.6,0.5-0.6c0.1,0,0.3,0,0.6,0c0.3,0,0.7,0,1,0.1c0.4,0,0.8,0.1,1.4,0.1
		c0.5,0,1.2,0,2.1,0c3,0,5.7,0,8.2,0s4.9,0,7.2-0.1H563.2z"/>
	<path d="M593.8,386.6c0.3,0,0.5,0.1,0.5,0.4c0,1,0.1,2,0.1,3.1c0,1.1,0.1,2,0.2,2.8c0,0.1,0.1,0.2,0.1,0.3c0,0.1,0,0.2,0,0.3
		c0,0.4-0.3,0.6-0.8,0.6c-0.4,0-0.7-0.2-0.7-0.6c-0.2-1-0.4-1.7-0.6-2.2c-0.2-0.5-0.5-0.9-0.9-1.2c-0.7-0.5-1.5-0.8-2.6-1.1
		c-1.1-0.2-2.3-0.4-3.7-0.4c-3.4,0-6,0.9-7.7,2.7c-1.7,1.8-2.6,4.5-2.6,8.1c0,1.9,0.3,3.7,0.8,5.2c0.5,1.6,1.3,2.9,2.3,4
		c1,1.1,2.2,2,3.5,2.6c1.4,0.6,2.9,0.9,4.6,0.9c0.9,0,1.8-0.1,2.7-0.3c0.9-0.2,1.4-0.4,1.8-0.7c0.1-0.1,0.2-0.2,0.3-0.4
		c0.1-0.1,0.1-0.3,0.1-0.6c0-0.2,0-0.6,0.1-1c0-0.4,0-1,0-1.7c0-1.5,0-2.7-0.1-3.6s-0.2-1.5-0.5-1.9c-0.2-0.4-0.6-0.7-1.2-0.7
		c-0.5-0.1-1.3-0.1-2.2-0.1c-0.7,0-1-0.1-1.1-0.1c-0.1-0.1-0.1-0.3-0.1-0.6c0-0.3,0-0.5,0.1-0.6c0.1-0.1,0.3-0.2,0.6-0.2h0.3
		c0.2,0,0.4,0,0.7,0c0.3,0,0.7,0,1.2,0s0.9,0,1.4,0c0.5,0,1,0,1.4,0c1,0,1.9,0,2.7,0c0.8,0,1.5,0,2-0.1c0.2,0,0.4-0.1,0.5-0.1
		c0.2,0,0.3,0,0.3,0c0.2,0,0.3,0,0.4,0.1c0.1,0.1,0.1,0.3,0.1,0.7c0,0.3-0.1,0.4-0.3,0.5c-0.5,0.1-0.8,0.2-1.1,0.4
		c-0.2,0.2-0.4,0.4-0.6,0.7c-0.2,0.3-0.2,0.8-0.3,1.3c0,0.6-0.1,1.3-0.1,2.2c0,1.3,0,2.4,0.1,3.3c0,1,0.1,2.1,0.2,3.4v0.1
		c0,0.2-0.1,0.3-0.2,0.4c-0.1,0.1-0.4,0.2-0.8,0.3c-0.6,0.2-1.2,0.3-2,0.5c-0.8,0.2-1.6,0.3-2.4,0.4c-0.8,0.1-1.6,0.2-2.4,0.3
		c-0.8,0.1-1.5,0.1-2.2,0.1c-5,0-8.8-1.2-11.6-3.5c-2.7-2.3-4.1-5.6-4.1-9.9c0-4.5,1.5-8,4.4-10.5s7.1-3.8,12.3-3.8
		c0.6,0,1.1,0,1.5,0c0.4,0,0.8,0,1.3,0.1c0.4,0,0.9,0.1,1.4,0.1c0.5,0.1,1.1,0.2,1.8,0.3h0.3c0.1,0,0.2,0,0.4-0.1
		c0.2-0.1,0.3-0.1,0.3-0.1H593.8z"/>
	<path d="M615.2,386.3c2.2,0,4.2,0.3,6,1c1.8,0.7,3.3,1.6,4.6,2.8c1.3,1.2,2.3,2.6,3,4.3c0.7,1.7,1.1,3.5,1.1,5.6
		c0,2-0.4,3.8-1.1,5.5c-0.8,1.7-1.8,3.2-3.2,4.4c-1.4,1.2-3,2.2-4.8,2.9c-1.9,0.7-3.9,1.1-6.1,1.1c-2,0-3.9-0.3-5.6-1
		c-1.7-0.7-3.2-1.6-4.4-2.9c-1.2-1.2-2.2-2.7-2.9-4.4c-0.7-1.7-1.1-3.5-1.1-5.5c0-2,0.4-3.9,1.1-5.6c0.7-1.7,1.7-3.2,3-4.4
		c1.3-1.2,2.8-2.2,4.6-2.9C611.1,386.7,613,386.3,615.2,386.3z M614.2,388.3c-1.3,0-2.4,0.3-3.4,0.8c-1,0.5-1.9,1.3-2.7,2.2
		c-0.8,1-1.4,2.1-1.8,3.4c-0.4,1.3-0.6,2.8-0.6,4.3c0,1.8,0.3,3.5,0.8,5.1c0.6,1.6,1.3,2.9,2.3,4.1c1,1.2,2.1,2.1,3.5,2.8
		c1.3,0.7,2.8,1,4.3,1c1.2,0,2.3-0.3,3.4-0.8c1-0.5,1.9-1.3,2.7-2.2s1.3-2.1,1.7-3.4c0.4-1.3,0.6-2.8,0.6-4.4c0-1.9-0.3-3.7-0.8-5.3
		c-0.5-1.6-1.2-2.9-2.2-4.1c-0.9-1.1-2.1-2-3.4-2.6C617.2,388.6,615.8,388.3,614.2,388.3z"/>
	<path d="M648.5,413.6c-0.2,0-0.3-0.2-0.3-0.5c0-0.3,0.1-0.6,0.2-0.6c0.1-0.1,0.5-0.2,1.1-0.2c1.4-0.2,2.3-0.9,2.5-2.3
		c0-0.3,0.1-0.7,0.1-1.3c0-0.5,0.1-1.3,0.1-2.2c0-1,0.1-2.2,0.1-3.7c0-1.5,0-3.3,0-5.5v-1.6v-3.4c0-0.9,0-1.6-0.1-2.1
		c-0.1-0.5-0.2-1-0.4-1.3c-0.2-0.3-0.5-0.5-0.9-0.6s-0.9-0.2-1.5-0.2c-0.5,0-0.9-0.1-0.9-0.1c-0.1-0.1-0.1-0.3-0.1-0.6
		c0-0.3,0-0.5,0.1-0.6c0-0.1,0.2-0.1,0.3-0.1c0.1,0,0.2,0,0.4,0s0.4,0,0.5,0.1l5.8,0.1c0.5,0,1,0,1.5,0s1.1,0,1.8-0.1
		c1.1-0.1,2-0.1,2.8-0.1c0.8,0,1.5,0,1.9,0c1.6,0,3.2,0.2,4.7,0.6c1.5,0.4,2.9,0.9,4,1.7c1.7,1,3,2.4,3.9,4.3c1,1.9,1.4,4,1.4,6.2
		c0,2.5-0.6,4.8-1.7,6.9c-1.1,2.1-2.7,3.8-4.8,5c-1.3,0.8-2.7,1.4-4.1,1.8c-1.4,0.4-3.1,0.5-5,0.5c-0.5,0-1.1,0-1.8,0
		s-1.4,0-2.2-0.1c-0.7,0-1.2-0.1-1.7-0.1c-0.5,0-0.9,0-1.3,0L648.5,413.6z M660.2,388.3c-1.1,0-1.9,0.1-2.5,0.3
		c-0.5,0.2-0.9,0.6-1,1.1c0,0.2-0.1,0.4-0.1,0.7c0,0.3-0.1,0.7-0.1,1.3c0,0.6,0,1.3,0,2.2c0,0.9,0,2,0,3.3c0,3.4,0,6.1,0,8.2
		c0,2.1,0,3.5,0.1,4.2c0.1,0.8,0.4,1.4,1.1,1.7c0.6,0.3,1.9,0.4,3.7,0.4c3.6,0,6.3-1,8.3-3c1.9-2,2.9-4.9,2.9-8.6
		c0-2.8-0.6-5.2-1.7-7.1c-1.1-1.9-2.7-3.3-4.7-4c-0.8-0.3-1.7-0.5-2.7-0.6S661.4,388.3,660.2,388.3z"/>
	<path d="M703.2,386.7c0.4,0,0.6,0,0.7,0.1c0.1,0.1,0.1,0.2,0.1,0.4c0,0.2,0,0.3,0,0.5c0,0.2,0,0.4-0.1,0.5c0,0.2-0.1,0.5-0.1,0.9
		c0,0.4-0.1,0.8-0.1,1.3s-0.1,0.9-0.1,1.3c0,0.4-0.1,0.8-0.1,1.1c0,0.5,0,0.8-0.1,0.9c-0.1,0.1-0.3,0.2-0.7,0.2
		c-0.3,0-0.5-0.1-0.6-0.2c-0.1-0.1-0.1-0.4-0.1-1c0-0.9-0.2-1.6-0.4-2.1c-0.2-0.5-0.6-1-1.2-1.3c-0.6-0.3-1.4-0.5-2.4-0.6
		c-1-0.1-2.3-0.1-4-0.1c-0.8,0-1.4,0-1.8,0c-0.4,0-0.8,0.1-1,0.1c-0.2,0.1-0.4,0.1-0.5,0.3c-0.1,0.1-0.1,0.3-0.2,0.5
		c0,0.1-0.1,3.2-0.2,9.3c2.3,0,4,0,5.3-0.1c1.3-0.1,2.2-0.2,2.9-0.4c0.7-0.2,1.1-0.5,1.3-0.9c0.2-0.4,0.3-1,0.4-1.7
		c0-0.4,0.2-0.6,0.6-0.6c0.3,0,0.5,0,0.6,0.1c0.1,0.1,0.1,0.2,0.1,0.4v0.5c0,0.4-0.1,0.9-0.1,1.6c0,0.7,0,1.4,0,2c0,0.3,0,0.6,0,0.8
		s0,0.4,0,0.7c0,0.2,0,0.5,0,0.8c0,0.3,0,0.8,0.1,1.4v0.4c0,0.3,0,0.4-0.1,0.5c-0.1,0.1-0.3,0.1-0.6,0.1c-0.4,0-0.6-0.2-0.6-0.6
		c0-1.6-0.5-2.5-1.4-2.9c-0.3-0.1-0.5-0.1-0.7-0.2c-0.2-0.1-0.4-0.1-0.7-0.1c-0.2,0-0.6,0-1,0s-1,0-1.7,0h-3.2h-1.2v2.6
		c0,1.8,0,3.3,0,4.3c0,1,0,1.8,0.1,2.2c0.1,0.7,0.3,1.2,0.7,1.5c0.4,0.3,1.2,0.4,2.3,0.4c1.8,0,3.3-0.1,4.5-0.2
		c1.2-0.1,2.1-0.4,2.9-0.8c0.7-0.4,1.3-0.9,1.7-1.6c0.4-0.7,0.7-1.6,1-2.7c0.1-0.3,0.3-0.5,0.5-0.5c0.7,0,1.1,0.2,1.1,0.7
		c0,0.3-0.1,1-0.3,2c-0.2,1-0.5,2-0.8,3.2c-0.3,0.9-0.5,1.5-0.5,1.7c-0.1,0.2-0.3,0.3-0.5,0.3c-0.1,0-0.2,0-0.3,0
		c-0.1,0-0.3,0-0.4-0.1h-2.4l-3.2-0.1h-3l-9.8,0.1c-0.3,0-0.6,0.1-0.9,0.1c-0.3,0-0.5,0-0.6,0c-0.3,0-0.5-0.2-0.5-0.5
		c0-0.3,0-0.5,0.1-0.6c0.1-0.1,0.2-0.1,0.4-0.2c1.3-0.1,2.1-0.2,2.6-0.5s0.8-0.7,1-1.3c0.1-0.3,0.1-0.6,0.2-1.1s0.1-1.1,0.1-1.9
		c0-0.8,0.1-1.8,0.1-3c0-1.2,0-2.7,0-4.4c0-3,0-5.3-0.1-6.9c0-1.6-0.2-2.8-0.3-3.6c-0.2-0.7-0.5-1.2-0.9-1.3c-0.4-0.2-1-0.3-1.8-0.3
		c-0.6,0-0.9-0.1-1-0.1c-0.1-0.1-0.1-0.3-0.1-0.7c0-0.4,0.2-0.6,0.5-0.6c0.1,0,0.3,0,0.6,0c0.3,0,0.7,0,1,0.1c0.4,0,0.8,0.1,1.4,0.1
		c0.5,0,1.2,0,2.1,0c3,0,5.7,0,8.2,0s4.9,0,7.2-0.1H703.2z"/>
	<path d="M738.9,388.3c-1.5,0-2.9,0.3-4.2,0.8c-1.3,0.6-2.3,1.3-3.2,2.4c-0.9,1-1.6,2.3-2.1,3.7c-0.5,1.4-0.7,3-0.7,4.8
		c0,1.7,0.3,3.3,0.8,4.8c0.5,1.5,1.3,2.7,2.2,3.8c0.9,1.1,2.1,1.9,3.4,2.5c1.3,0.6,2.7,0.9,4.2,0.9c1.6,0,3.1-0.4,4.5-1.1
		c1.4-0.8,2.4-1.7,2.9-2.8c0.2-0.3,0.3-0.5,0.5-0.5c0.3,0,0.5,0.1,0.7,0.2c0.2,0.1,0.3,0.2,0.3,0.3c0,0.1,0,0.2-0.1,0.3
		c0,0.1-0.2,0.5-0.4,1.2c-0.2,0.3-0.3,0.7-0.4,1.1c-0.1,0.4-0.3,0.9-0.5,1.7c-0.1,0.2-0.2,0.4-0.3,0.5c-0.1,0.1-0.5,0.2-1.1,0.4
		c-0.8,0.2-1.8,0.4-3,0.6c-1.2,0.2-2.4,0.2-3.6,0.2c-2.3,0-4.4-0.3-6.3-1c-1.9-0.6-3.5-1.6-4.8-2.8s-2.4-2.7-3.1-4.4
		c-0.7-1.7-1.1-3.6-1.1-5.7c0-2.4,0.5-4.6,1.6-6.5s2.5-3.6,4.4-4.8c2.6-1.7,5.9-2.5,9.9-2.5c1,0,2.2,0.1,3.6,0.2s2.5,0.3,3.4,0.5
		c0.2,0,0.4,0.1,0.7,0.1c0.1,0,0.2,0,0.3,0c0.1,0,0.2-0.1,0.3-0.3c0.2-0.1,0.3-0.1,0.3-0.1c0.3,0,0.5,0.1,0.5,0.3c0,0.1,0,0.2,0,0.3
		c0,0.1,0,0.2-0.1,0.3c-0.3,1.1-0.5,2.2-0.6,3.2c-0.2,1-0.3,2-0.3,3.1c0,0.3-0.3,0.5-0.9,0.5c-0.3,0-0.4-0.1-0.5-0.2
		c-0.1-0.1-0.1-0.5-0.1-1c-0.2-1.7-0.8-3-1.9-3.7S741.3,388.3,738.9,388.3z"/>
	<path d="M767.7,413.5c-0.5,0-0.7,0-0.8-0.1c-0.1-0.1-0.1-0.2-0.1-0.5c0-0.3,0-0.5,0.1-0.5c0.1,0,0.4-0.1,1-0.2
		c1.4-0.2,2.1-0.6,2.1-1.3c0-0.1,0-0.2,0-0.3c0-0.1-0.1-0.3-0.1-0.5c-0.1-0.2-0.2-0.6-0.3-1.1c-0.2-0.5-0.4-1.2-0.7-2
		c-0.3-0.8-0.5-1.5-0.7-2c-0.1-0.5-0.2-0.8-0.3-0.8c-0.2,0-0.4,0-0.7,0s-0.7,0-1.4,0s-1.7,0-2.9,0c-1.3,0-2.9,0-5,0
		c0,0.1-0.1,0.2-0.1,0.2c0,0.1-0.1,0.2-0.1,0.3c-0.1,0.1-0.1,0.3-0.2,0.5c-0.1,0.2-0.2,0.6-0.4,1c-0.3,0.9-0.6,1.6-0.8,2.1
		c-0.2,0.5-0.3,0.9-0.4,1.1c-0.1,0.3-0.1,0.4-0.1,0.6c0,0.1,0,0.3,0,0.4c0,0.3,0.1,0.6,0.3,0.9s0.5,0.5,0.8,0.6
		c0.3,0.1,0.5,0.2,0.7,0.2s0.7,0,1.5,0c0.3,0,0.5,0.2,0.5,0.6c0,0.3,0,0.5-0.1,0.6c-0.1,0.1-0.2,0.1-0.4,0.2h-2.9h-2
		c-0.6,0-1.1,0-1.6,0s-1,0-1.7,0.1h-1c-0.3,0-0.4-0.2-0.4-0.6c0-0.3,0.1-0.4,0.2-0.5c0.4-0.2,0.8-0.3,1.1-0.5c0.3-0.2,0.7-0.6,1-1.1
		c0.4-0.6,0.8-1.3,1.3-2.4c0.5-1,1.2-2.4,2-4.1c1.3-2.8,2.3-5,3-6.7c0.8-1.7,1.4-3.2,1.9-4.3c0.5-1.2,1-2.2,1.3-3.1
		c0.4-0.9,0.8-1.9,1.3-3.1c0.1-0.2,0.2-0.3,0.3-0.3c0.1,0,0.4-0.1,0.9-0.1l0.9-0.1c0.2,0,0.3-0.1,0.4-0.1c0.1,0,0.2,0,0.3,0
		c0.2,0,0.3,0,0.3,0.1c0,0.1,0.2,0.5,0.3,1.1c0.2,0.8,0.7,2.1,1.3,3.8c0.6,1.7,1.4,3.8,2.3,6.1c0.6,1.6,1.2,3.1,1.7,4.5
		c0.5,1.4,1,2.6,1.4,3.7c0.6,1.5,1,2.6,1.3,3.4c0.3,0.8,0.6,1.4,0.9,1.8s0.5,0.7,0.7,0.8c0.2,0.1,0.5,0.2,0.8,0.3
		c0.3,0.1,0.5,0.3,0.5,0.6c0,0.4-0.2,0.6-0.7,0.6h-1H767.7z M767.3,402.6c-0.2-0.5-0.3-0.9-0.5-1.3c-0.2-0.4-0.3-0.9-0.5-1.3
		c-0.2-0.5-0.4-1-0.6-1.5c-0.2-0.6-0.5-1.2-0.7-2c-0.3-0.7-0.5-1.3-0.7-1.8c-0.2-0.5-0.4-0.9-0.5-1.3c-0.1-0.4-0.3-0.7-0.4-1
		c-0.1-0.3-0.2-0.6-0.4-1c-1.2,2.9-2.2,5.2-2.9,7.1c-0.8,1.9-1.3,3.2-1.7,4.2H767.3z"/>
	<g class="logojuegocartasst0">
		<path d="M781.4,386.7c0.5,0,1.1,0.1,1.8,0.1c0.8,0,1.4,0,2,0c0.3,0,0.8,0,1.4,0c0.6,0,1.4,0,2.2-0.1c0.6,0,1.3-0.1,1.8-0.1
			c0.6,0,1.1,0,1.6,0c6.5,0,9.8,2.4,9.8,7.1c0,3.2-1.7,5.6-5.1,7.2c2.1,4,4,6.9,5.6,8.7c1.6,1.8,3.2,2.7,4.8,2.7
			c0.3,0,0.5,0,0.7-0.1c0,0,0.1-0.1,0.2-0.1c0.1,0,0.2,0.2,0.2,0.7c0,0.3-0.2,0.6-0.7,0.7c-0.5,0.1-1.2,0.2-2.4,0.2
			c-1.3,0-2.5-0.2-3.6-0.5c-1.1-0.4-2.1-1-3-1.9c-1-0.9-1.9-2-2.8-3.5c-0.9-1.4-1.9-3.2-2.9-5.4c-0.2-0.3-0.3-0.5-0.5-0.5
			c0,0-0.1,0-0.1,0c0,0-0.2,0-0.4,0.1c-0.3,0.1-0.5,0.1-0.8,0.1c-0.3,0-0.5,0-0.9,0c-0.4,0-0.8,0-1.1,0c-0.3,0-0.7,0-1.1-0.1
			c0,1.6,0.1,3.1,0.1,4.3c0,1.2,0,2.2,0.1,3c0,0.6,0.1,1,0.2,1.4c0.1,0.4,0.3,0.6,0.5,0.8c0.2,0.2,0.6,0.3,1.1,0.4s1.1,0.1,1.8,0.1
			c0.3,0,0.5,0.2,0.5,0.5c0,0.3,0,0.5-0.1,0.6c-0.1,0.1-0.2,0.1-0.5,0.1h-11.4c-0.4,0-0.7,0-0.7-0.1c-0.1,0-0.1-0.2-0.1-0.5
			s0-0.5,0.1-0.5s0.4-0.1,0.9-0.2c0.7-0.1,1.2-0.3,1.7-0.5s0.7-0.5,1-0.9s0.4-1,0.4-1.7c0.1-0.7,0.1-1.6,0.1-2.7v-14.3
			c0-0.8,0-1.5-0.1-2c0-0.5-0.2-0.9-0.4-1.2c-0.2-0.3-0.5-0.5-0.9-0.6c-0.4-0.1-0.9-0.2-1.5-0.3c-0.5,0-0.9,0-1-0.1
			c-0.1-0.1-0.2-0.2-0.2-0.5c0-0.3,0-0.6,0.1-0.7c0.1-0.1,0.2-0.2,0.5-0.2H781.4z M788.1,400.6c0.7,0.1,1.1,0.1,1.5,0.1
			c0.3,0,0.6,0,0.9,0c2.1,0,3.7-0.5,4.8-1.6c1.1-1.1,1.7-2.6,1.7-4.6c0-2.2-0.6-3.9-1.7-4.9c-1.1-1.1-2.9-1.6-5.3-1.6
			c-0.8,0-1.4,0.1-1.6,0.4c-0.2,0.3-0.3,0.9-0.3,1.8v5.2L788.1,400.6z"/>
	</g>
	<g class="logojuegocartasst0">
		<path d="M821.8,404.5c0,1.4,0.1,2.5,0.1,3.4c0,0.8,0,1.4,0.1,1.7c0,0.5,0.1,1,0.2,1.3c0.1,0.3,0.3,0.6,0.5,0.8
			c0.2,0.2,0.5,0.4,0.9,0.4c0.4,0.1,0.9,0.1,1.6,0.1c0.6,0,0.9,0,1.1,0.1c0.1,0.1,0.2,0.2,0.2,0.5c0,0.5-0.1,0.7-0.4,0.7h-0.6
			c-0.1,0-0.3,0-0.7,0c-0.4,0-0.8,0-1.3,0c-0.5,0-1.1,0-1.8,0c-0.7,0-1.3,0-2,0h-5.3c-0.3,0-0.6,0.1-0.8,0.1s-0.4,0-0.5,0
			c-0.3,0-0.4-0.2-0.4-0.6c0-0.2,0-0.3,0-0.4c0-0.1,0.1-0.2,0.2-0.2c0.1-0.1,0.2-0.1,0.4-0.1c0.2,0,0.5,0,0.9-0.1
			c0.8-0.1,1.4-0.2,1.9-0.3c0.4-0.2,0.8-0.5,1-1c0.2-0.5,0.3-1.3,0.4-2.3c0.1-1,0.1-2.5,0.1-4.4l0.1-4.6l0.1-10.3
			c-1.9,0-3.5,0-4.6,0.1c-1.2,0.1-2.1,0.2-2.8,0.4c-0.7,0.2-1.2,0.6-1.5,1c-0.3,0.5-0.6,1.1-0.8,1.8c-0.1,0.5-0.3,0.8-0.6,0.8
			c-0.1,0-0.2,0-0.3-0.1h-0.3c-0.2,0-0.3-0.1-0.3-0.2c0,0,0-0.2,0.1-0.5c0.1-0.3,0.1-0.7,0.2-1.1c0.1-0.4,0.2-0.9,0.3-1.4
			c0.1-0.5,0.2-0.9,0.3-1.3c0.3-1.1,0.5-1.8,0.5-2c0.1-0.2,0.1-0.3,0.3-0.3c0.2,0,0.3,0,0.3,0c0.1,0,0.3,0.1,0.7,0.3
			c0.2,0.1,1.2,0.1,3,0.2c1.8,0.1,4.3,0.1,7.6,0.1c1,0,2,0,3,0c1,0,1.9,0,2.8,0c0.9,0,1.7,0,2.4-0.1c0.7,0,1.3,0,1.7,0
			c0.5,0,0.9-0.1,1.2-0.1c0.3,0,0.5,0,0.7-0.1c0.2,0,0.3,0,0.4-0.1c0.1,0,0.2-0.1,0.4-0.2c0,0,0.2-0.1,0.3-0.1
			c0.3,0,0.4,0.1,0.4,0.3c0,0.1,0,0.3-0.1,0.7c-0.1,0.3-0.1,0.7-0.2,1.2s-0.2,1-0.3,1.5c-0.1,0.5-0.3,1.1-0.4,1.5
			c-0.2,0.9-0.4,1.4-0.5,1.6c-0.1,0.2-0.3,0.3-0.6,0.3c-0.4,0-0.6-0.2-0.6-0.5l0.1-0.9c0-0.2,0.1-0.4,0.1-0.7c0-1.1-0.4-1.8-1.3-2
			c-0.5-0.1-1.3-0.2-2.5-0.3c-1.2-0.1-2.4-0.1-3.8-0.1h-1.1V404.5z"/>
	</g>
	<g class="logojuegocartasst0">
		<path d="M850.1,413.5c-0.5,0-0.7,0-0.8-0.1c-0.1-0.1-0.1-0.2-0.1-0.5c0-0.3,0-0.5,0.1-0.5c0.1,0,0.4-0.1,1-0.2
			c1.4-0.2,2.1-0.6,2.1-1.3c0-0.1,0-0.2,0-0.3c0-0.1-0.1-0.3-0.1-0.5s-0.2-0.6-0.3-1.1c-0.2-0.5-0.4-1.2-0.7-2
			c-0.3-0.8-0.5-1.5-0.7-2c-0.1-0.5-0.2-0.8-0.3-0.8c-0.2,0-0.4,0-0.7,0c-0.3,0-0.7,0-1.4,0s-1.7,0-2.9,0s-2.9,0-5,0
			c0,0.1-0.1,0.2-0.1,0.2c0,0.1-0.1,0.2-0.1,0.3c-0.1,0.1-0.1,0.3-0.2,0.5c-0.1,0.2-0.2,0.6-0.4,1c-0.3,0.9-0.6,1.6-0.8,2.1
			s-0.3,0.9-0.4,1.1c-0.1,0.3-0.1,0.4-0.1,0.6c0,0.1,0,0.3,0,0.4c0,0.3,0.1,0.6,0.3,0.9c0.2,0.3,0.5,0.5,0.8,0.6
			c0.3,0.1,0.5,0.2,0.7,0.2c0.2,0,0.7,0,1.5,0c0.3,0,0.5,0.2,0.5,0.6c0,0.3,0,0.5-0.1,0.6c-0.1,0.1-0.2,0.1-0.4,0.2h-2.9h-2
			c-0.6,0-1.1,0-1.6,0s-1,0-1.7,0.1h-1c-0.3,0-0.4-0.2-0.4-0.6c0-0.3,0.1-0.4,0.2-0.5c0.4-0.2,0.8-0.3,1.1-0.5
			c0.3-0.2,0.7-0.6,1-1.1c0.4-0.6,0.8-1.3,1.3-2.4c0.5-1,1.2-2.4,2-4.1c1.3-2.8,2.3-5,3-6.7c0.8-1.7,1.4-3.2,1.9-4.3
			c0.5-1.2,1-2.2,1.3-3.1c0.4-0.9,0.8-1.9,1.3-3.1c0.1-0.2,0.2-0.3,0.3-0.3c0.1,0,0.4-0.1,0.9-0.1l0.9-0.1c0.2,0,0.3-0.1,0.4-0.1
			c0.1,0,0.2,0,0.3,0c0.2,0,0.3,0,0.3,0.1c0,0.1,0.2,0.5,0.3,1.1c0.2,0.8,0.7,2.1,1.3,3.8s1.4,3.8,2.3,6.1c0.7,1.6,1.2,3.1,1.8,4.5
			c0.5,1.4,1,2.6,1.4,3.7c0.6,1.5,1,2.6,1.3,3.4c0.3,0.8,0.6,1.4,0.9,1.8c0.2,0.4,0.5,0.7,0.7,0.8c0.2,0.1,0.5,0.2,0.8,0.3
			c0.3,0.1,0.5,0.3,0.5,0.6c0,0.4-0.2,0.6-0.7,0.6h-1H850.1z M849.7,402.6c-0.2-0.5-0.3-0.9-0.5-1.3c-0.2-0.4-0.3-0.9-0.5-1.3
			s-0.4-1-0.6-1.5c-0.2-0.6-0.5-1.2-0.7-2c-0.3-0.7-0.5-1.3-0.7-1.8c-0.2-0.5-0.4-0.9-0.5-1.3c-0.1-0.4-0.3-0.7-0.4-1
			c-0.1-0.3-0.2-0.6-0.4-1c-1.2,2.9-2.2,5.2-2.9,7.1c-0.8,1.9-1.3,3.2-1.7,4.2H849.7z"/>
		<path d="M864.4,413.2c-0.1,0-0.2,0.1-0.5,0.2c-0.1,0.1-0.4,0.2-0.7,0.2c-0.2,0-0.3,0-0.3-0.1c0-0.1-0.1-0.2-0.2-0.5
			c-0.1-0.4-0.2-0.9-0.3-1.5c-0.1-0.6-0.2-1.2-0.3-1.8c-0.1-0.6-0.1-1.2-0.2-1.7c-0.1-0.5-0.1-1-0.1-1.3c0-0.6,0.1-0.9,0.2-1.1
			c0.1-0.2,0.4-0.2,0.9-0.2c0.2,0,0.3,0,0.4,0.1c0.1,0.1,0.2,0.3,0.2,0.6c0.3,1.8,1.1,3.3,2.5,4.2c1.3,1,3.1,1.5,5.3,1.5
			c1.7,0,3.1-0.4,4-1.1c1-0.8,1.4-1.9,1.4-3.3c0-0.6-0.1-1.2-0.3-1.8c-0.2-0.5-0.5-1-1-1.4s-1.1-0.9-2-1.3c-0.8-0.4-1.8-0.9-3.1-1.4
			c-1.5-0.6-2.7-1.1-3.7-1.7c-1-0.5-1.8-1.1-2.4-1.7c-0.6-0.6-1-1.2-1.3-1.9c-0.2-0.7-0.4-1.4-0.4-2.3c0-1.1,0.3-2.2,0.8-3.2
			c0.5-1,1.3-1.9,2.3-2.6c0.8-0.6,1.7-1,2.7-1.3c1-0.2,2.2-0.4,3.6-0.4c0.4,0,0.7,0,0.9,0s0.5,0,0.8,0.1c0.3,0,0.7,0.1,1.1,0.1
			c0.5,0,1.1,0.1,2,0.2c0.2,0,0.4,0.1,0.5,0.1c0.1,0,0.3,0,0.4,0c0.1,0,0.2,0,0.3,0c0.1,0,0.2,0,0.3-0.1c0.1,0,0.2-0.1,0.3-0.1
			c0.2,0,0.2,0.1,0.3,0.2c0,0.1,0,0.6,0,1.5c0,0.7,0,1.4,0.1,2.2c0,0.8,0.1,1.5,0.2,2.1c0,0.2,0.1,0.3,0.1,0.5
			c0,0.3-0.3,0.5-0.9,0.5c-0.2,0-0.4,0-0.5-0.1c-0.1-0.1-0.2-0.2-0.2-0.4c-0.3-1.1-0.5-1.8-0.8-2.3c-0.2-0.5-0.6-0.9-1.1-1.3
			c-0.5-0.4-1.2-0.7-2-0.9c-0.8-0.2-1.5-0.3-2.4-0.3c-1.5,0-2.6,0.4-3.5,1.1c-0.9,0.7-1.3,1.7-1.3,3c0,0.7,0.1,1.2,0.3,1.7
			c0.2,0.5,0.6,0.9,1.1,1.4c0.5,0.4,1.3,0.9,2.2,1.3c1,0.4,2.2,1,3.8,1.6c2.5,1,4.3,2.1,5.3,3.2s1.6,2.6,1.6,4.3
			c0,2.4-0.9,4.3-2.8,5.7c-1.9,1.3-4.5,2-7.8,2c-1,0-1.9,0-2.8-0.1c-0.9-0.1-1.7-0.2-2.5-0.3c-0.4-0.1-0.7-0.1-0.7-0.1
			C864.6,413.2,864.5,413.2,864.4,413.2z"/>
	</g>
</g>
</svg>
