<?xml version="1.0" encoding="utf-8"?>
<!-- Generator: Adobe Illustrator 25.3.0, SVG Export Plug-In . SVG Version: 6.00 Build 0)  -->
<svg version="1.1" xmlns="http://www.w3.org/2000/svg" xmlns:xlink="http://www.w3.org/1999/xlink" x="0px" y="0px"
	 viewBox="0 0 333.8 255.22" xml:space="preserve">
<style type="text/css">
	.logosummer22st0{fill:url(#SVGID_1_);}
	.logosummer22st1{fill:#BF6AEC;}
	.logosummer22st2{fill:url(#SVGID_2_);}
	.logosummer22st3{opacity:0.75;fill:#0A2C5C;}
	.logosummer22st4{fill:none;stroke:#FEB654;stroke-width:4;stroke-miterlimit:10;}
	.logosummer22st5{fill:#FEB654;}
	.logosummer22st6{fill:#0A2C5C;}
	.logosummer22st7{fill:#FFFFFF;}
	.logosummer22st8{clip-path:url(#SVGID_4_);}
	.logosummer22st9{fill:#D32300;}
	.logosummer22st10{fill:#F8BE1D;}
	.logosummer22st11{fill:url(#SVGID_5_);}
	.logosummer22st12{fill:url(#SVGID_6_);}
	.logosummer22st13{fill:#89563A;}
	.logosummer22st14{fill:#A95F32;}
	.logosummer22st15{fill:#5D3722;}
	.logosummer22st16{fill:none;stroke:#BF6AEC;stroke-miterlimit:10;}
	.logosummer22st17{fill:url(#SVGID_7_);}
	.logosummer22st18{fill:url(#SVGID_8_);}
	.logosummer22st19{fill:#D68CEC;}
	.logosummer22st20{fill:#DEAFEC;}
	.logosummer22st21{fill:#BC18EC;}
	.logosummer22st22{fill:#CE6AEC;}
	.logosummer22st23{fill:url(#SVGID_9_);}
	.logosummer22st24{fill:#133A5C;}
	.logosummer22st25{fill:#53585C;}
	.logosummer22st26{fill:#414F5C;}
	.logosummer22st27{fill:#2A455C;}
	.logosummer22st28{fill:url(#SVGID_10_);}
	.logosummer22st29{fill:none;}
	.logosummer22st30{fill:url(#SVGID_11_);}
	.logosummer22st31{fill:none;stroke:#FFFFFF;stroke-width:3.1503;stroke-miterlimit:10;}
	.logosummer22st32{fill:none;stroke:#FEB654;stroke-miterlimit:10;}
	.logosummer22st33{fill:none;stroke:#BF6AEC;stroke-width:4;stroke-miterlimit:10;}
	.logosummer22st34{fill:none;stroke:#FFFFFF;stroke-miterlimit:10;}
	.logosummer22st35{opacity:0.44;}
	.logosummer22st36{fill:#FF1C00;}
	.logosummer22st37{fill:#F99E32;}
</style>
<g>
	<g>
		<circle cx="166.9" cy="127.61" r="127.61"/>
	</g>
	<g>
		<circle class="logosummer22st36" cx="166.9" cy="127.61" r="91.1"/>
	</g>
	<g>
		<circle class="logosummer22st37" cx="166.9" cy="127.61" r="63.79"/>
	</g>
	<path d="M290.47,214.25H43.32C19.4,214.25,0,194.86,0,170.93v0c0-23.93,19.4-43.32,43.32-43.32h247.15
		c23.93,0,43.32,19.4,43.32,43.32v0C333.8,194.86,314.4,214.25,290.47,214.25z"/>
	<rect x="131.8" y="197.06" width="69.82" height="45.58"/>
	<path class="logosummer22st36" d="M158.76,225.84h8.33l-0.35,12.72h-32.01c-0.04-0.82-0.06-1.24-0.06-1.26c0-3.78,0.81-7.18,2.43-10.18
		c0.83-1.54,1.98-3.07,3.44-4.59c1.46-1.52,3.25-3.05,5.35-4.59c3.55-2.65,5.83-4.56,6.85-5.73c1.02-1.21,1.53-2.43,1.53-3.66
		c0-1.19-0.35-2.16-1.04-2.92c-0.69-0.76-1.73-1.14-3.12-1.14c-2.97,0-4.45,1.9-4.45,5.7l-10.35-0.32c0.21-4.66,1.74-7.97,4.6-9.92
		c2.87-1.93,6.49-2.9,10.87-2.9c4.78,0,8.65,1.11,11.62,3.33c2.97,2.24,4.45,5.17,4.45,8.78c0,2.32-0.75,4.47-2.25,6.44
		c-1.54,1.97-4.48,4.08-8.82,6.32c-3.51,1.79-5.86,3.15-7.05,4.07c-1.21,0.96-2.14,2.04-2.78,3.25h12.66L158.76,225.84z"/>
	<path class="logosummer22st36" d="M190.79,225.84h8.33l-0.35,12.72h-32.01c-0.04-0.82-0.06-1.24-0.06-1.26c0-3.78,0.81-7.18,2.43-10.18
		c0.83-1.54,1.98-3.07,3.44-4.59c1.46-1.52,3.25-3.05,5.35-4.59c3.55-2.65,5.83-4.56,6.85-5.73c1.02-1.21,1.53-2.43,1.53-3.66
		c0-1.19-0.35-2.16-1.04-2.92c-0.69-0.76-1.73-1.14-3.12-1.14c-2.97,0-4.45,1.9-4.45,5.7l-10.35-0.32c0.21-4.66,1.74-7.97,4.6-9.92
		c2.87-1.93,6.49-2.9,10.87-2.9c4.78,0,8.65,1.11,11.62,3.33c2.97,2.24,4.45,5.17,4.45,8.78c0,2.32-0.75,4.47-2.25,6.44
		c-1.54,1.97-4.48,4.08-8.82,6.32c-3.51,1.79-5.86,3.15-7.05,4.07c-1.21,0.96-2.14,2.04-2.78,3.25h12.66L190.79,225.84z"/>
	<g>
		<path class="logosummer22st36" d="M150.78,197.06c4.78,0,8.65,1.11,11.62,3.33c2.97,2.24,4.45,5.17,4.45,8.78c0,2.32-0.75,4.47-2.25,6.44
			c-1.54,1.97-4.48,4.08-8.82,6.32c-3.51,1.79-5.86,3.15-7.05,4.07c-1.21,0.96-2.14,2.04-2.78,3.25h12.66l0.14-3.39h8.33
			l-0.35,12.72h-32.01c-0.04-0.82-0.06-1.24-0.06-1.26c0-3.78,0.81-7.18,2.43-10.18c0.83-1.54,1.98-3.07,3.44-4.59
			c1.46-1.52,3.25-3.05,5.35-4.59c3.55-2.65,5.83-4.56,6.85-5.73c1.02-1.21,1.53-2.43,1.53-3.66c0-1.19-0.35-2.16-1.04-2.92
			c-0.69-0.76-1.73-1.14-3.12-1.14c-2.97,0-4.45,1.9-4.45,5.7l-10.35-0.32c0.21-4.66,1.74-7.97,4.6-9.92
			C142.78,198.02,146.4,197.06,150.78,197.06"/>
		<path class="logosummer22st36" d="M182.81,197.06c4.78,0,8.65,1.11,11.62,3.33c2.97,2.24,4.45,5.17,4.45,8.78c0,2.32-0.75,4.47-2.25,6.44
			c-1.54,1.97-4.48,4.08-8.82,6.32c-3.51,1.79-5.86,3.15-7.05,4.07c-1.21,0.96-2.14,2.04-2.78,3.25h12.66l0.14-3.39h8.33
			l-0.35,12.72h-32.01c-0.04-0.82-0.06-1.24-0.06-1.26c0-3.78,0.81-7.18,2.43-10.18c0.83-1.54,1.98-3.07,3.44-4.59
			c1.46-1.52,3.25-3.05,5.35-4.59c3.55-2.65,5.83-4.56,6.85-5.73c1.02-1.21,1.53-2.43,1.53-3.66c0-1.19-0.35-2.16-1.04-2.92
			c-0.69-0.76-1.73-1.14-3.12-1.14c-2.97,0-4.45,1.9-4.45,5.7l-10.35-0.32c0.21-4.66,1.74-7.97,4.6-9.92
			C174.81,198.02,178.44,197.06,182.81,197.06"/>
	</g>
	<g>
		<path class="logosummer22st37" d="M59.66,145.6c2.42-0.09,4.82,0.01,7.22,0.31c2.39,0.3,4.82,0.88,7.29,1.75c-0.09,0.78-0.14,1.34-0.14,1.71
			s0,0.92,0,1.68c0,0.75-0.02,1.89-0.07,3.42c-0.05,1.53-0.16,3.84-0.34,6.94c-1.46-0.59-3.15-1.14-5.06-1.64
			c-1.91-0.5-3.67-0.87-5.27-1.09c-0.91-0.09-1.79-0.07-2.63,0.07c-0.84,0.14-1.59,0.46-2.22,0.96c-0.5,0.5-0.58,1.03-0.24,1.57
			c0.34,0.55,0.76,0.98,1.27,1.3l7.8,2.53c1.64,0.5,3.15,1.21,4.51,2.12c1.37,0.91,2.55,1.97,3.56,3.18c1,1.21,1.79,2.54,2.36,4
			c0.57,1.46,0.86,3.01,0.86,4.65c0.04,2.42-0.33,4.6-1.13,6.53c-0.8,1.94-1.91,3.63-3.32,5.06c-1.41,1.44-3.11,2.6-5.1,3.49
			c-1.98,0.89-4.14,1.47-6.47,1.75c-0.32,0.05-0.8,0.08-1.44,0.1c-0.64,0.02-1.32,0.03-2.05,0.03c-1.37,0.05-2.69,0.02-3.97-0.07
			c-1.28-0.09-2.44-0.25-3.49-0.48c-1.23-0.27-2.5-0.62-3.8-1.03c-1.3-0.41-2.98-1-5.03-1.78l3.28-14.71
			c0.68,0.23,1.37,0.47,2.05,0.72c0.68,0.25,1.37,0.51,2.05,0.79l3.22,1.16c1.05,0.41,2.09,0.8,3.11,1.16
			c1.03,0.37,2.13,0.55,3.32,0.55c0.73-0.05,1.35-0.21,1.85-0.51c0.5-0.3,0.8-0.83,0.89-1.61c0-0.55-0.16-1.04-0.48-1.47
			c-0.32-0.43-0.72-0.8-1.2-1.09c-0.48-0.3-0.99-0.55-1.54-0.75c-0.55-0.21-1.07-0.37-1.57-0.51c-2.14-0.5-4.1-1.33-5.88-2.5
			c-1.78-1.16-3.32-2.51-4.62-4.04c-1.3-1.53-2.33-3.18-3.08-4.96c-0.75-1.78-1.13-3.56-1.13-5.34c0-1.46,0.21-2.87,0.62-4.24
			c0.41-1.37,1.06-2.63,1.95-3.8c0.89-1.16,2.01-2.19,3.35-3.08c1.34-0.89,2.95-1.56,4.82-2.02
			C55.83,145.88,57.79,145.6,59.66,145.6z"/>
		<path class="logosummer22st37" d="M117.12,146.08v31.67c0,2.55-0.5,4.96-1.51,7.22c-1,2.26-2.36,4.22-4.07,5.88
			c-1.71,1.67-3.71,2.99-5.99,3.97c-2.28,0.98-4.7,1.47-7.25,1.47c-2.55,0-4.96-0.49-7.22-1.47c-2.26-0.98-4.24-2.3-5.95-3.97
			c-1.71-1.66-3.07-3.63-4.07-5.88c-1-2.26-1.51-4.66-1.51-7.22v-31.67h14.37v30.99c0,1.14,0.44,2.13,1.33,2.98
			c0.89,0.84,1.9,1.27,3.04,1.27c1.19,0,2.22-0.42,3.11-1.27c0.89-0.84,1.33-1.84,1.33-2.98v-30.99H117.12z"/>
		<path class="logosummer22st37" d="M251.27,181.31v14.37h-34.41v-49.6h34.41v14.36h-20.04v4.45h16.76v12.04h-16.76v4.38H251.27z"/>
		<path class="logosummer22st37" d="M294.51,195.68h-15.46c-2.05-3.01-3.75-5.41-5.1-7.22c-1.35-1.8-2.44-3.16-3.28-4.07
			c-0.84-0.91-1.47-1.46-1.88-1.64c-0.41-0.18-0.7-0.16-0.86,0.07c-0.16,0.23-0.24,0.57-0.24,1.03s0,0.84,0,1.16v10.67h-14.37v-49.6
			h18.81c2.19,0,4.34,0.53,6.46,1.57c2.12,1.05,3.96,2.37,5.51,3.97c1.82,1.82,3.18,3.9,4.07,6.23c0.89,2.33,1.31,4.7,1.27,7.11
			c-0.05,2.42-0.56,4.8-1.54,7.15c-0.98,2.35-2.38,4.46-4.21,6.33L294.51,195.68z M275.56,164.35c0-1.32-0.46-2.44-1.37-3.35
			c-0.91-0.91-2.03-1.37-3.35-1.37h-3.28v9.51h3.28c1.32,0,2.44-0.47,3.35-1.4C275.1,166.8,275.56,165.67,275.56,164.35z"/>
		<path class="logosummer22st37" d="M133.54,170.02l8.96,12.11l9.1-12.11v20.44c5.65,0.13,10.47,1.59,14.37,4.36v-48.74H151.6l-9.1,12.04
			l-8.96-12.04h-14.37v49.6h14.37V170.02z"/>
		<path class="logosummer22st37" d="M200.44,146.08l-9.1,12.04l-8.96-12.04h-14.37v48.55c0.08-0.05,0.16-0.11,0.23-0.17
			c3.87-2.6,8.62-3.94,14.13-4.01v-20.43l8.96,12.11l9.1-12.11v25.65h14.37v-49.6H200.44z"/>
	</g>
</g>
</svg>
