<?xml version="1.0" encoding="utf-8"?>
<!-- Generator: Adobe Illustrator 25.3.0, SVG Export Plug-In . SVG Version: 6.00 Build 0)  -->
<svg version="1.1" xmlns="http://www.w3.org/2000/svg" xmlns:xlink="http://www.w3.org/1999/xlink" x="0px" y="0px"
	 viewBox="0 0 1080 190.69" xml:space="preserve">
<path d="M922.57,102.71c3.9,2.98,9.21,4.05,13.78,6.21c7.69,3.64,15.5,7.1,22.86,11.33c7,4.03,13.13,9.65,20.27,13.37
	c21.19,11.05,42.57,21.76,64.12,32.09c11.61,5.56,23.73,10.07,35.62,15.05c0.26-0.55,0.53-1.1,0.79-1.65
	c-2.06-1.34-4.09-2.72-6.18-4c-36.37-22.35-73.81-43.04-107.11-70.11c-3.91-3.18-8.68-5.31-13.13-7.79
	c-7.66-4.26-15.66-7.99-23.01-12.72c-6.22-3.99-11.95-8.83-17.5-13.75c-5.79-5.13-11.44-6.29-18.25-2.02
	c-8.05,5.06-16.58,9.39-24.49,14.63c-3.78,2.51-6.24,2.19-9.82-0.2c-12.11-8.09-24.16-16.39-36.88-23.44
	c-8.7-4.82-16.23-10.21-22.29-18.26c-9.28-12.33-12.16-12.12-22.04-0.34c-12.06,14.38-25.77,27.2-42.65,35.26
	c-10.25,4.89-17.27,10.86-20.81,21.57c-0.74,2.24-4.2,3.68-6.57,5.25c-5.11,3.39-12.17,5.46-15.14,10.16
	c-7.79,12.3-18.58,16.71-32.23,16.79c-6.8,0.04-12.02,2.94-17.19,7.67c-10.95,10.01-20.47,21.66-31.43,31.68
	c-9.07-5.39-18-10.87-25.28-19c-9.68-10.81-24.34-17.53-33.35-30.24c-1.7-2.4-6.6-4.4-9.45-3.81c-13.77,2.85-25.69-1.82-35.43-10.06
	c-14.15-11.99-26.94-25.6-40.09-38.74c-10.38-10.37-20.45-21.05-30.63-31.62c-4.22-4.38-8.6-4.57-13.11-0.56
	c-2.23,1.98-4.42,4.02-6.43,6.22c-13.43,14.69-26.78,29.46-40.23,44.13c-7.92,8.63-8.77,8.85-18.22,1.66
	c-35.81-27.26-71.53-54.65-107.22-82.06c-8.41-6.46-14.19-7.26-23.18-1.71c-4.83,2.99-9.64,6.34-13.6,10.37
	c-30.13,30.68-67.8,51.59-101.08,78.18C102.58,102.98,87.8,112,74.14,122.46c-21.54,16.49-42.66,33.53-63.92,50.38
	c-3.49,2.77-6.81,5.74-10.21,8.62c4.11-0.78,7.26-2.71,10.51-4.46c25.4-13.69,50.66-27.64,76.29-40.87
	c11.67-6.02,23.67-12.28,36.26-15.42c16.75-4.17,31.32-11.6,44.5-22.1c7.96-6.34,14.77-14.13,22.74-20.47
	c14.4-11.44,28.99-22.68,44.06-33.22c8.03-5.61,11.97-2.94,11.31,6.94c-0.55,8.17-2.05,16.28-3.01,24.43
	c-0.6,5.09,1.61,7.13,6.9,6.89c8.94-0.41,17.97-0.88,26.83,0c4.15,0.42,9.88,2.97,11.57,6.26c3.75,7.31,9.58,9.63,16.63,10.9
	c2.45,0.44,5.03,0.26,7.4,0.93c3.2,0.91,6.24,2.36,9.35,3.58c-2.14,2.84-3.91,6.09-6.51,8.42c-5,4.46-10.79,8.06-15.61,12.69
	c-2.27,2.18-4.37,5.95-4.29,8.93c0.36,12.96,0.34,15.04-11.91,18.83c-15.63,4.83-31.71,8.48-47.82,11.4
	c-32.55,5.89-65.27,10.9-97.89,16.38c-3.67,0.62-7.22,1.98-10.82,3c0.12,0.37,0.24,0.74,0.36,1.1
	c152.8,1.51,305.64,3.02,459.08,4.54c-0.16,0.19-0.28,0.34-0.46,0.54c4.41,0,6.89,0.03,9.36,0c6.41-0.08,12.82-0.17,19.23-0.26
	c9.31,0.09,18.59,0.18,27.9,0.28c-0.19-0.21-0.39-0.4-0.58-0.61c3.29-0.04,6.58-0.09,9.87-0.11c19.02-0.16,19.7-0.61,25.1-18.76
	c0.33-1.11,0.75-2.19,1.2-3.26c3.43-8.26,8.53-10.72,16.55-6.85c6.23,3,11.71,7.51,17.86,10.72c3.85,2.01,10.62,5.17,12.02,3.77
	c3.21-3.22,4.3-8.83,5.47-13.66c0.47-1.95-1.14-4.37-1.72-6.6c-1.68-6.5-3.79-12.93-4.84-19.53c-1.43-8.94,3-12.41,11.39-8.77
	c6.35,2.75,12.18,6.7,18.27,10.06c2.45,1.35,4.98,2.55,7.48,3.82c0.51-0.61,1.02-1.23,1.53-1.84c-6.12-7.76-12.15-15.6-18.39-23.26
	c-6.06-7.45-4.42-15.33,4.08-19.41c8.7-4.16,17.33-8.46,25.93-12.83c5.7-2.89,9.64-1.45,9.41,4.87c-0.25,6.72-2.08,13.55-4.25,19.98
	c-1.71,5.06-4.98,9.59-7.56,14.35c2.53,0.42,3.94,0.09,4.75-0.79c8.8-9.48,20.21-12.15,32.49-12.86c3.59-0.21,6.56-0.39,6.94,4.33
	c0.62,7.67-4.54,16.67-11.9,18.42c-6.97,1.66-9.22,5.99-8.66,12.1c0.98,10.71-4.75,16.62-13.23,21.53c-7.8,4.52-15.24,9.72-22.57,15
	c-2.38,1.71-3.91,4.6-5.82,6.94c0.33,0.61,0.65,1.23,0.98,1.84c2.62,0,5.43,0.61,7.84-0.1c12.49-3.7,25.02-7.43,32.69-19.42
	c1.33-2.08,3.43-3.8,5.48-5.26c8.08-5.75,8.13-5.69,9.93-16.04c3.26,2.82,5.83,5.1,8.46,7.31c4.56,3.81,8.78,8.22,13.84,11.21
	c6.68,3.95,14.03,6.76,21.09,10.08c1.76,0.83,3.51,1.71,5.26,2.56c-2.55-4.58-6.26-7.74-9.6-11.24
	c-7.21-7.54-14.37-15.14-21.24-22.98c-1.31-1.49-1.19-4.23-1.73-6.4c2.08-0.5,4.15-1.16,6.26-1.46c1.75-0.24,3.55-0.05,6.21-0.05
	c-0.43-2.91-1.21-5.35-1.04-7.72c0.22-3.02,0.34-6.84,2.16-8.67c1.24-1.24,5.8-0.5,8.04,0.8c11.59,6.72,23.21,13.46,34.23,21.05
	c12.24,8.43,13.04,14.67,4.84,27.26c-2.98,4.57-6.32,8.9-10.18,14.31c3.69,0.24,6.16,0.42,8.64,0.55
	c12.78,0.66,23.59-3.83,32.69-12.65c5.72-5.55,11.74-5.05,17.45-0.41c10.71,8.72,23.26,10.8,36.5,11.26
	c14.82,0.51,29.63,1.67,44.45,2.1c12.48,0.36,24.97,0.07,37.46,0.07c0.17-0.58,0.35-1.16,0.52-1.74
	c-11.23-4.9-22.61-9.47-33.62-14.82c-7.39-3.6-14.26-8.28-21.32-12.56c-3.32-2.02-6.49-4.29-9.79-6.35
	c-11.14-6.95-22.98-13.01-33.23-21.08c-7.34-5.78-13.46-9.75-23.54-8.09c-15.34,2.53-28.16-4.06-39.94-15.15
	c4.68-2.05,8.27-3.63,11.87-5.19C910.91,97.61,916.63,98.17,922.57,102.71z M397.61,100.76c0.97-1.89,1.77-3.68,2.76-5.35
	c4.83-8.16,6.12-8.97,13.62-3.78c6.6,4.56,11.51,2.78,17.37-1c11.13-7.19,9.02-7.19,16.58,2.83c12.38,16.43,24.66,32.93,36.94,49.44
	c1.27,1.71,2.21,3.65,2.37,6.65C457.63,133.43,428.01,117.3,397.61,100.76z"/>
</svg>
