<?xml version="1.0" encoding="utf-8"?>
<!-- Generator: Adobe Illustrator 25.3.0, SVG Export Plug-In . SVG Version: 6.00 Build 0)  -->
<svg version="1.1" xmlns="http://www.w3.org/2000/svg" xmlns:xlink="http://www.w3.org/1999/xlink" x="0px" y="0px"
	 viewBox="0 0 1080 1080" xml:space="preserve">
<style type="text/css">
	.menuGraphSunst0{fill:#FEB654;}
	.menuGraphSunst1{fill:#FFFFFF;}
	.menuGraphSunst2{fill:#F8BE1D;}
</style>
<g>
	<circle class="menuGraphSunst0" cx="540" cy="540" r="389.44"/>
	<circle class="menuGraphSunst1" cx="540" cy="540" r="237.47"/>
	<circle class="menuGraphSunst2" cx="540" cy="540" r="197.54"/>
	<path class="menuGraphSunst0" d="M540,109.9c24.14,0,47.81,2.02,70.87,5.85L544.04,0l-66.03,114.36C498.26,111.44,518.95,109.9,540,109.9z"/>
	<path class="menuGraphSunst0" d="M287.19,192.04c19.53-14.19,39.87-26.47,60.77-36.93l-122.09-54.36l13.8,131.33
		C254.33,217.82,270.16,204.41,287.19,192.04z"/>
	<path class="menuGraphSunst0" d="M130.95,407.09c7.46-22.96,16.7-44.84,27.46-65.59L27.68,369.29l88.36,98.14
		C119.52,447.27,124.44,427.11,130.95,407.09z"/>
	<path class="menuGraphSunst0" d="M130.95,672.91c-7.46-22.96-12.85-46.09-16.34-69.21l-89.43,99.32l129.17,27.46
		C145.31,712.13,137.45,692.93,130.95,672.91z"/>
	<path class="menuGraphSunst0" d="M287.19,887.96c-19.53-14.19-37.49-29.74-53.9-46.38l-13.97,132.92l120.64-53.71
		C321.87,911.25,304.22,900.33,287.19,887.96z"/>
	<path class="menuGraphSunst0" d="M540,970.1c-24.14,0-47.81-2.02-70.87-5.85L535.96,1080l66.03-114.36C581.74,968.56,561.05,970.1,540,970.1z"
		/>
	<path class="menuGraphSunst0" d="M792.81,887.96c-19.53,14.19-39.87,26.47-60.77,36.93l122.09,54.36l-13.8-131.33
		C825.67,862.18,809.84,875.59,792.81,887.96z"/>
	<path class="menuGraphSunst0" d="M949.05,672.91c-7.46,22.96-16.7,44.84-27.46,65.59l130.73-27.79l-88.36-98.14
		C960.48,632.73,955.56,652.89,949.05,672.91z"/>
	<path class="menuGraphSunst0" d="M949.05,407.09c7.46,22.96,12.85,46.09,16.34,69.21l89.43-99.32l-129.17-27.46
		C934.69,367.87,942.55,387.07,949.05,407.09z"/>
	<path class="menuGraphSunst0" d="M792.81,192.04c19.53,14.19,37.49,29.74,53.9,46.38l13.97-132.92l-120.64,53.71
		C758.13,168.75,775.78,179.67,792.81,192.04z"/>
</g>
</svg>
