<?xml version="1.0" encoding="utf-8"?>
<!-- Generator: Adobe Illustrator 25.3.0, SVG Export Plug-In . SVG Version: 6.00 Build 0)  -->
<svg version="1.1" xmlns="http://www.w3.org/2000/svg" xmlns:xlink="http://www.w3.org/1999/xlink" x="0px" y="0px"
	 viewBox="0 0 1080 392.02" xml:space="preserve">
<g>
	<path d="M1080,392.02H0V0h1080V392.02z M10.38,381.63h1059.23V10.38H10.38V381.63z"/>
	<path d="M215.06,117.63l2.34,88.45c0.42,14.02,2.86,21.83,7.35,23.37c0.44,0,3.17,0.49,8.23,1.06c4.21,0.55,6.31,1.25,6.31,2.1
		c0,1.4-1.61,2.1-4.83,2.1c-5.35,0-10.9-0.1-16.64-0.31l-9.48-0.31l-8,0.31c-5.48,0.21-10.38,0.31-14.75,0.31
		c-3.09,0-4.65-0.7-4.65-2.1c0-0.99,1.82-1.61,5.48-1.9l7.37-0.86c2.84-1.11,4.84-3.69,5.19-6.72c0.94-6.42,1.36-12.91,1.27-19.39
		l1.9-124.62c0-4.75,1.04-7.14,2.6-7.14c1.12,0,3.71,2.18,7.79,6.52c11.51,12.36,33.27,34.86,65.29,67.5
		c14.31,14.88,29.75,30.89,46.32,48h1.06l-2.1-94.55c-0.01-3.59-0.3-7.17-0.86-10.72c-0.63-3.61-2.99-6.68-6.31-8.23
		c-3.63-1.03-7.4-1.45-11.16-1.25c-2.26,0-3.38-0.65-3.38-1.9s1.82-1.9,5.48-1.9c4.21,0,9.27,0,15.16,0.31
		c5.89,0.31,9.35,0.31,10.38,0.31l7.37-0.31c4.78-0.21,9.19-0.31,13.27-0.31c3.25,0,4.85,0.62,4.85,1.9c0,1.27-1.27,1.9-3.79,1.9
		c-7.04,0-11.29,2.31-12.98,6.93c-0.85,3.8-1.27,7.68-1.27,11.58l-2.31,132.9c0,4.34-1.04,6.52-2.6,6.52s-3.95-1.53-7.17-4.62
		c-13.47-13.34-34.17-33.98-62.13-61.92c-9.55-9.4-20.29-20.56-32.22-33.49l-17.89-19.57L215.06,117.63z"/>
	<path d="M395.96,167.32v-30.74c0-25.13-0.14-40.02-0.42-44.65c-0.45-6.72-3.47-10.71-9.06-11.99c-2.71-0.48-5.46-0.69-8.2-0.62
		c-2.39,0-3.58-0.65-3.58-1.9s1.53-1.9,4.62-1.9c4.07,0,9.79,0.1,17.16,0.31c7.37,0.21,11.89,0.31,13.58,0.31
		c1.69,0,5.58,0,12.12-0.31s11.11-0.31,13.79-0.31c3.09,0,4.62,0.62,4.62,1.9c0,1.27-1.12,1.9-3.35,1.9
		c-2.06,0.04-4.11,0.24-6.13,0.62c-4.76,0.87-7.36,4.87-7.79,12.02c-0.29,4.66-0.43,19.56-0.42,44.71v29.49
		c0,25.6,5.48,42.91,16.43,51.92c7.47,5.92,16.8,8.98,26.33,8.65c10.84,0.37,21.35-3.76,29.05-11.4
		c5.69-6.22,9.36-14.01,10.54-22.35c1.34-9.93,1.9-19.94,1.69-29.96v-26.35c0-25.15-0.15-40.05-0.44-44.71
		c-0.42-6.75-3.43-10.76-9.03-12.02c-2.5-0.46-5.04-0.67-7.58-0.62c-2.39,0-3.58-0.62-3.58-1.9c0-1.27,1.45-1.9,4.41-1.9
		c6.18,0,14.25,0.21,24.22,0.62l9.89-0.31c6.18-0.21,10.88-0.31,14.12-0.31s4.41,0.62,4.41,1.9c0,1.27-1.27,1.9-3.79,1.9
		c-2.05,0.04-4.09,0.24-6.1,0.62c-4.78,0.83-7.37,4.85-7.79,11.99c-0.26,4.66-0.4,19.54-0.42,44.65v22.53
		c0.28,11.67-0.85,23.34-3.37,34.74c-2.41,11.02-8.23,21.01-16.62,28.56c-11.82,10.12-26.42,15.18-43.8,15.16
		c-20.51,0-36.09-4.84-46.73-14.51C402.21,211.88,395.95,193.3,395.96,167.32z"/>
	<path d="M593.92,117.63l2.31,88.45c0.42,14.02,2.88,21.83,7.37,23.37c0.42,0,3.14,0.49,8.2,1.06c4.21,0.55,6.31,1.25,6.31,2.1
		c0,1.4-1.61,2.1-4.83,2.1c-5.35,0-10.88,0-16.64-0.31l-9.48-0.31l-8,0.31c-5.48,0.21-10.38,0.31-14.75,0.31
		c-3.09,0-4.62-0.7-4.62-2.1c0-0.99,1.82-1.61,5.45-1.9l7.37-0.86c2.85-1.1,4.85-3.69,5.19-6.72c0.94-6.42,1.36-12.91,1.27-19.39
		l1.9-124.62c0.13-4.75,1.04-7.14,2.73-7.14c1.12,0,3.71,2.18,7.79,6.52c11.53,12.36,33.29,34.86,65.29,67.5
		c14.3,14.88,29.73,30.89,46.32,48h1.06l-2.1-94.55c0-3.59-0.29-7.18-0.86-10.72c-0.61-3.6-2.93-6.68-6.23-8.26
		c-3.63-1.03-7.4-1.45-11.16-1.25c-2.23,0-3.38-0.65-3.38-1.9s1.84-1.9,5.48-1.9c4.21,0,9.27,0,15.16,0.31
		c5.89,0.31,9.35,0.31,10.38,0.31l7.37-0.31c4.75-0.21,9.19-0.31,13.27-0.31c3.22,0,4.83,0.62,4.83,1.9s-1.27,1.9-3.79,1.9
		c-6.92,0-11.21,2.31-12.85,6.93c-0.85,3.8-1.27,7.68-1.25,11.58l-2.34,132.9c-0.13,4.34-1.04,6.52-2.73,6.52
		c-1.69,0-3.92-1.53-7.17-4.62c-13.47-13.34-34.17-33.98-62.13-61.92c-9.54-9.4-20.28-20.56-32.22-33.49l-17.97-19.5H593.92z"/>
	<path d="M839.23,179.76h-46.96c-0.83,0-1.45,0.55-1.9,1.69L779,211.56c-1.74,4.07-2.81,8.41-3.14,12.83c0,4.36,2.8,6.54,8.41,6.54
		h3.17c2.1,0,3.14,0.57,3.14,1.69s-1.19,2.1-3.56,2.1s-6.02,0-11.27-0.31s-8.96-0.31-11.06-0.31c-12.24,0.42-20.52,0.62-24.85,0.62
		c-2.6,0-4-0.7-4-2.1s0.83-1.69,2.6-1.69c2.18,0,4.35-0.14,6.52-0.42c4.29-0.46,8.22-2.59,10.96-5.92
		c2.97-3.95,5.31-8.32,6.96-12.98l52.86-132.25c2.23-5.63,4.21-8.44,5.89-8.44s3.3,2.26,5.19,6.75
		c12.89,32.56,30.3,75.72,52.21,129.5c5.9,13.85,12.08,21.5,18.54,22.95c2.91,0.61,5.88,0.9,8.85,0.86c1.82,0,2.73,0.57,2.73,1.69
		s-0.7,1.4-2.1,1.69c-2.51,0.34-5.05,0.48-7.58,0.42c-17.41,0-30.68-0.14-39.8-0.42c-4.21-0.16-6.31-0.7-6.31-1.69
		c0-0.99,0.96-1.77,2.93-1.9c2.26-0.7,2.88-2.34,1.9-4.85l-16.85-44.63C841.06,180.37,840.2,179.74,839.23,179.76z M796.5,169.22
		h38.73c0.99,0,1.32-0.42,1.06-1.25l-18.95-51.92c-0.29-1.27-0.65-1.9-1.06-1.9s-0.99,0.62-1.27,1.9l-19.37,51.92
		C795.37,168.8,795.65,169.22,796.5,169.22L796.5,169.22z"/>
	<path d="M114.23,291.65l4.65,1.74l-14.54,38.01h-0.88l-14.59-38.03l4.67-1.74l10.31,27.7L114.23,291.65z"/>
	<path d="M139.7,326.1h5.19v-29.15h-5.19v-4.36h15.58v4.36h-5.37v29.15h5.37v4.36H139.7V326.1z"/>
	<path d="M177.91,292.59h12.67c10.75,0,15.58,4.44,15.58,18.46c0,11.86-2.05,19.42-15.58,19.42h-12.67v-4.36h3.95v-29.15h-3.95
		V292.59z M186.71,326.1h5.19c6.39,0,9.24-3.63,9.24-14.54c0-11.63-3.35-14.62-9.4-14.62h-5.01L186.71,326.1z"/>
	<path d="M228.02,320.13l-3.58,11.27l-4.78-1.74l11.92-37.07h6.26l11.92,37.12l-4.8,1.74l-3.5-11.32H228.02z M234.69,298.25
		l-5.37,17.52h10.75L234.69,298.25z"/>
	<path d="M282.46,319.69v3.3c-0.4,5.08-3.48,9.56-8.07,11.76l-1.66-4c2.14-1.49,3.3-4.03,3.04-6.62v-4.44L282.46,319.69z"/>
	<path d="M360.37,330.46h-4.85v-37.88h11.76c8.8,0,12.23,4.8,12.23,10.38c0.44,5.72-3.85,10.71-9.56,11.15
		c-0.43,0.03-0.86,0.04-1.29,0.02h-8.15L360.37,330.46z M367.07,309.82c4.8,0,7.35-2.18,7.35-6.54c0-5.19-3.35-6.33-7.35-6.33h-6.7
		v12.98L367.07,309.82z"/>
	<path d="M402.4,320.13l-3.56,11.27l-4.75-1.69l11.94-37.07h6.23l11.94,37.07l-4.8,1.74l-3.5-11.27L402.4,320.13z M409.1,298.25
		l-5.37,17.52h10.75L409.1,298.25z"/>
	<path d="M444.85,318.47c0.93,4.65,3.19,8.07,8.28,8.07c3.47,0.43,6.64-2.03,7.07-5.51c0.04-0.3,0.05-0.6,0.05-0.91
		c0-4.65-3.92-5.82-7.63-7.35c-5.5-2.31-10.75-3.76-10.75-10.88c0-6.41,5.19-9.97,11.11-9.97s10.05,3.63,11.58,9.53l-4.67,1.38
		c-0.86-3.71-2.83-6.33-6.96-6.33c-3.14,0-6.18,1.61-6.18,5.01c0,3.4,2.18,4.6,5.19,5.89l8.05,3.58c3.3,1.7,5.32,5.15,5.19,8.85
		c0,7.19-5.01,11.27-11.99,11.27c-6.98,0-11.48-4.52-12.64-11.27L444.85,318.47z"/>
	<path d="M488.6,326.1h5.32v-29.15h-5.32v-4.36h15.58v4.36h-5.4v29.15h5.4v4.36H488.6V326.1z"/>
	<path d="M553.45,311.54c0,3.04-0.21,19.55-13.45,19.55c-6.1,0-13.45-4.36-13.45-19.55s7.19-19.63,13.45-19.63
		C546.26,291.91,553.45,296.3,553.45,311.54z M531.64,311.54c0,5.53,1.01,14.98,8.36,14.98c7.35,0,8.36-9.45,8.36-14.98
		s-1.01-15.06-8.36-15.06C532.65,296.48,531.64,305.96,531.64,311.54z M548.2,284.49l-13.58,5.97l-1.9-3.19l12.98-7.35L548.2,284.49
		z"/>
	<path d="M570.97,292.59h6.02l14.69,31.93l0,0l-0.42-9.81v-22.12h4.85v37.88h-6.02l-14.56-31.91h-0.13l0.42,9.89v21.89h-4.85
		L570.97,292.59z"/>
	<path d="M680.94,291.65l4.6,2.39l-12.31,21.81v14.62h-4.85v-14.62l-12.23-21.81l4.6-2.39l10.1,19.47L680.94,291.65z"/>
	<path d="M749.56,299.78h-0.13l-0.96,30.69h-5.19l1.53-37.88h6.41l6.85,16.36l6.83-16.43h6.39l1.53,37.88h-5.19l-0.93-30.69h-0.16
		l-8.49,19.99L749.56,299.78z"/>
	<path d="M794.71,292.59v25.81c0,5.53,1.61,8.15,6.62,8.15c6.1,0,7.4-2.6,7.4-8.15v-25.81h4.88v28.14c0,5.01-3.56,10.38-11.92,10.38
		s-11.86-5.19-11.86-10.7v-27.83H794.71z"/>
	<path d="M834.9,292.59h23.63v4.36h-18.74v11.35h15.58v4.36h-15.58v13.45h18.74v4.36H834.9V292.59z"/>
	<path d="M877.94,292.59h12.98c6.31,0,11.32,2.99,11.32,10.38c-0.04,4.84-3.18,9.11-7.79,10.59l9.29,15.34l-4.21,2.6l-9.68-17.37
		h-7.04v16.23h-4.88V292.59z M889.21,309.9c4.72,0,7.79-2.6,7.79-6.98c0.2-3.12-2.17-5.81-5.29-6.01c-0.37-0.02-0.73-0.01-1.1,0.04
		h-7.79v12.98L889.21,309.9z"/>
	<path d="M930.2,296.95h-10.38v-4.36h25.6v4.36h-10.25v33.52h-4.96V296.95z"/>
	<path d="M965.77,292.59h23.63v4.36h-18.74v11.35h15.58v4.36h-15.58v13.45h18.74v4.36h-23.63V292.59z"/>
</g>
</svg>
