<?xml version="1.0" encoding="utf-8"?>
<!-- Generator: Adobe Illustrator 25.3.0, SVG Export Plug-In . SVG Version: 6.00 Build 0)  -->
<svg version="1.1" xmlns="http://www.w3.org/2000/svg" xmlns:xlink="http://www.w3.org/1999/xlink" x="0px" y="0px"
	 viewBox="0 0 1080 1080" xml:space="preserve">
<g>
	<path d="M31.05,685.5c10.45,4.3,19.64,8.03,28.79,11.85c55.07,22.97,110.11,46.01,165.24,68.84c5.47,2.27,8.58,5.11,10.16,11.26
		c16.88,65.48,71.77,110.01,139.15,113.37c60.46,3.02,119.79-35.24,142.94-92.02c7.81-19.16,12.07-38.99,11.56-59.68
		c-0.12-4.76,1.65-7.49,5.33-10.13c56.94-40.87,113.78-81.88,170.74-122.74c2.05-1.47,4.99-2.36,7.53-2.4
		c94.24-1.43,172.53-62.87,194.01-154.92c27.38-117.36-50.79-224.33-157.72-243.65c-120.76-21.82-232.38,69.83-234.58,192.55
		c-0.09,5.09-1.36,9.37-4.29,13.63c-39.65,57.8-79.17,115.69-118.62,173.64c-2.26,3.32-4.7,4.48-8.67,4.39
		c-30.31-0.67-58.13,7.54-83.73,23.74c-1.85,1.17-5.28,1.33-7.35,0.47c-88.82-36.9-177.56-73.98-266.32-111.03
		c-12.48-5.21-12.68-5.19-11.24-18.55c12.18-112.71,55.27-212.08,129.9-297.38c63.49-72.57,141.34-123.98,233.04-153.94
		C449.1,9.21,523.17,1.16,598.48,10.81c169.15,21.68,299.24,105.81,389.5,249.98c60.4,96.48,85.38,202.84,77.1,316.27
		C1053.87,730.48,988.26,856.79,870,954.88c-75.49,62.61-162.71,100.05-260.07,113.28c-94.17,12.8-185.32,1.18-272.95-35.48
		c-89.16-37.3-162.45-95.29-220.31-172.69c-36.79-49.22-63.99-103.35-82.14-162.04C33.39,694.28,32.45,690.54,31.05,685.5z"/>
	<path d="M580.32,402.45c0.12-73.69,59.55-133.59,132.54-133.58c73.51,0.01,133.08,60.34,132.87,134.56
		c-0.21,73.78-59.96,133.38-133.55,133.2C639.28,536.46,580.2,476.33,580.32,402.45z M714.43,503.07
		c55.34-0.8,99-46.26,98.29-102.34c-0.7-55.17-46.13-99.39-101.38-98.68c-55.07,0.71-98.46,46.71-97.65,103.54
		C614.46,459.57,660.22,503.85,714.43,503.07z"/>
	<path d="M279.93,789.27c20.98,8.74,40.96,16.84,60.76,25.37c41.01,17.67,87.04,2.36,106.98-35.8
		c21.02-40.24,8.56-87.98-30.07-111.12c-12.52-7.5-26.73-12.21-40.23-18.06c-10.08-4.37-20.28-8.48-30.4-12.75
		c-1.72-0.72-3.35-1.65-5.47-2.71c44.89-19.59,114.52-1.86,141.62,61.78c25.55,60-6.44,131.08-68.8,151.42
		C352.2,867.66,296.25,830.01,279.93,789.27z"/>
</g>
</svg>
